<?xml version="1.0" standalone="no"?>
<!DOCTYPE svg PUBLIC "-//W3C//DTD SVG 1.1//EN" "http://www.w3.org/Graphics/SVG/1.1/DTD/svg11.dtd" >
<svg xmlns="http://www.w3.org/2000/svg" xmlns:xlink="http://www.w3.org/1999/xlink" version="1.1">
<metadata>
Created by FontForge 20170731 at Tue Mar 27 11:14:26 2018
 By Aleksey,,,
Copyright (c) 2018 Monotype Imaging Inc. All rights reserved.
</metadata>
<defs>
<font id="NeuePlakText-BlackItalic" horiz-adv-x="0" >
  <font-face 
    font-family="Neue Plak Text Black"
    font-weight="900"
    font-style="italic"
    font-stretch="normal"
    units-per-em="1000"
    panose-1="2 11 10 4 3 2 2 9 2 4"
    ascent="800"
    descent="-200"
    x-height="499"
    cap-height="706"
    bbox="-858 -249 1095 1194"
    underline-thickness="50"
    underline-position="-200"
    slope="-11"
    unicode-range="U+000D-FEFF"
  />
<missing-glyph horiz-adv-x="714" 
d="M14 0l141 706h586l-141 -706h-586zM215 144h241l84 418h-241z" />
    <glyph glyph-name=".notdef" horiz-adv-x="714" 
d="M14 0l141 706h586l-141 -706h-586zM215 144h241l84 418h-241z" />
    <glyph glyph-name=".null" 
 />
    <glyph glyph-name="nonmarkingreturn" horiz-adv-x="333" 
 />
    <glyph glyph-name="NULL" 
 />
    <glyph glyph-name="NULL" 
 />
    <glyph glyph-name="CR" unicode="&#xd;" horiz-adv-x="185" 
 />
    <glyph glyph-name="space" unicode=" " horiz-adv-x="185" 
 />
    <glyph glyph-name="exclam" unicode="!" horiz-adv-x="326" 
d="M95 227l72 479h174l-120 -479h-126zM129 -18q-44 0 -71.5 27t-27.5 70q0 42 28 69t71 27t70.5 -27t27.5 -69q0 -43 -27.5 -70t-70.5 -27z" />
    <glyph glyph-name="quotedbl" unicode="&#x22;" horiz-adv-x="556" 
d="M145 424l35 282h158l-78 -282h-115zM366 424l35 282h157l-77 -282h-115z" />
    <glyph glyph-name="numbersign" unicode="#" horiz-adv-x="723" 
d="M726 420h-102l-48 -134h100l-49 -132h-98l-62 -172h-146l61 172h-126l-61 -172h-146l61 172h-102l48 132h101l48 134h-99l49 132h97l61 172h146l-61 -172h125l61 172h149l-62 -172h103zM429 286l47 134h-125l-48 -134h126z" />
    <glyph glyph-name="dollar" unicode="$" horiz-adv-x="635" 
d="M625 499h-172q2 20 2 27q0 55 -45 70l-33 -165q23 -10 46 -18q87 -33 129.5 -78t42.5 -119q0 -106 -82 -168t-212 -66l-14 -71h-68l15 74q-105 11 -156 66t-51 142q0 15 1 24h184q-1 -8 -1 -22q0 -67 54 -80l36 178q-4 2 -20 9t-26 11q-74 31 -112.5 75.5t-38.5 111.5
q0 97 77 158t192 66l15 71h66l-15 -74q93 -10 140 -61.5t47 -134.5q0 -17 -1 -26zM276 527q0 -41 48 -70l29 143q-36 -4 -56.5 -23.5t-20.5 -49.5zM412 192q0 43 -58 76l-32 -157q42 4 66 26t24 55z" />
    <glyph glyph-name="percent" unicode="%" horiz-adv-x="780" 
d="M225 389q-65 0 -97.5 36t-32.5 100q0 84 44.5 137t125.5 53q66 0 97.5 -36.5t31.5 -99.5q0 -84 -44 -137t-125 -53zM47 0l605 706h122l-605 -706h-122zM234 476q31 0 45 28.5t14 67.5q0 56 -37 56q-31 0 -45.5 -28.5t-14.5 -68.5q0 -55 38 -55zM557 -8q-66 0 -98.5 36.5
t-32.5 100.5q0 83 45 136t126 53q66 0 97.5 -36t31.5 -99q0 -84 -44 -137.5t-125 -53.5zM566 80q31 0 45 28t14 68q0 56 -37 56q-30 0 -45 -29t-15 -68q0 -55 38 -55z" />
    <glyph glyph-name="ampersand" unicode="&#x26;" horiz-adv-x="679" 
d="M651 300q-51 -93 -95 -149q34 -18 68 -22l-29 -129q-85 0 -151 42q-80 -55 -190 -55q-111 0 -169.5 50t-58.5 128q0 79 53.5 134.5t146.5 106.5q-31 89 -31 143q0 84 63.5 129.5t166.5 45.5q89 0 140 -34t51 -101q0 -38 -17 -71t-51 -61.5t-65 -47.5t-80 -45l50 -103
q3 -7 11 -21q28 40 77 119zM340 548q0 -32 16 -77q55 29 84.5 55.5t29.5 57.5q0 44 -55 44q-36 0 -55.5 -21.5t-19.5 -58.5zM193 180q0 -33 22 -52t61 -19q40 0 79 22q-10 15 -21 37l-60 124q-81 -54 -81 -112z" />
    <glyph glyph-name="quotesingle" unicode="'" horiz-adv-x="335" 
d="M145 424l35 282h158l-78 -282h-115z" />
    <glyph glyph-name="parenleft" unicode="(" horiz-adv-x="425" 
d="M157 -201q-53 189 -53 349q0 348 244 670h152q-261 -323 -261 -685q0 -164 49 -334h-131z" />
    <glyph glyph-name="parenright" unicode=")" horiz-adv-x="426" 
d="M291 818q54 -192 54 -349q0 -346 -244 -670h-153q262 324 262 685q0 164 -49 334h130z" />
    <glyph glyph-name="asterisk" unicode="*" horiz-adv-x="384" 
d="M171 402l-71 78l96 61l-109 38l52 92l90 -74l2 116l104 -21l-43 -107l110 34l13 -106l-116 8l66 -95l-97 -43l-27 112z" />
    <glyph glyph-name="plus" unicode="+" horiz-adv-x="593" 
d="M557 355l-24 -122h-178l-36 -181h-127l37 181h-178l25 122h177l37 182h126l-36 -182h177z" />
    <glyph glyph-name="comma" unicode="," horiz-adv-x="336" 
d="M-38 -176l127 337h156l-163 -337h-120z" />
    <glyph glyph-name="hyphen" unicode="-" horiz-adv-x="410" 
d="M51 228l27 132h298l-27 -132h-298z" />
    <glyph glyph-name="period" unicode="." horiz-adv-x="326" 
d="M129 -18q-44 0 -71.5 27t-27.5 70q0 42 28 69t71 27t70.5 -27t27.5 -69q0 -43 -27.5 -70t-70.5 -27z" />
    <glyph glyph-name="slash" unicode="/" horiz-adv-x="515" 
d="M-32 -50l446 774h168l-446 -774h-168z" />
    <glyph glyph-name="zero" unicode="0" horiz-adv-x="600" 
d="M266 -18q-119 0 -175 67t-56 184q0 70 15 148q31 156 112.5 249.5t212.5 93.5q119 0 175 -67t56 -184q0 -70 -15 -148q-30 -155 -111.5 -249t-213.5 -94zM276 125q100 0 145 216q16 78 16 134q0 52 -16 79t-55 27q-54 0 -90 -60t-55 -156q-16 -78 -16 -134q0 -52 16 -79
t55 -27z" />
    <glyph glyph-name="one" unicode="1" horiz-adv-x="600" 
d="M199 0l111 557h-148l60 149h280l-141 -706h-162z" />
    <glyph glyph-name="two" unicode="2" horiz-adv-x="600" 
d="M-32 0l1 3l356 339q55 53 82.5 91t27.5 77q0 75 -79 75q-96 0 -119 -127h-159q23 124 96 195t199 71q116 0 174.5 -53t58.5 -146q0 -113 -103 -209q-91 -86 -194 -173h233l-28 -143h-546z" />
    <glyph glyph-name="three" unicode="3" horiz-adv-x="600" 
d="M604 543q0 -69 -40 -114t-111 -64q102 -37 102 -149q0 -107 -80 -170.5t-205 -63.5q-127 0 -183 52t-56 153q0 30 8 72h154q-5 -30 -5 -48q0 -94 92 -94q51 0 80 30t29 77q0 90 -115 90h-12l22 110h21q135 0 135 102q0 75 -79 75q-47 0 -74.5 -27.5t-35.5 -73.5h-157
q22 109 94.5 166.5t187.5 57.5q114 0 171 -49.5t57 -131.5z" />
    <glyph glyph-name="four" unicode="4" horiz-adv-x="600" 
d="M598 706l-84 -423h84l-27 -137h-85l-29 -146h-163l29 146h-349l1 3l327 557h296zM217 283h134l73 368h-1z" />
    <glyph glyph-name="five" unicode="5" horiz-adv-x="600" 
d="M575 566h-258l-41 -107q32 7 70 7q109 0 162 -56.5t53 -154.5q0 -121 -82.5 -197t-213.5 -76q-240 0 -240 205q0 29 6 65h158q-4 -21 -4 -45q0 -91 88 -91q55 0 86.5 35t31.5 89q0 64 -43 93t-129 29q-73 0 -136 -11l130 355h420z" />
    <glyph glyph-name="six" unicode="6" horiz-adv-x="600" 
d="M378 467q91 0 144 -58.5t53 -146.5q0 -120 -82 -200t-206 -80q-249 0 -249 265q0 96 24 181.5t68 151.5t113.5 105t154.5 39q105 0 164.5 -54t59.5 -152h-156q-2 80 -80 80q-65 0 -108.5 -56.5t-61.5 -144.5q64 70 162 70zM290 114q55 0 87 41.5t32 100.5q0 95 -81 95
q-54 0 -88 -42t-34 -97q0 -45 21 -71.5t63 -26.5z" />
    <glyph glyph-name="seven" unicode="7" horiz-adv-x="600" 
d="M51 0l349 557h-297l29 149h549l-430 -706h-200z" />
    <glyph glyph-name="eight" unicode="8" horiz-adv-x="600" 
d="M619 544q0 -65 -42 -110.5t-109 -56.5q103 -38 103 -162q0 -108 -84 -170.5t-212 -62.5q-133 0 -200 54.5t-67 148.5q0 78 49 133t128 69q-44 18 -67.5 56.5t-23.5 88.5q0 89 78 140.5t192 51.5q122 0 188.5 -47.5t66.5 -132.5zM362 615q-50 0 -79 -28.5t-29 -73.5
q0 -40 23.5 -61.5t67.5 -21.5q49 0 79 29t30 72q0 39 -23 61.5t-69 22.5zM281 106q53 0 86.5 31.5t33.5 79.5q0 43 -25 69.5t-75 26.5q-55 0 -88 -33.5t-33 -82.5q0 -43 25.5 -67t75.5 -24z" />
    <glyph glyph-name="nine" unicode="9" horiz-adv-x="600" 
d="M354 724q249 0 249 -265q0 -96 -24 -181.5t-68 -151.5t-113.5 -105t-154.5 -39q-105 0 -164.5 54t-59.5 152h156q2 -80 80 -80q64 0 108 56.5t62 143.5q-64 -69 -162 -69q-91 0 -144 58.5t-53 146.5q0 120 82 200t206 80zM313 355q55 0 88.5 41.5t33.5 97.5
q0 45 -21 71.5t-63 26.5q-55 0 -87 -41.5t-32 -100.5q0 -95 81 -95z" />
    <glyph glyph-name="colon" unicode=":" horiz-adv-x="327" 
d="M196 316q-43 0 -70.5 27t-27.5 70q0 42 27.5 69t70.5 27t70.5 -27t27.5 -69q0 -43 -27.5 -70t-70.5 -27zM130 -18q-44 0 -71.5 27t-27.5 70q0 42 28 69t71 27t70.5 -27t27.5 -69q0 -43 -27.5 -70t-70.5 -27z" />
    <glyph glyph-name="semicolon" unicode=";" horiz-adv-x="368" 
d="M237 316q-43 0 -70.5 27t-27.5 70q0 42 27.5 69t70.5 27t71 -27t28 -69q0 -43 -27.5 -70t-71.5 -27zM-38 -176l127 337h156l-163 -337h-120z" />
    <glyph glyph-name="less" unicode="&#x3c;" horiz-adv-x="593" 
d="M590 511l-25 -126l-378 -91l341 -91l-25 -126l-456 130l24 118h1l11 55z" />
    <glyph glyph-name="equal" unicode="=" horiz-adv-x="593" 
d="M72 333l25 122h481l-24 -122h-482zM32 133l25 122h481l-24 -122h-482z" />
    <glyph glyph-name="greater" unicode="&#x3e;" horiz-adv-x="593" 
d="M564 381l-24 -118l-11 -55l-508 -131l26 126l377 91l-341 91l25 126z" />
    <glyph glyph-name="question" unicode="?" horiz-adv-x="537" 
d="M158 227q119 127 173.5 198.5t54.5 116.5q0 59 -64 59q-38 0 -54.5 -21.5t-23.5 -61.5h-155q35 206 245 206q105 0 162.5 -47t57.5 -134q0 -61 -45.5 -128.5t-155.5 -187.5h-195zM220 -18q-43 0 -70.5 27t-27.5 70q0 42 27.5 69t70.5 27t70.5 -27t27.5 -69
q0 -43 -27.5 -70t-70.5 -27z" />
    <glyph glyph-name="at" unicode="@" horiz-adv-x="849" 
d="M489 690q164 0 250 -84t86 -224q0 -143 -81 -232.5t-222 -89.5h-65l11 53q-54 -56 -140 -56q-63 0 -94 32t-31 87q0 82 58 117t164 35h77q5 25 5 38q0 27 -11.5 39t-41.5 12q-54 0 -64 -55h-139q11 73 66 111.5t147 38.5q95 0 135 -35.5t40 -107.5q0 -28 -8 -68l-32 -158
q71 20 111 87t40 152q0 112 -67 177.5t-194 65.5q-171 0 -267.5 -112.5t-96.5 -288.5q0 -127 70.5 -198t218.5 -71q34 0 66 3l-14 -69q-30 -2 -52 -2q-187 0 -276 91t-89 247q0 202 121 333.5t319 131.5zM403 156q38 0 56 22t29 78h-57q-82 0 -82 -56q0 -44 54 -44z" />
    <glyph glyph-name="A" unicode="A" horiz-adv-x="699" 
d="M475 0l-12 137h-262l-67 -137h-179l360 706h251l78 -706h-169zM264 264h187l-28 319h-2z" />
    <glyph glyph-name="B" unicode="B" horiz-adv-x="632" 
d="M486 373q104 -45 104 -157q0 -100 -73 -158t-191 -58h-299l141 706h263q97 0 145 -44t48 -116q0 -63 -37 -109t-101 -64zM328 426q56 0 86 24t30 66q0 75 -96 75h-36l-34 -165h50zM281 117q63 0 97 26.5t34 76.5q0 87 -110 87h-47l-38 -190h64z" />
    <glyph glyph-name="C" unicode="C" horiz-adv-x="721" 
d="M351 -18q-152 0 -222 79t-70 214q0 191 107.5 320t280.5 129q126 0 199 -68t73 -182q0 -16 -3 -36h-170q1 8 1 16q0 61 -30 94.5t-87 33.5q-94 0 -146 -89.5t-52 -212.5q0 -72 32 -113.5t94 -41.5q111 0 144 127h182q-24 -123 -114.5 -196.5t-218.5 -73.5z" />
    <glyph glyph-name="D" unicode="D" horiz-adv-x="722" 
d="M27 0l141 706h213q321 0 321 -288q0 -184 -106.5 -301t-285.5 -117h-283zM221 135h68q117 0 178 74t61 194q0 81 -35 124.5t-118 43.5h-67z" />
    <glyph glyph-name="E" unicode="E" horiz-adv-x="571" 
d="M27 0l141 706h439l-26 -135h-273l-30 -145h270l-27 -136h-269l-31 -155h272l-27 -135h-439z" />
    <glyph glyph-name="F" unicode="F" horiz-adv-x="536" 
d="M27 0l141 706h417l-27 -135h-250l-30 -145h248l-26 -136h-248l-59 -290h-166z" />
    <glyph glyph-name="G" unicode="G" horiz-adv-x="725" 
d="M437 582q-65 0 -113 -44.5t-70 -110.5t-22 -141q0 -162 131 -162q126 0 160 142h-145l24 119h308l-16 -82q-13 -66 -38.5 -121.5t-66.5 -101.5t-103.5 -72t-140.5 -26q-139 0 -212 78t-73 220q0 120 44 220t133.5 162t208.5 62q129 0 202.5 -70t69.5 -192h-167
q0 60 -30.5 90t-83.5 30z" />
    <glyph glyph-name="H" unicode="H" horiz-adv-x="734" 
d="M27 0l141 706h166l-55 -279h247l56 279h166l-141 -706h-166l57 287h-247l-58 -287h-166z" />
    <glyph glyph-name="I" unicode="I" horiz-adv-x="320" 
d="M27 0l141 706h166l-141 -706h-166z" />
    <glyph glyph-name="J" unicode="J" horiz-adv-x="384" 
d="M36 -3q-40 0 -70 5l30 149q14 -3 37 -3q57 0 84.5 24.5t39.5 87.5l90 446h166l-97 -488q-23 -113 -90 -167t-190 -54z" />
    <glyph glyph-name="K" unicode="K" horiz-adv-x="691" 
d="M735 706l-330 -342l231 -364h-191l-189 315l-63 -315h-166l141 706h166l-53 -266l249 266h205z" />
    <glyph glyph-name="L" unicode="L" horiz-adv-x="482" 
d="M27 0l141 706h166l-111 -561h223l-29 -145h-390z" />
    <glyph glyph-name="M" unicode="M" horiz-adv-x="901" 
d="M27 0l141 706h184l93 -438l268 438h202l-141 -706h-157l89 441l-269 -441h-73l-92 441l-88 -441h-157z" />
    <glyph glyph-name="N" unicode="N" horiz-adv-x="753" 
d="M27 0l141 706h165l181 -462l92 462h162l-141 -706h-166l-181 462l-92 -462h-161z" />
    <glyph glyph-name="O" unicode="O" horiz-adv-x="752" 
d="M357 -18q-155 0 -226.5 77.5t-71.5 212.5q0 123 43.5 225t131 164.5t202.5 62.5q153 0 225.5 -78.5t72.5 -211.5q0 -191 -102 -321.5t-275 -130.5zM360 124q64 0 111.5 47t69 114.5t21.5 141.5q0 155 -129 155q-50 0 -89.5 -27t-63.5 -71t-36.5 -96.5t-12.5 -107.5
q0 -71 31.5 -113.5t97.5 -42.5z" />
    <glyph glyph-name="P" unicode="P" horiz-adv-x="613" 
d="M27 0l141 706h227q244 0 244 -187q0 -112 -69.5 -178t-190.5 -66h-130l-56 -275h-166zM273 400h81q114 0 114 100q0 42 -26 61.5t-82 19.5h-50z" />
    <glyph glyph-name="Q" unicode="Q" horiz-adv-x="752" 
d="M734 434q0 -136 -54 -245.5t-151 -163.5l56 -119l-130 -55l-55 133q-28 -2 -43 -2q-155 0 -226.5 77.5t-71.5 212.5q0 123 43.5 225t131 164.5t202.5 62.5q153 0 225.5 -78.5t72.5 -211.5zM464 164q47 40 72.5 112.5t25.5 150.5q0 155 -129 155q-50 0 -89.5 -27
t-63.5 -71t-36.5 -96.5t-12.5 -107.5q0 -144 111 -155l-23 57l114 49z" />
    <glyph glyph-name="R" unicode="R" horiz-adv-x="660" 
d="M646 511q0 -91 -50 -151t-139 -77l143 -283h-175l-138 277h-38l-56 -277h-166l141 706h241q237 0 237 -195zM310 581l-37 -186h84q57 0 87.5 27.5t30.5 76.5q0 45 -24.5 63.5t-76.5 18.5h-64z" />
    <glyph glyph-name="S" unicode="S" horiz-adv-x="622" 
d="M281 -18q-132 0 -194.5 56.5t-62.5 154.5q0 15 1 24h184q-2 -16 -2 -22q0 -85 92 -85q48 0 75 21t27 56q0 18 -6.5 32t-24 27t-30.5 20.5t-44.5 23t-47.5 23.5q-74 39 -108 79.5t-34 106.5q0 104 76.5 164.5t200.5 60.5q116 0 176.5 -53.5t60.5 -145.5q0 -17 -1 -26h-172
q2 20 2 28q0 34 -20.5 54t-61.5 20q-42 0 -65.5 -21t-23.5 -55q0 -9 1.5 -16.5t6 -14.5t8 -12t12.5 -11.5t15 -10.5t19.5 -11t21.5 -10.5t26 -12t28 -13.5q89 -42 128.5 -82.5t39.5 -115.5q0 -110 -83.5 -171.5t-219.5 -61.5z" />
    <glyph glyph-name="T" unicode="T" horiz-adv-x="549" 
d="M142 0l114 571h-176l26 135h519l-27 -135h-175l-115 -571h-166z" />
    <glyph glyph-name="U" unicode="U" horiz-adv-x="690" 
d="M316 -18q-258 0 -258 208q0 44 11 96l84 420h166l-88 -442q-5 -24 -5 -53q0 -43 22.5 -64.5t73.5 -21.5q64 0 96 31.5t45 97.5l90 452h166l-97 -489q-47 -235 -306 -235z" />
    <glyph glyph-name="V" unicode="V" horiz-adv-x="681" 
d="M592 706h175l-393 -706h-166l-112 706h174l61 -500z" />
    <glyph glyph-name="W" unicode="W" horiz-adv-x="943" 
d="M859 706h170l-327 -706h-174l-12 476l-202 -476h-170l-48 706h158l24 -467l193 467h174l13 -466z" />
    <glyph glyph-name="X" unicode="X" horiz-adv-x="706" 
d="M-45 0l322 384l-160 322h177l94 -199l163 199h211l-291 -335l179 -371h-177l-116 240l-187 -240h-215z" />
    <glyph glyph-name="Y" unicode="Y" horiz-adv-x="612" 
d="M173 0l61 303l-138 403h165l83 -241l162 241h192l-298 -403l-61 -303h-166z" />
    <glyph glyph-name="Z" unicode="Z" horiz-adv-x="614" 
d="M-28 0l395 567h-264l27 139h529l-393 -567h294l-28 -139h-560z" />
    <glyph glyph-name="bracketleft" unicode="[" horiz-adv-x="394" 
d="M40 -201l204 1019h237l-24 -120h-103l-156 -779h103l-24 -120h-237z" />
    <glyph glyph-name="backslash" unicode="\" horiz-adv-x="516" 
d="M428 -50h-147l-158 774h147z" />
    <glyph glyph-name="bracketright" unicode="]" horiz-adv-x="394" 
d="M378 818l-204 -1019h-237l24 120h103l156 779h-103l24 120h237z" />
    <glyph glyph-name="asciicircum" unicode="^" horiz-adv-x="539" 
d="M524 375h-145l-34 205l-115 -205h-165l194 331h202z" />
    <glyph glyph-name="underscore" unicode="_" horiz-adv-x="390" 
d="M-89 -193l27 133h390l-27 -133h-390z" />
    <glyph glyph-name="grave" unicode="`" horiz-adv-x="341" 
d="M355 570h-130l-80 157h146z" />
    <glyph glyph-name="a" unicode="a" horiz-adv-x="583" 
d="M318 513q115 0 166 -44.5t51 -132.5q0 -28 -11 -86l-50 -250h-159l10 50q-60 -63 -158 -63q-76 0 -114 37.5t-38 102.5q0 178 268 178h93q4 21 4 38q0 31 -14.5 45.5t-50.5 14.5q-70 0 -81 -64h-162q15 84 78.5 129t167.5 45zM248 103q48 0 73 25.5t37 84.5h-71
q-49 0 -75 -13t-26 -48q0 -49 62 -49z" />
    <glyph glyph-name="b" unicode="b" horiz-adv-x="607" 
d="M401 513q172 0 172 -220q0 -125 -70 -215.5t-182 -90.5q-106 0 -140 82l-14 -69h-153l141 706h156l-49 -248q56 55 139 55zM289 119q58 0 88.5 46.5t30.5 114.5q0 102 -78 102q-82 0 -105 -100q-13 -65 -13 -81q0 -82 77 -82z" />
    <glyph glyph-name="c" unicode="c" horiz-adv-x="572" 
d="M257 -13q-113 0 -168 60.5t-55 161.5q0 130 81 217t208 87q102 0 161.5 -49t59.5 -139q0 -10 -1 -16h-168v4q0 69 -62 69q-53 0 -83 -51t-30 -119q0 -93 72 -93q31 0 52.5 21t26.5 52h175q-23 -99 -94 -152t-175 -53z" />
    <glyph glyph-name="d" unicode="d" horiz-adv-x="607" 
d="M478 706h157l-141 -706h-153l9 46q-59 -60 -144 -60q-89 0 -130.5 59.5t-41.5 160.5q0 125 70 215.5t182 90.5q103 0 138 -76zM277 118q85 0 105 100q13 65 13 80q0 83 -77 83q-58 0 -88 -46.5t-30 -115.5q0 -101 77 -101z" />
    <glyph glyph-name="e" unicode="e" horiz-adv-x="581" 
d="M538 211h-344v-4q0 -101 84 -101q59 0 83 48h164q-25 -79 -94.5 -123t-163.5 -44q-116 0 -174.5 59.5t-58.5 161.5q0 131 79.5 218t209.5 87q102 0 162.5 -56.5t60.5 -161.5q0 -39 -8 -84zM314 399q-76 0 -106 -95h184v2q0 93 -78 93z" />
    <glyph glyph-name="f" unicode="f" horiz-adv-x="354" 
d="M24 0l75 375h-57l24 124h58l13 68q16 81 65 118.5t137 37.5q49 0 92 -10l-26 -125q-21 7 -43 7q-63 0 -75 -65l-6 -31h104l-25 -124h-104l-75 -375h-157z" />
    <glyph glyph-name="g" unicode="g" horiz-adv-x="606" 
d="M439 499h153l-101 -504q-41 -209 -272 -209q-107 0 -167.5 39t-57.5 116h163q9 -38 68 -38q88 0 108 104l7 35q-56 -49 -135 -49q-87 0 -129.5 56.5t-42.5 141.5q0 137 69 229t182 92q108 0 141 -83zM199 226q0 -102 78 -102q85 0 104 96q12 60 12 78q0 83 -77 83
q-57 0 -87 -45t-30 -110z" />
    <glyph glyph-name="h" unicode="h" horiz-adv-x="592" 
d="M399 513q73 0 111 -40.5t38 -118.5q0 -26 -6 -57l-60 -297h-157l54 272q5 25 5 42q0 68 -63 68q-73 0 -91 -84l-60 -298h-156l141 706h156l-51 -258q57 65 139 65z" />
    <glyph glyph-name="i" unicode="i" horiz-adv-x="284" 
d="M223 570q-37 0 -61.5 23.5t-24.5 58.5t24.5 59t61.5 24q36 0 61 -24t25 -59q0 -34 -25 -58t-61 -24zM14 0l99 499h157l-100 -499h-156z" />
    <glyph glyph-name="j" unicode="j" horiz-adv-x="284" 
d="M223 570q-37 0 -61.5 23.5t-24.5 58.5t24.5 59t61.5 24q36 0 61 -24t25 -59q0 -34 -25 -58t-61 -24zM-30 -204q-36 0 -76 5l27 134q10 -2 27 -2q53 0 63 55l102 511h157l-110 -549q-16 -81 -61.5 -117.5t-128.5 -36.5z" />
    <glyph glyph-name="k" unicode="k" horiz-adv-x="558" 
d="M590 499l-231 -242l164 -257h-188l-124 206l-41 -206h-156l141 706h156l-74 -369l142 162h211z" />
    <glyph glyph-name="l" unicode="l" horiz-adv-x="284" 
d="M14 0l141 706h156l-141 -706h-156z" />
    <glyph glyph-name="m" unicode="m" horiz-adv-x="885" 
d="M696 513q146 0 146 -148q0 -31 -7 -68l-60 -297h-156l53 272q6 22 6 42q0 68 -60 68q-69 0 -85 -84l-60 -298h-157l54 272q5 25 5 42q0 68 -59 68q-68 0 -86 -84l-60 -298h-156l99 499h157l-11 -55q58 69 139 69q108 0 137 -93q64 93 161 93z" />
    <glyph glyph-name="n" unicode="n" horiz-adv-x="592" 
d="M403 513q71 0 108 -39t37 -112q0 -34 -6 -65l-60 -297h-157l54 272q5 25 5 44q0 66 -63 66q-73 0 -91 -84l-60 -298h-156l99 499h157l-10 -51q56 65 143 65z" />
    <glyph glyph-name="o" unicode="o" horiz-adv-x="588" 
d="M258 -13q-111 0 -167 62t-56 160q0 135 79.5 219.5t215.5 84.5q113 0 168.5 -61.5t55.5 -156.5q0 -137 -79.5 -222.5t-216.5 -85.5zM275 119q57 0 86.5 50t29.5 121q0 92 -78 92q-55 0 -85 -50t-30 -118q0 -95 77 -95z" />
    <glyph glyph-name="p" unicode="p" horiz-adv-x="607" 
d="M401 513q88 0 130 -60t42 -160q0 -125 -70 -215.5t-182 -90.5q-103 0 -138 77l-53 -264h-156l139 699h153l-9 -46q59 60 144 60zM289 119q58 0 88.5 46.5t30.5 114.5q0 102 -78 102q-82 0 -105 -100q-13 -65 -13 -81q0 -82 77 -82z" />
    <glyph glyph-name="q" unicode="q" horiz-adv-x="607" 
d="M441 499h153l-140 -699h-157l48 241q-58 -55 -139 -55q-88 0 -130 60t-42 161q0 124 70 214.5t182 90.5q108 0 141 -83zM200 219q0 -101 77 -101q85 0 105 100q13 65 13 80q0 83 -77 83q-58 0 -88 -46.5t-30 -115.5z" />
    <glyph glyph-name="r" unicode="r" horiz-adv-x="405" 
d="M392 507q26 0 49 -7l-28 -138q-18 5 -46 5q-122 0 -153 -151l-44 -216h-156l99 499h150l-13 -64q56 72 142 72z" />
    <glyph glyph-name="s" unicode="s" horiz-adv-x="499" 
d="M217 -17q-104 0 -155.5 38.5t-51.5 108.5q0 16 3 34h155q-3 -13 -3 -26q0 -47 56 -47q29 0 43.5 13t14.5 31q0 24 -20 38.5t-65 32.5q-61 24 -92 56t-31 87q0 77 59.5 120.5t151.5 43.5q94 0 141.5 -34t47.5 -97q0 -8 -2 -28h-149q2 12 2 21q0 40 -47 40q-25 0 -38 -11.5
t-13 -28.5q0 -20 20.5 -34.5t70.5 -34.5q67 -26 99 -59.5t32 -90.5q0 -83 -64 -128t-165 -45z" />
    <glyph glyph-name="t" unicode="t" horiz-adv-x="372" 
d="M206 -9q-78 0 -114.5 29t-36.5 95q0 31 9 73l37 187h-63l24 124h64l23 117h157l-23 -117h111l-25 -124h-111l-36 -177q-3 -16 -3 -28q0 -27 13 -39t40 -12q20 0 46 6l-26 -126q-46 -8 -86 -8z" />
    <glyph glyph-name="u" unicode="u" horiz-adv-x="592" 
d="M422 499h156l-99 -499h-157l10 51q-56 -65 -143 -65q-71 0 -108 39t-37 112q0 33 6 65l60 297h157l-54 -272q-5 -25 -5 -44q0 -66 63 -66q73 0 91 84z" />
    <glyph glyph-name="v" unicode="v" horiz-adv-x="557" 
d="M138 0l-77 499h161l33 -317l161 317h180l-276 -499h-182z" />
    <glyph glyph-name="w" unicode="w" horiz-adv-x="829" 
d="M691 499h177l-272 -499h-153l-26 286l-134 -286h-151l-71 499h160l22 -295l147 295h130l30 -294z" />
    <glyph glyph-name="x" unicode="x" horiz-adv-x="583" 
d="M-39 0l242 263l-140 236h170l75 -134l113 134h193l-237 -250l152 -249h-172l-77 142l-120 -142h-199z" />
    <glyph glyph-name="y" unicode="y" horiz-adv-x="559" 
d="M421 499h176l-410 -699h-168l118 202l-76 497h158l38 -319z" />
    <glyph glyph-name="z" unicode="z" horiz-adv-x="480" 
d="M524 499l-287 -373h203l-25 -126h-459l299 375h-202l25 124h446z" />
    <glyph glyph-name="braceleft" unicode="{" horiz-adv-x="402" 
d="M415 818h74l-23 -113h-10q-55 0 -78.5 -21t-33.5 -72l-40 -198q-10 -52 -37.5 -77.5t-77.5 -30.5q71 -15 71 -98q0 -22 -6 -49l-32 -154q-4 -19 -4 -38q0 -29 17.5 -42t61.5 -13h11l-23 -113h-45q-76 0 -114 37.5t-38 102.5q0 26 6 53l32 166q4 19 4 36q0 30 -18 42
t-61 12l27 129q52 0 76.5 20t34.5 71l39 196q14 70 62.5 112t124.5 42z" />
    <glyph glyph-name="bar" unicode="|" horiz-adv-x="440" 
d="M48 -201l191 957h164l-191 -957h-164z" />
    <glyph glyph-name="braceright" unicode="}" horiz-adv-x="403" 
d="M296 423q0 -30 18 -42t61 -12l-27 -130q-52 0 -76.5 -20t-34.5 -70l-39 -196q-14 -70 -62.5 -112t-124.5 -42h-74l23 113h10q55 0 78.5 21t33.5 72l39 198q10 52 38 77.5t78 30.5q-71 15 -71 97q0 22 6 49l32 155q4 19 4 38q0 29 -17.5 42t-61.5 13h-11l23 113h45
q76 0 114 -37.5t38 -102.5q0 -26 -6 -54l-32 -165q-4 -19 -4 -36z" />
    <glyph glyph-name="asciitilde" unicode="~" horiz-adv-x="593" 
d="M385 186q-20 0 -40 8t-28.5 14t-27.5 20q-36 31 -59 31q-37 0 -54 -71h-118q51 214 174 214q43 0 95 -43q2 -1 7.5 -5.5t7 -6t6.5 -5t7.5 -5t6.5 -4t7.5 -3t7.5 -1.5t8 -1q38 0 55 72h118q-27 -107 -68.5 -160.5t-104.5 -53.5z" />
    <glyph glyph-name="uni00A0" unicode="&#xa0;" horiz-adv-x="185" 
 />
    <glyph glyph-name="exclamdown" unicode="&#xa1;" horiz-adv-x="326" 
d="M198 524q44 0 71.5 -27t27.5 -70q0 -42 -28 -69t-71 -27t-70.5 27t-27.5 69q0 43 27.5 70t70.5 27zM232 279l-72 -479h-174l119 479h127z" />
    <glyph glyph-name="cent" unicode="&#xa2;" horiz-adv-x="569" 
d="M564 414h-158v5q0 52 -39 68l-54 -266q28 7 46 27.5t23 48.5h162q-22 -95 -89 -148t-165 -57l-18 -92h-66l18 96q-85 14 -127 72.5t-42 145.5q0 126 76.5 212.5t198.5 92.5l17 87h66l-18 -90q80 -12 125 -60t45 -126q0 -10 -1 -16zM307 488q-46 -13 -71 -62t-25 -108
q0 -73 43 -92z" />
    <glyph glyph-name="sterling" unicode="&#xa3;" horiz-adv-x="655" 
d="M660 462h-156q2 22 2 33q0 49 -18 74t-61 25q-48 0 -72 -29.5t-36 -85.5l-16 -81h161l-15 -79h-162l-39 -197h63q71 0 106.5 35.5t48.5 102.5h154q-27 -135 -91 -197.5t-197 -62.5h-348l25 122h72l39 197h-72l16 79h72l20 103q22 111 86.5 167t190.5 56q123 0 177.5 -51
t54.5 -149q0 -25 -5 -62z" />
    <glyph glyph-name="currency" unicode="&#xa4;" horiz-adv-x="591" 
d="M556 377q0 -124 -91 -199l59 -104h-114l-32 56q-46 -13 -89 -13q-65 0 -112 26l-66 -69h-114l118 123q-38 53 -38 129q0 125 92 203l-61 102h114l33 -56q42 14 89 14q64 0 111 -25l66 67h114l-119 -120q40 -55 40 -134zM203 340q0 -50 25.5 -78t75.5 -28q57 0 91.5 38.5
t34.5 93.5q0 50 -25.5 78.5t-75.5 28.5q-57 0 -91.5 -38.5t-34.5 -94.5z" />
    <glyph glyph-name="yen" unicode="&#xa5;" horiz-adv-x="619" 
d="M702 706l-278 -360h153l-15 -73h-162l-13 -68h162l-15 -73h-162l-26 -132h-170l26 132h-164l15 73h164l13 68h-164l15 73h155l-137 360h165l77 -233l169 233h192z" />
    <glyph glyph-name="brokenbar" unicode="&#xa6;" horiz-adv-x="440" 
d="M174 428l65 328h164l-65 -328h-164zM48 -201l66 329h164l-66 -329h-164z" />
    <glyph glyph-name="section" unicode="&#xa7;" horiz-adv-x="526" 
d="M540 551h-151q1 5 1 16q0 50 -57 50q-33 0 -51.5 -17t-18.5 -45q0 -9 2.5 -17t5.5 -13.5t10 -12.5t11 -10.5t15 -10t15 -8.5t17.5 -8.5t16.5 -8.5q73 -35 105.5 -71.5t32.5 -98.5q0 -72 -37.5 -119.5t-103.5 -67.5q78 -53 78 -136q0 -88 -68 -138t-174 -50
q-210 0 -210 154q0 18 1 28h156q-1 -7 -1 -20q0 -54 59 -54q39 0 57.5 19.5t18.5 51.5q0 23 -15 40.5t-30 25.5t-51 25q-70 32 -103.5 68t-33.5 99q0 71 43.5 116.5t117.5 60.5q-42 29 -65 62t-23 81q0 83 64.5 132.5t161.5 49.5q101 0 153 -37.5t52 -109.5q0 -17 -1 -26z
M272 322q-42 0 -66 -20.5t-24 -53.5q0 -29 19.5 -46t55.5 -17q42 0 66 20.5t24 53.5q0 63 -75 63z" />
    <glyph glyph-name="dieresis" unicode="&#xa8;" horiz-adv-x="475" 
d="M212 569q-35 0 -58 22t-23 55q0 34 23 56.5t58 22.5t58.5 -22.5t23.5 -56.5q0 -33 -23.5 -55t-58.5 -22zM421 569q-35 0 -58 22t-23 55q0 34 23 56.5t58 22.5t58.5 -22.5t23.5 -56.5q0 -33 -23.5 -55t-58.5 -22z" />
    <glyph glyph-name="copyright" unicode="&#xa9;" horiz-adv-x="808" 
d="M392 -18q-159 0 -243.5 93.5t-84.5 237.5q0 171 112 291t282 120q158 0 243.5 -90.5t85.5 -231.5q0 -176 -112 -298t-283 -122zM393 46q143 0 233 104.5t90 253.5q0 115 -66.5 185.5t-191.5 70.5q-144 0 -234.5 -101.5t-90.5 -246.5q0 -117 67.5 -191.5t192.5 -74.5z
M405 109q-93 0 -147 56t-54 158q0 115 69 195t180 80q98 0 150.5 -53.5t44.5 -141.5h-139q4 33 -14.5 55t-51.5 22q-51 0 -76.5 -49.5t-25.5 -111.5q0 -88 67 -88q31 0 52 18.5t29 47.5h140q-16 -85 -78.5 -136.5t-145.5 -51.5z" />
    <glyph glyph-name="ordfeminine" unicode="&#xaa;" horiz-adv-x="417" 
d="M279 717q84 0 122 -30.5t38 -92.5q0 -25 -6 -55l-37 -182h-120l8 40q-47 -49 -111 -49q-106 0 -106 99q0 124 183 124h66q4 16 4 27q0 18 -9.5 26.5t-33.5 8.5q-38 0 -45 -39h-126q22 123 173 123zM237 437q28 0 43 16.5t23 53.5h-46q-58 0 -58 -37q0 -33 38 -33z" />
    <glyph glyph-name="guillemotleft" unicode="&#xab;" horiz-adv-x="599" 
d="M143 124l-113 170l171 160h169l-182 -169l108 -161h-153zM400 124l-113 170l171 160h169l-182 -169l108 -161h-153z" />
    <glyph glyph-name="logicalnot" unicode="&#xac;" horiz-adv-x="593" 
d="M372 52l53 266h-356l25 122h481l-78 -388h-125z" />
    <glyph glyph-name="uni00AD" unicode="&#xad;" horiz-adv-x="410" 
d="M51 228l27 132h298l-27 -132h-298z" />
    <glyph glyph-name="registered" unicode="&#xae;" horiz-adv-x="488" 
d="M310 720q96 0 145 -51t49 -137q0 -99 -60.5 -163.5t-160.5 -64.5q-96 0 -145 51.5t-49 138.5q0 98 61 162t160 64zM283 353q80 0 123 50t43 130q0 65 -34 101.5t-105 36.5q-79 0 -122.5 -49t-43.5 -127q0 -66 34.5 -104t104.5 -38zM318 624q90 0 90 -65q0 -50 -45 -62
q22 -14 22 -43q0 -11 -2 -21l-7 -33h-73l7 34q2 10 2 17q0 23 -28 23h-16l-15 -74h-73l45 224h93zM305 528q30 0 30 23q0 20 -27 20h-21l-9 -43h27z" />
    <glyph glyph-name="macron" unicode="&#xaf;" horiz-adv-x="405" 
d="M119 596l20 99h305l-20 -99h-305z" />
    <glyph glyph-name="degree" unicode="&#xb0;" horiz-adv-x="374" 
d="M251 416q-72 0 -118.5 43.5t-46.5 110.5q0 68 46 111t119 43t119.5 -43.5t46.5 -110.5t-46.5 -110.5t-119.5 -43.5zM252 514q25 0 40.5 15t15.5 41t-16 42t-40 16q-26 0 -41.5 -16t-15.5 -42t15.5 -41t41.5 -15z" />
    <glyph glyph-name="plusminus" unicode="&#xb1;" horiz-adv-x="593" 
d="M396 435h179l-26 -123h-178l-24 -123h-127l25 123h-177l25 123h177l24 121h126zM12 32l25 123h482l-26 -123h-481z" />
    <glyph glyph-name="uni00B2" unicode="&#xb2;" horiz-adv-x="388" 
d="M53 438l1 6l218 191q33 29 45.5 44.5t12.5 30.5q0 32 -40 32q-44 0 -53 -49h-120q12 66 57 105t120 39q156 0 156 -114q0 -59 -55 -105q-42 -35 -90 -72h117l-22 -108h-347z" />
    <glyph glyph-name="uni00B3" unicode="&#xb3;" horiz-adv-x="377" 
d="M356 633q55 -17 55 -76q0 -62 -49 -96t-130 -34q-151 0 -151 122q0 15 3 35l110 -1q-3 -9 -3 -18q0 -45 45 -45q25 0 39 12.5t14 33.5q0 33 -45 33h-17l15 75h17q55 0 55 38q0 14 -10 23t-29 9q-42 0 -50 -47h-113q14 68 59.5 104t120.5 36q69 0 106.5 -28.5t37.5 -78.5
q0 -70 -80 -97z" />
    <glyph glyph-name="acute" unicode="&#xb4;" horiz-adv-x="342" 
d="M114 570l113 157h160l-129 -157h-144z" />
    <glyph glyph-name="uni00B5" unicode="&#xb5;" horiz-adv-x="595" 
d="M427 499h154l-100 -499h-151l10 50q-55 -63 -134 -63q-30 0 -50 10q-3 -72 -17 -135l-12 -64h-153l139 701h153l-58 -288q-4 -20 -4 -39q0 -30 15 -43.5t47 -13.5q84 0 104 98z" />
    <glyph glyph-name="paragraph" unicode="&#xb6;" horiz-adv-x="739" 
d="M211 -201l93 468h-23q-210 0 -210 198q0 114 65 177.5t182 63.5h497l-26 -128h-67l-155 -779h-138l155 779h-80l-156 -779h-137z" />
    <glyph glyph-name="periodcentered" unicode="&#xb7;" horiz-adv-x="326" 
d="M173 204q-43 0 -70.5 27t-27.5 69q0 43 27.5 70t70.5 27t70.5 -27t27.5 -70q0 -42 -27.5 -69t-70.5 -27z" />
    <glyph glyph-name="cedilla" unicode="&#xb8;" horiz-adv-x="351" 
d="M137 -37q41 -5 63.5 -28.5t22.5 -60.5q0 -55 -44 -81.5t-117 -26.5q-61 0 -105 21l30 72q33 -15 73 -15q57 0 57 33q0 30 -63 30h-47l43 98h106z" />
    <glyph glyph-name="uni00B9" unicode="&#xb9;" horiz-adv-x="291" 
d="M130 438l55 278h-69l42 110h175l-78 -388h-125z" />
    <glyph glyph-name="ordmasculine" unicode="&#xba;" horiz-adv-x="419" 
d="M248 348q-84 0 -125.5 44t-41.5 118q0 90 56 148.5t146 58.5q85 0 126.5 -44t41.5 -117q0 -89 -57 -148.5t-146 -59.5zM254 452q34 0 50.5 31t16.5 75q0 57 -43 57q-33 0 -50 -31t-17 -75q0 -57 43 -57z" />
    <glyph glyph-name="guillemotright" unicode="&#xbb;" horiz-adv-x="599" 
d="M215 454l113 -170l-171 -160h-169l182 170l-108 160h153zM472 454l113 -170l-171 -160h-169l182 170l-108 160h153z" />
    <glyph glyph-name="onequarter" unicode="&#xbc;" horiz-adv-x="904" 
d="M106 318l55 278h-69l42 110h175l-78 -388h-125zM95 0l548 706h111l-549 -706h-110zM664 0l14 69h-236v2l200 317h218l-44 -218h58l-19 -101h-59l-14 -69h-118zM632 170h66l36 179z" />
    <glyph glyph-name="onehalf" unicode="&#xbd;" horiz-adv-x="883" 
d="M106 318l55 278h-69l42 110h175l-78 -388h-125zM95 0l548 706h111l-549 -706h-110zM460 0l1 6l218 191q33 29 45.5 44.5t12.5 30.5q0 32 -40 32q-44 0 -53 -49h-120q12 66 57 105t120 39q156 0 156 -114q0 -59 -55 -105q-42 -35 -90 -72h117l-22 -108h-347z" />
    <glyph glyph-name="threequarters" unicode="&#xbe;" horiz-adv-x="979" 
d="M387 437q0 -62 -49 -96t-130 -34q-151 0 -151 122q0 15 3 35l110 -1q-3 -9 -3 -18q0 -45 45 -45q25 0 39 12.5t14 33.5q0 33 -45 33h-17l15 75h17q55 0 55 38q0 14 -10 23t-29 9q-42 0 -50 -47h-113q14 68 59.5 104t120.5 36q69 0 106.5 -28.5t37.5 -78.5q0 -70 -80 -97
q55 -17 55 -76zM718 706h111l-549 -706h-110zM891 170h58l-19 -101h-59l-14 -69h-118l14 69h-236v2l200 317h218zM773 170l36 179l-102 -179h66z" />
    <glyph glyph-name="questiondown" unicode="&#xbf;" horiz-adv-x="537" 
d="M319 528q43 0 70.5 -27t27.5 -70q0 -42 -27.5 -69t-70.5 -27t-70.5 27t-27.5 69q0 43 27.5 70t70.5 27zM381 283q-119 -127 -173.5 -198.5t-54.5 -116.5q0 -59 64 -59q38 0 54.5 21.5t23.5 61.5h155q-35 -206 -245 -206q-105 0 -162.5 47t-57.5 134q0 61 45.5 128.5
t155.5 187.5h195z" />
    <glyph glyph-name="Agrave" unicode="&#xc0;" horiz-adv-x="699" 
d="M547 772h-135l-92 142h150zM475 0l-12 137h-262l-67 -137h-179l360 706h251l78 -706h-169zM264 264h187l-28 319h-2z" />
    <glyph glyph-name="Aacute" unicode="&#xc1;" horiz-adv-x="699" 
d="M644 914l-129 -142h-155l114 142h170zM315 706h251l78 -706h-169l-12 137h-262l-67 -137h-179zM264 264h187l-28 319h-2z" />
    <glyph glyph-name="Acircumflex" unicode="&#xc2;" horiz-adv-x="699" 
d="M473 844l-67 -72h-146l133 142h178l74 -142h-134zM315 706h251l78 -706h-169l-12 137h-262l-67 -137h-179zM264 264h187l-28 319h-2z" />
    <glyph glyph-name="Atilde" unicode="&#xc3;" horiz-adv-x="699" 
d="M399 817q-36 0 -49 -48h-87q35 146 138 146q42 0 82 -29q29 -20 52 -20q34 0 53 49h85q-35 -147 -132 -147q-37 0 -80 26q-42 23 -62 23zM315 706h251l78 -706h-169l-12 137h-262l-67 -137h-179zM264 264h187l-28 319h-2z" />
    <glyph glyph-name="Adieresis" unicode="&#xc4;" horiz-adv-x="699" 
d="M357 770q-34 0 -56.5 21.5t-22.5 53.5q0 33 22.5 54.5t56.5 21.5t56.5 -21.5t22.5 -54.5q0 -32 -22.5 -53.5t-56.5 -21.5zM579 770q-34 0 -56.5 21.5t-22.5 53.5q0 33 22.5 54.5t56.5 21.5q33 0 56 -21.5t23 -54.5q0 -32 -23 -53.5t-56 -21.5zM315 706h251l78 -706h-169
l-12 137h-262l-67 -137h-179zM264 264h187l-28 319h-2z" />
    <glyph glyph-name="Aring" unicode="&#xc5;" horiz-adv-x="699" 
d="M460 738q-60 0 -97.5 34.5t-37.5 89.5q0 56 37 90t98 34q62 0 99.5 -34t37.5 -90q0 -55 -38 -89.5t-99 -34.5zM460 911q-22 0 -35.5 -13.5t-13.5 -35.5q0 -21 13.5 -34t35.5 -13q23 0 36.5 13t13.5 34q0 22 -13.5 35.5t-36.5 13.5zM475 0l-12 137h-262l-67 -137h-179
l360 706h251l78 -706h-169zM264 264h187l-28 319h-2z" />
    <glyph glyph-name="AE" unicode="&#xc6;" horiz-adv-x="846" 
d="M856 571h-254l-12 -145h233l-26 -136h-218l-13 -155h203l-27 -135h-356l13 139h-187l-72 -139h-185l388 706h540zM278 265h133l30 311h-2z" />
    <glyph glyph-name="Ccedilla" unicode="&#xc7;" horiz-adv-x="721" 
d="M716 438h-170q1 8 1 16q0 61 -30 94.5t-87 33.5q-94 0 -146 -89.5t-52 -212.5q0 -72 32 -113.5t94 -41.5q111 0 144 127h182q-22 -112 -99.5 -183.5t-189.5 -84.5l-10 -21q41 -5 63.5 -28.5t22.5 -60.5q0 -55 -44 -81.5t-117 -26.5q-61 0 -105 21l30 72q33 -15 73 -15
q57 0 57 33q0 30 -63 30h-47l35 79q-120 16 -175.5 92.5t-55.5 196.5q0 191 107.5 320t280.5 129q126 0 199 -68t73 -182q0 -16 -3 -36z" />
    <glyph glyph-name="Egrave" unicode="&#xc8;" horiz-adv-x="571" 
d="M487 772h-135l-92 142h150zM27 0l141 706h439l-26 -135h-273l-30 -145h270l-27 -136h-269l-31 -155h272l-27 -135h-439z" />
    <glyph glyph-name="Eacute" unicode="&#xc9;" horiz-adv-x="571" 
d="M300 772l114 142h170l-129 -142h-155zM27 0l141 706h439l-26 -135h-273l-30 -145h270l-27 -136h-269l-31 -155h272l-27 -135h-439z" />
    <glyph glyph-name="Ecircumflex" unicode="&#xca;" horiz-adv-x="571" 
d="M200 772l133 142h178l74 -142h-134l-38 72l-67 -72h-146zM27 0l141 706h439l-26 -135h-273l-30 -145h270l-27 -136h-269l-31 -155h272l-27 -135h-439z" />
    <glyph glyph-name="Edieresis" unicode="&#xcb;" horiz-adv-x="571" 
d="M296 770q-34 0 -56.5 21.5t-22.5 53.5q0 33 22.5 54.5t56.5 21.5t56.5 -21.5t22.5 -54.5q0 -32 -22.5 -53.5t-56.5 -21.5zM518 770q-34 0 -56.5 21.5t-22.5 53.5q0 33 22.5 54.5t56.5 21.5q33 0 56 -21.5t23 -54.5q0 -32 -23 -53.5t-56 -21.5zM27 0l141 706h439l-26 -135
h-273l-30 -145h270l-27 -136h-269l-31 -155h272l-27 -135h-439z" />
    <glyph glyph-name="Igrave" unicode="&#xcc;" horiz-adv-x="320" 
d="M358 772h-135l-92 142h150zM27 0l141 706h166l-141 -706h-166z" />
    <glyph glyph-name="Iacute" unicode="&#xcd;" horiz-adv-x="320" 
d="M171 772l114 142h170l-129 -142h-155zM27 0l141 706h166l-141 -706h-166z" />
    <glyph glyph-name="Icircumflex" unicode="&#xce;" horiz-adv-x="320" 
d="M93 772l112 142h175l56 -142h-126l-26 73l-55 -73h-136zM27 0l141 706h166l-141 -706h-166z" />
    <glyph glyph-name="Idieresis" unicode="&#xcf;" horiz-adv-x="320" 
d="M191 771q-32 0 -53 21.5t-21 53.5t21.5 54t52.5 22q32 0 53.5 -22t21.5 -54t-21.5 -53.5t-53.5 -21.5zM366 771q-32 0 -52.5 21t-20.5 53q0 33 20.5 55t52.5 22t53.5 -22t21.5 -55q0 -32 -21.5 -53t-53.5 -21zM27 0l141 706h166l-141 -706h-166z" />
    <glyph glyph-name="Eth" unicode="&#xd0;" horiz-adv-x="722" 
d="M381 706q321 0 321 -288q0 -184 -106.5 -301t-285.5 -117h-283l61 305h-56l21 105h56l59 296h213zM289 135q117 0 178 74t61 194q0 81 -35 124.5t-118 43.5h-67l-32 -161h143l-21 -105h-143l-34 -170h68z" />
    <glyph glyph-name="Ntilde" unicode="&#xd1;" horiz-adv-x="753" 
d="M558 768q-37 0 -80 26q-42 23 -62 23q-36 0 -49 -48h-87q35 146 138 146q42 0 82 -29q29 -20 52 -20q34 0 53 49h85q-35 -147 -132 -147zM27 0l141 706h165l181 -462l92 462h162l-141 -706h-166l-181 462l-92 -462h-161z" />
    <glyph glyph-name="Ograve" unicode="&#xd2;" horiz-adv-x="752" 
d="M573 772h-135l-92 142h150zM357 -18q-155 0 -226.5 77.5t-71.5 212.5q0 123 43.5 225t131 164.5t202.5 62.5q153 0 225.5 -78.5t72.5 -211.5q0 -191 -102 -321.5t-275 -130.5zM360 124q64 0 111.5 47t69 114.5t21.5 141.5q0 155 -129 155q-50 0 -89.5 -27t-63.5 -71
t-36.5 -96.5t-12.5 -107.5q0 -71 31.5 -113.5t97.5 -42.5z" />
    <glyph glyph-name="Oacute" unicode="&#xd3;" horiz-adv-x="752" 
d="M386 772l114 142h170l-129 -142h-155zM357 -18q-155 0 -226.5 77.5t-71.5 212.5q0 123 43.5 225t131 164.5t202.5 62.5q153 0 225.5 -78.5t72.5 -211.5q0 -191 -102 -321.5t-275 -130.5zM360 124q64 0 111.5 47t69 114.5t21.5 141.5q0 155 -129 155q-50 0 -89.5 -27
t-63.5 -71t-36.5 -96.5t-12.5 -107.5q0 -71 31.5 -113.5t97.5 -42.5z" />
    <glyph glyph-name="Ocircumflex" unicode="&#xd4;" horiz-adv-x="752" 
d="M286 772l133 142h178l74 -142h-134l-38 72l-67 -72h-146zM357 -18q-155 0 -226.5 77.5t-71.5 212.5q0 123 43.5 225t131 164.5t202.5 62.5q153 0 225.5 -78.5t72.5 -211.5q0 -191 -102 -321.5t-275 -130.5zM360 124q64 0 111.5 47t69 114.5t21.5 141.5q0 155 -129 155
q-50 0 -89.5 -27t-63.5 -71t-36.5 -96.5t-12.5 -107.5q0 -71 31.5 -113.5t97.5 -42.5z" />
    <glyph glyph-name="Otilde" unicode="&#xd5;" horiz-adv-x="752" 
d="M567 768q-37 0 -80 26q-42 23 -62 23q-36 0 -49 -48h-87q35 146 138 146q42 0 82 -29q29 -20 52 -20q34 0 53 49h85q-35 -147 -132 -147zM357 -18q-155 0 -226.5 77.5t-71.5 212.5q0 123 43.5 225t131 164.5t202.5 62.5q153 0 225.5 -78.5t72.5 -211.5
q0 -191 -102 -321.5t-275 -130.5zM360 124q64 0 111.5 47t69 114.5t21.5 141.5q0 155 -129 155q-50 0 -89.5 -27t-63.5 -71t-36.5 -96.5t-12.5 -107.5q0 -71 31.5 -113.5t97.5 -42.5z" />
    <glyph glyph-name="Odieresis" unicode="&#xd6;" horiz-adv-x="752" 
d="M383 770q-34 0 -56.5 21.5t-22.5 53.5q0 33 22.5 54.5t56.5 21.5t56.5 -21.5t22.5 -54.5q0 -32 -22.5 -53.5t-56.5 -21.5zM605 770q-34 0 -56.5 21.5t-22.5 53.5q0 33 22.5 54.5t56.5 21.5q33 0 56 -21.5t23 -54.5q0 -32 -23 -53.5t-56 -21.5zM357 -18
q-155 0 -226.5 77.5t-71.5 212.5q0 123 43.5 225t131 164.5t202.5 62.5q153 0 225.5 -78.5t72.5 -211.5q0 -191 -102 -321.5t-275 -130.5zM360 124q64 0 111.5 47t69 114.5t21.5 141.5q0 155 -129 155q-50 0 -89.5 -27t-63.5 -71t-36.5 -96.5t-12.5 -107.5
q0 -71 31.5 -113.5t97.5 -42.5z" />
    <glyph glyph-name="multiply" unicode="&#xd7;" horiz-adv-x="593" 
d="M564 431l-172 -144l108 -136l-94 -79l-109 136l-173 -145l-78 95l175 146l-109 136l95 79l108 -136l172 143z" />
    <glyph glyph-name="Oslash" unicode="&#xd8;" horiz-adv-x="752" 
d="M850 706l-144 -127q28 -62 28 -145q0 -191 -102 -321.5t-275 -130.5q-155 0 -232 83l-71 -65h-113l144 128q-26 59 -26 144q0 123 43.5 225t131 164.5t202.5 62.5q155 0 230 -83l72 65h112zM433 582q-50 0 -89.5 -27t-63.5 -71t-36.5 -96.5t-12.5 -107.5q0 -19 1 -28
l307 279q-32 51 -106 51zM360 124q64 0 111.5 47t69 114.5t21.5 141.5q0 20 -1 29l-306 -279q32 -53 105 -53z" />
    <glyph glyph-name="Ugrave" unicode="&#xd9;" horiz-adv-x="690" 
d="M539 772h-135l-92 142h150zM316 -18q-258 0 -258 208q0 44 11 96l84 420h166l-88 -442q-5 -24 -5 -53q0 -43 22.5 -64.5t73.5 -21.5q64 0 96 31.5t45 97.5l90 452h166l-97 -489q-47 -235 -306 -235z" />
    <glyph glyph-name="Uacute" unicode="&#xda;" horiz-adv-x="690" 
d="M352 772l114 142h170l-129 -142h-155zM316 -18q-258 0 -258 208q0 44 11 96l84 420h166l-88 -442q-5 -24 -5 -53q0 -43 22.5 -64.5t73.5 -21.5q64 0 96 31.5t45 97.5l90 452h166l-97 -489q-47 -235 -306 -235z" />
    <glyph glyph-name="Ucircumflex" unicode="&#xdb;" horiz-adv-x="690" 
d="M252 772l133 142h178l74 -142h-134l-38 72l-67 -72h-146zM316 -18q-258 0 -258 208q0 44 11 96l84 420h166l-88 -442q-5 -24 -5 -53q0 -43 22.5 -64.5t73.5 -21.5q64 0 96 31.5t45 97.5l90 452h166l-97 -489q-47 -235 -306 -235z" />
    <glyph glyph-name="Udieresis" unicode="&#xdc;" horiz-adv-x="690" 
d="M348 770q-34 0 -56.5 21.5t-22.5 53.5q0 33 22.5 54.5t56.5 21.5t56.5 -21.5t22.5 -54.5q0 -32 -22.5 -53.5t-56.5 -21.5zM570 770q-34 0 -56.5 21.5t-22.5 53.5q0 33 22.5 54.5t56.5 21.5q33 0 56 -21.5t23 -54.5q0 -32 -23 -53.5t-56 -21.5zM316 -18q-258 0 -258 208
q0 44 11 96l84 420h166l-88 -442q-5 -24 -5 -53q0 -43 22.5 -64.5t73.5 -21.5q64 0 96 31.5t45 97.5l90 452h166l-97 -489q-47 -235 -306 -235z" />
    <glyph glyph-name="Yacute" unicode="&#xdd;" horiz-adv-x="612" 
d="M298 772l114 142h170l-129 -142h-155zM173 0l61 303l-138 403h165l83 -241l162 241h192l-298 -403l-61 -303h-166z" />
    <glyph glyph-name="Thorn" unicode="&#xde;" horiz-adv-x="613" 
d="M27 0l141 706h166l-20 -102h50q249 0 249 -212q0 -125 -74.5 -200.5t-202.5 -75.5h-120l-23 -116h-166zM243 246h69q64 0 97 33.5t33 93.5q0 53 -27.5 77t-87.5 24h-39z" />
    <glyph glyph-name="germandbls" unicode="&#xdf;" horiz-adv-x="613" 
d="M486 393q84 -41 84 -155q0 -113 -81 -176t-218 -63q-28 0 -58 2l25 122h31q68 0 103 31t35 87q0 91 -111 91h-12l22 116h29q52 0 80 23.5t28 67.5q0 71 -70 71q-48 0 -70.5 -31t-33.5 -87l-99 -492h-156l102 509q43 215 268 215q111 0 164 -47.5t53 -127.5
q0 -58 -30 -98.5t-85 -57.5z" />
    <glyph glyph-name="agrave" unicode="&#xe0;" horiz-adv-x="583" 
d="M442 570h-130l-80 157h146zM318 513q115 0 166 -44.5t51 -132.5q0 -28 -11 -86l-50 -250h-159l10 50q-60 -63 -158 -63q-76 0 -114 37.5t-38 102.5q0 178 268 178h93q4 21 4 38q0 31 -14.5 45.5t-50.5 14.5q-70 0 -81 -64h-162q15 84 78.5 129t167.5 45zM248 103
q48 0 73 25.5t37 84.5h-71q-49 0 -75 -13t-26 -48q0 -49 62 -49z" />
    <glyph glyph-name="aacute" unicode="&#xe1;" horiz-adv-x="583" 
d="M536 727l-129 -157h-144l113 157h160zM318 513q115 0 166 -44.5t51 -132.5q0 -28 -11 -86l-50 -250h-159l10 50q-60 -63 -158 -63q-76 0 -114 37.5t-38 102.5q0 178 268 178h93q4 21 4 38q0 31 -14.5 45.5t-50.5 14.5q-70 0 -81 -64h-162q15 84 78.5 129t167.5 45z
M248 103q48 0 73 25.5t37 84.5h-71q-49 0 -75 -13t-26 -48q0 -49 62 -49z" />
    <glyph glyph-name="acircumflex" unicode="&#xe2;" horiz-adv-x="583" 
d="M370 658l-69 -88h-139l132 158h178l67 -158h-133zM318 513q115 0 166 -44.5t51 -132.5q0 -28 -11 -86l-50 -250h-159l10 50q-60 -63 -158 -63q-76 0 -114 37.5t-38 102.5q0 178 268 178h93q4 21 4 38q0 31 -14.5 45.5t-50.5 14.5q-70 0 -81 -64h-162q15 84 78.5 129
t167.5 45zM248 103q48 0 73 25.5t37 84.5h-71q-49 0 -75 -13t-26 -48q0 -49 62 -49z" />
    <glyph glyph-name="atilde" unicode="&#xe3;" horiz-adv-x="583" 
d="M304 624q-30 0 -42 -53h-93q33 159 133 159q38 0 76 -29q37 -26 54 -26t27 12.5t17 40.5h93q-33 -159 -134 -159q-43 0 -77 27q-40 28 -54 28zM318 513q115 0 166 -44.5t51 -132.5q0 -28 -11 -86l-50 -250h-159l10 50q-60 -63 -158 -63q-76 0 -114 37.5t-38 102.5
q0 178 268 178h93q4 21 4 38q0 31 -14.5 45.5t-50.5 14.5q-70 0 -81 -64h-162q15 84 78.5 129t167.5 45zM248 103q48 0 73 25.5t37 84.5h-71q-49 0 -75 -13t-26 -48q0 -49 62 -49z" />
    <glyph glyph-name="adieresis" unicode="&#xe4;" horiz-adv-x="583" 
d="M263 569q-35 0 -58 22t-23 55q0 34 23 56.5t58 22.5t58.5 -22.5t23.5 -56.5q0 -33 -23.5 -55t-58.5 -22zM472 569q-35 0 -58 22t-23 55q0 34 23 56.5t58 22.5t58.5 -22.5t23.5 -56.5q0 -33 -23.5 -55t-58.5 -22zM318 513q115 0 166 -44.5t51 -132.5q0 -28 -11 -86
l-50 -250h-159l10 50q-60 -63 -158 -63q-76 0 -114 37.5t-38 102.5q0 178 268 178h93q4 21 4 38q0 31 -14.5 45.5t-50.5 14.5q-70 0 -81 -64h-162q15 84 78.5 129t167.5 45zM248 103q48 0 73 25.5t37 84.5h-71q-49 0 -75 -13t-26 -48q0 -49 62 -49z" />
    <glyph glyph-name="aring" unicode="&#xe5;" horiz-adv-x="583" 
d="M363 549q-61 0 -98 34.5t-37 89.5q0 56 37 90t98 34q62 0 99.5 -34t37.5 -90q0 -55 -38 -89.5t-99 -34.5zM363 722q-22 0 -35.5 -13.5t-13.5 -35.5q0 -21 13.5 -34t35.5 -13q23 0 36.5 13t13.5 34q0 22 -13.5 35.5t-36.5 13.5zM318 513q115 0 166 -44.5t51 -132.5
q0 -28 -11 -86l-50 -250h-159l10 50q-60 -63 -158 -63q-76 0 -114 37.5t-38 102.5q0 178 268 178h93q4 21 4 38q0 31 -14.5 45.5t-50.5 14.5q-70 0 -81 -64h-162q15 84 78.5 129t167.5 45zM248 103q48 0 73 25.5t37 84.5h-71q-49 0 -75 -13t-26 -48q0 -49 62 -49z" />
    <glyph glyph-name="ae" unicode="&#xe6;" horiz-adv-x="882" 
d="M839 213h-324v-1q0 -53 17 -79.5t56 -26.5q54 0 73 48h165q-24 -80 -91 -123.5t-158 -43.5q-130 0 -181 90q-75 -90 -209 -90q-172 0 -172 144q0 174 268 174h93q4 21 4 38q0 31 -14.5 45.5t-49.5 14.5q-71 0 -82 -64h-162q16 85 79.5 129.5t169.5 44.5q109 0 160 -48
q67 48 155 48q96 0 153.5 -57t57.5 -162q0 -38 -8 -81zM624 399q-69 0 -96 -94h165v1q0 93 -69 93zM251 103q46 0 71 27t36 84h-71q-49 0 -75 -12.5t-26 -46.5q0 -52 65 -52z" />
    <glyph glyph-name="ccedilla" unicode="&#xe7;" horiz-adv-x="572" 
d="M543 309h-168v4q0 69 -62 69q-53 0 -83 -51t-30 -119q0 -93 72 -93q31 0 52.5 21t26.5 52h175q-20 -85 -75.5 -136.5t-138.5 -64.5l-13 -28q41 -5 63.5 -28.5t22.5 -60.5q0 -55 -44 -81.5t-117 -26.5q-61 0 -105 21l30 72q33 -15 73 -15q57 0 57 33q0 30 -63 30h-47
l37 84q-87 14 -129.5 72t-42.5 146q0 130 81 217t208 87q102 0 161.5 -49t59.5 -139q0 -10 -1 -16z" />
    <glyph glyph-name="egrave" unicode="&#xe8;" horiz-adv-x="581" 
d="M436 570h-130l-80 157h146zM538 211h-344v-4q0 -101 84 -101q59 0 83 48h164q-25 -79 -94.5 -123t-163.5 -44q-116 0 -174.5 59.5t-58.5 161.5q0 131 79.5 218t209.5 87q102 0 162.5 -56.5t60.5 -161.5q0 -39 -8 -84zM314 399q-76 0 -106 -95h184v2q0 93 -78 93z" />
    <glyph glyph-name="eacute" unicode="&#xe9;" horiz-adv-x="581" 
d="M530 727l-129 -157h-144l113 157h160zM538 211h-344v-4q0 -101 84 -101q59 0 83 48h164q-25 -79 -94.5 -123t-163.5 -44q-116 0 -174.5 59.5t-58.5 161.5q0 131 79.5 218t209.5 87q102 0 162.5 -56.5t60.5 -161.5q0 -39 -8 -84zM314 399q-76 0 -106 -95h184v2
q0 93 -78 93z" />
    <glyph glyph-name="ecircumflex" unicode="&#xea;" horiz-adv-x="581" 
d="M364 658l-69 -88h-139l132 158h178l67 -158h-133zM538 211h-344v-4q0 -101 84 -101q59 0 83 48h164q-25 -79 -94.5 -123t-163.5 -44q-116 0 -174.5 59.5t-58.5 161.5q0 131 79.5 218t209.5 87q102 0 162.5 -56.5t60.5 -161.5q0 -39 -8 -84zM314 399q-76 0 -106 -95h184v2
q0 93 -78 93z" />
    <glyph glyph-name="edieresis" unicode="&#xeb;" horiz-adv-x="581" 
d="M257 569q-35 0 -58 22t-23 55q0 34 23 56.5t58 22.5t58.5 -22.5t23.5 -56.5q0 -33 -23.5 -55t-58.5 -22zM466 569q-35 0 -58 22t-23 55q0 34 23 56.5t58 22.5t58.5 -22.5t23.5 -56.5q0 -33 -23.5 -55t-58.5 -22zM323 513q102 0 162.5 -56.5t60.5 -161.5q0 -39 -8 -84
h-344v-4q0 -101 84 -101q59 0 83 48h164q-25 -79 -94.5 -123t-163.5 -44q-116 0 -174.5 59.5t-58.5 161.5q0 131 79.5 218t209.5 87zM314 399q-76 0 -106 -95h184v2q0 93 -78 93z" />
    <glyph glyph-name="igrave" unicode="&#xec;" horiz-adv-x="284" 
d="M291 570h-122l-71 157h143zM14 0l99 499h157l-100 -499h-156z" />
    <glyph glyph-name="iacute" unicode="&#xed;" horiz-adv-x="284" 
d="M120 570l93 157h163l-114 -157h-142zM14 0l99 499h157l-100 -499h-156z" />
    <glyph glyph-name="icircumflex" unicode="&#xee;" horiz-adv-x="284" 
d="M56 570l107 158h150l42 -158h-109l-20 85l-55 -85h-115zM14 0l99 499h157l-100 -499h-156z" />
    <glyph glyph-name="idieresis" unicode="&#xef;" horiz-adv-x="284" 
d="M140 574q-29 0 -46.5 18.5t-17.5 50.5q0 36 20 57.5t52 21.5q29 0 46.5 -19t17.5 -51q0 -35 -19.5 -56.5t-52.5 -21.5zM294 574q-29 0 -46.5 18.5t-17.5 50.5q0 36 20 57.5t52 21.5q30 0 47 -19t17 -51q0 -35 -19.5 -56.5t-52.5 -21.5zM14 0l99 499h157l-100 -499h-156z
" />
    <glyph glyph-name="eth" unicode="&#xf0;" horiz-adv-x="595" 
d="M598 707l-19 -96l-81 -24q64 -138 64 -273q0 -154 -75.5 -240.5t-220.5 -86.5q-235 0 -235 212q0 109 70.5 188.5t177.5 79.5q80 0 125 -44q-15 59 -47 122l-222 -67l19 96l160 48q-34 54 -53 82v2h174q20 -35 23 -41zM273 115q56 0 87 43t31 103q0 90 -77 90
q-55 0 -86 -42t-31 -103q0 -91 76 -91z" />
    <glyph glyph-name="ntilde" unicode="&#xf1;" horiz-adv-x="592" 
d="M325 624q-30 0 -42 -53h-93q33 159 133 159q38 0 76 -29q37 -26 54 -26t27 12.5t17 40.5h93q-33 -159 -134 -159q-43 0 -77 27q-40 28 -54 28zM403 513q71 0 108 -39t37 -112q0 -34 -6 -65l-60 -297h-157l54 272q5 25 5 44q0 66 -63 66q-73 0 -91 -84l-60 -298h-156
l99 499h157l-10 -51q56 65 143 65z" />
    <glyph glyph-name="ograve" unicode="&#xf2;" horiz-adv-x="588" 
d="M448 570h-130l-80 157h146zM258 -13q-111 0 -167 62t-56 160q0 135 79.5 219.5t215.5 84.5q113 0 168.5 -61.5t55.5 -156.5q0 -137 -79.5 -222.5t-216.5 -85.5zM275 119q57 0 86.5 50t29.5 121q0 92 -78 92q-55 0 -85 -50t-30 -118q0 -95 77 -95z" />
    <glyph glyph-name="oacute" unicode="&#xf3;" horiz-adv-x="588" 
d="M268 570l113 157h160l-129 -157h-144zM258 -13q-111 0 -167 62t-56 160q0 135 79.5 219.5t215.5 84.5q113 0 168.5 -61.5t55.5 -156.5q0 -137 -79.5 -222.5t-216.5 -85.5zM275 119q57 0 86.5 50t29.5 121q0 92 -78 92q-55 0 -85 -50t-30 -118q0 -95 77 -95z" />
    <glyph glyph-name="ocircumflex" unicode="&#xf4;" horiz-adv-x="588" 
d="M168 570l132 158h178l67 -158h-133l-36 88l-69 -88h-139zM258 -13q-111 0 -167 62t-56 160q0 135 79.5 219.5t215.5 84.5q113 0 168.5 -61.5t55.5 -156.5q0 -137 -79.5 -222.5t-216.5 -85.5zM275 119q57 0 86.5 50t29.5 121q0 92 -78 92q-55 0 -85 -50t-30 -118
q0 -95 77 -95z" />
    <glyph glyph-name="otilde" unicode="&#xf5;" horiz-adv-x="588" 
d="M440 569q-43 0 -77 27q-40 28 -54 28q-30 0 -42 -53h-93q33 159 133 159q38 0 76 -29q37 -26 54 -26t27 12.5t17 40.5h93q-33 -159 -134 -159zM258 -13q-111 0 -167 62t-56 160q0 135 79.5 219.5t215.5 84.5q113 0 168.5 -61.5t55.5 -156.5q0 -137 -79.5 -222.5
t-216.5 -85.5zM275 119q57 0 86.5 50t29.5 121q0 92 -78 92q-55 0 -85 -50t-30 -118q0 -95 77 -95z" />
    <glyph glyph-name="odieresis" unicode="&#xf6;" horiz-adv-x="588" 
d="M269 569q-35 0 -58 22t-23 55q0 34 23 56.5t58 22.5t58.5 -22.5t23.5 -56.5q0 -33 -23.5 -55t-58.5 -22zM478 569q-35 0 -58 22t-23 55q0 34 23 56.5t58 22.5t58.5 -22.5t23.5 -56.5q0 -33 -23.5 -55t-58.5 -22zM258 -13q-111 0 -167 62t-56 160q0 135 79.5 219.5
t215.5 84.5q113 0 168.5 -61.5t55.5 -156.5q0 -137 -79.5 -222.5t-216.5 -85.5zM275 119q57 0 86.5 50t29.5 121q0 92 -78 92q-55 0 -85 -50t-30 -118q0 -95 77 -95z" />
    <glyph glyph-name="divide" unicode="&#xf7;" horiz-adv-x="593" 
d="M345 412q-34 0 -54.5 20.5t-20.5 53.5q0 32 20.5 52t54.5 20q31 0 51.5 -20t20.5 -52q0 -33 -20.5 -53.5t-51.5 -20.5zM52 233l25 122h481l-24 -122h-482zM268 30q-34 0 -54 20t-20 53t20 52.5t54 19.5q32 0 52 -19.5t20 -52.5q0 -32 -20 -52.5t-52 -20.5z" />
    <glyph glyph-name="oslash" unicode="&#xf8;" horiz-adv-x="588" 
d="M610 499l-88 -79q32 -52 32 -125q0 -137 -79.5 -222.5t-216.5 -85.5q-93 0 -150 46l-36 -33h-96l91 82q-32 52 -32 127q0 135 79.5 219.5t215.5 84.5q94 0 150 -45l34 31h96zM313 382q-55 0 -85 -50t-30 -118v-14l171 162q-18 20 -56 20zM275 119q57 0 86.5 50t29.5 121
v13l-172 -163q18 -21 56 -21z" />
    <glyph glyph-name="ugrave" unicode="&#xf9;" horiz-adv-x="592" 
d="M440 570h-130l-80 157h146zM422 499h156l-99 -499h-157l10 51q-56 -65 -143 -65q-71 0 -108 39t-37 112q0 33 6 65l60 297h157l-54 -272q-5 -25 -5 -44q0 -66 63 -66q73 0 91 84z" />
    <glyph glyph-name="uacute" unicode="&#xfa;" horiz-adv-x="592" 
d="M533 727l-129 -157h-144l113 157h160zM422 499h156l-99 -499h-157l10 51q-56 -65 -143 -65q-71 0 -108 39t-37 112q0 33 6 65l60 297h157l-54 -272q-5 -25 -5 -44q0 -66 63 -66q73 0 91 84z" />
    <glyph glyph-name="ucircumflex" unicode="&#xfb;" horiz-adv-x="592" 
d="M368 658l-69 -88h-139l132 158h178l67 -158h-133zM422 499h156l-99 -499h-157l10 51q-56 -65 -143 -65q-71 0 -108 39t-37 112q0 33 6 65l60 297h157l-54 -272q-5 -25 -5 -44q0 -66 63 -66q73 0 91 84z" />
    <glyph glyph-name="udieresis" unicode="&#xfc;" horiz-adv-x="592" 
d="M261 569q-35 0 -58 22t-23 55q0 34 23 56.5t58 22.5t58.5 -22.5t23.5 -56.5q0 -33 -23.5 -55t-58.5 -22zM470 569q-35 0 -58 22t-23 55q0 34 23 56.5t58 22.5t58.5 -22.5t23.5 -56.5q0 -33 -23.5 -55t-58.5 -22zM422 499h156l-99 -499h-157l10 51q-56 -65 -143 -65
q-71 0 -108 39t-37 112q0 33 6 65l60 297h157l-54 -272q-5 -25 -5 -44q0 -66 63 -66q73 0 91 84z" />
    <glyph glyph-name="yacute" unicode="&#xfd;" horiz-adv-x="559" 
d="M512 727l-129 -157h-144l113 157h160zM421 499h176l-410 -699h-168l118 202l-76 497h158l38 -319z" />
    <glyph glyph-name="thorn" unicode="&#xfe;" horiz-adv-x="607" 
d="M401 513q88 0 130 -60t42 -160q0 -125 -70 -215.5t-182 -90.5q-103 0 -138 77l-53 -264h-156l181 906h156l-49 -248q56 55 139 55zM289 119q58 0 88.5 46.5t30.5 114.5q0 102 -78 102q-82 0 -105 -100q-13 -65 -13 -81q0 -82 77 -82z" />
    <glyph glyph-name="ydieresis" unicode="&#xff;" horiz-adv-x="559" 
d="M240 569q-35 0 -58 22t-23 55q0 34 23 56.5t58 22.5t58.5 -22.5t23.5 -56.5q0 -33 -23.5 -55t-58.5 -22zM449 569q-35 0 -58 22t-23 55q0 34 23 56.5t58 22.5t58.5 -22.5t23.5 -56.5q0 -33 -23.5 -55t-58.5 -22zM421 499h176l-410 -699h-168l118 202l-76 497h158l38 -319
z" />
    <glyph glyph-name="Amacron" unicode="&#x100;" horiz-adv-x="699" 
d="M635 894l-20 -100h-314l20 100h314zM475 0l-12 137h-262l-67 -137h-179l360 706h251l78 -706h-169zM264 264h187l-28 319h-2z" />
    <glyph glyph-name="amacron" unicode="&#x101;" horiz-adv-x="583" 
d="M530 695l-20 -99h-305l20 99h305zM318 513q115 0 166 -44.5t51 -132.5q0 -28 -11 -86l-50 -250h-159l10 50q-60 -63 -158 -63q-76 0 -114 37.5t-38 102.5q0 178 268 178h93q4 21 4 38q0 31 -14.5 45.5t-50.5 14.5q-70 0 -81 -64h-162q15 84 78.5 129t167.5 45zM248 103
q48 0 73 25.5t37 84.5h-71q-49 0 -75 -13t-26 -48q0 -49 62 -49z" />
    <glyph glyph-name="Abreve" unicode="&#x102;" horiz-adv-x="699" 
d="M454 765q-150 0 -150 120q0 9 2 29h100v-12q0 -51 57 -51q32 0 52 14.5t34 48.5h110q-38 -149 -205 -149zM315 706h251l78 -706h-169l-12 137h-262l-67 -137h-179zM264 264h187l-28 319h-2z" />
    <glyph glyph-name="abreve" unicode="&#x103;" horiz-adv-x="583" 
d="M362 562q-160 0 -160 143q0 15 1 23h108q-1 -7 -1 -21q0 -57 56 -57q33 0 53.5 18t33.5 60h113q-38 -166 -204 -166zM318 513q115 0 166 -44.5t51 -132.5q0 -28 -11 -86l-50 -250h-159l10 50q-60 -63 -158 -63q-76 0 -114 37.5t-38 102.5q0 178 268 178h93q4 21 4 38
q0 31 -14.5 45.5t-50.5 14.5q-70 0 -81 -64h-162q15 84 78.5 129t167.5 45zM248 103q48 0 73 25.5t37 84.5h-71q-49 0 -75 -13t-26 -48q0 -49 62 -49z" />
    <glyph glyph-name="Aogonek" unicode="&#x104;" horiz-adv-x="699" 
d="M552 -93q0 -29 35 -29q21 0 35 5l-17 -88q-35 -9 -71 -9q-52 0 -82 22.5t-30 64.5q0 77 110 127h-57l-12 137h-262l-67 -137h-179l360 706h251l78 -706q-27 -17 -42.5 -27.5t-32.5 -29.5t-17 -36zM264 264h187l-28 319h-2z" />
    <glyph glyph-name="aogonek" unicode="&#x105;" horiz-adv-x="583" 
d="M318 513q115 0 166 -44.5t51 -132.5q0 -28 -11 -86l-50 -250h-1q-27 -17 -42.5 -27.5t-32.5 -29.5t-17 -36q0 -29 35 -29q21 0 35 5l-17 -88q-35 -9 -71 -9q-52 0 -82 22.5t-30 64.5q0 77 110 127h-46l10 50q-60 -63 -158 -63q-76 0 -114 37.5t-38 102.5q0 178 268 178
h93q4 21 4 38q0 31 -14.5 45.5t-50.5 14.5q-70 0 -81 -64h-162q15 84 78.5 129t167.5 45zM248 103q48 0 73 25.5t37 84.5h-71q-49 0 -75 -13t-26 -48q0 -49 62 -49z" />
    <glyph glyph-name="Cacute" unicode="&#x106;" horiz-adv-x="721" 
d="M386 772l114 142h170l-129 -142h-155zM351 -18q-152 0 -222 79t-70 214q0 191 107.5 320t280.5 129q126 0 199 -68t73 -182q0 -16 -3 -36h-170q1 8 1 16q0 61 -30 94.5t-87 33.5q-94 0 -146 -89.5t-52 -212.5q0 -72 32 -113.5t94 -41.5q111 0 144 127h182
q-24 -123 -114.5 -196.5t-218.5 -73.5z" />
    <glyph glyph-name="cacute" unicode="&#x107;" horiz-adv-x="572" 
d="M260 570l113 157h160l-129 -157h-144zM257 -13q-113 0 -168 60.5t-55 161.5q0 130 81 217t208 87q102 0 161.5 -49t59.5 -139q0 -10 -1 -16h-168v4q0 69 -62 69q-53 0 -83 -51t-30 -119q0 -93 72 -93q31 0 52.5 21t26.5 52h175q-23 -99 -94 -152t-175 -53z" />
    <glyph glyph-name="Ccircumflex" unicode="&#x108;" horiz-adv-x="721" 
d="M287 772l133 142h178l74 -142h-134l-38 72l-67 -72h-146zM351 -18q-152 0 -222 79t-70 214q0 191 107.5 320t280.5 129q126 0 199 -68t73 -182q0 -16 -3 -36h-170q1 8 1 16q0 61 -30 94.5t-87 33.5q-94 0 -146 -89.5t-52 -212.5q0 -72 32 -113.5t94 -41.5q111 0 144 127
h182q-24 -123 -114.5 -196.5t-218.5 -73.5z" />
    <glyph glyph-name="ccircumflex" unicode="&#x109;" horiz-adv-x="572" 
d="M160 570l132 158h178l67 -158h-133l-36 88l-69 -88h-139zM257 -13q-113 0 -168 60.5t-55 161.5q0 130 81 217t208 87q102 0 161.5 -49t59.5 -139q0 -10 -1 -16h-168v4q0 69 -62 69q-53 0 -83 -51t-30 -119q0 -93 72 -93q31 0 52.5 21t26.5 52h175q-23 -99 -94 -152
t-175 -53z" />
    <glyph glyph-name="Cdotaccent" unicode="&#x10a;" horiz-adv-x="721" 
d="M497 772q-38 0 -61.5 22.5t-23.5 58.5q0 35 24 57t61 22q36 0 59.5 -22.5t23.5 -56.5q0 -36 -23.5 -58.5t-59.5 -22.5zM351 -18q-152 0 -222 79t-70 214q0 191 107.5 320t280.5 129q126 0 199 -68t73 -182q0 -16 -3 -36h-170q1 8 1 16q0 61 -30 94.5t-87 33.5
q-94 0 -146 -89.5t-52 -212.5q0 -72 32 -113.5t94 -41.5q111 0 144 127h182q-24 -123 -114.5 -196.5t-218.5 -73.5z" />
    <glyph glyph-name="cdotaccent" unicode="&#x10b;" horiz-adv-x="572" 
d="M367 570q-37 0 -61.5 23.5t-24.5 58.5t24.5 59t61.5 24q36 0 60.5 -24t24.5 -59t-24.5 -58.5t-60.5 -23.5zM257 -13q-113 0 -168 60.5t-55 161.5q0 130 81 217t208 87q102 0 161.5 -49t59.5 -139q0 -10 -1 -16h-168v4q0 69 -62 69q-53 0 -83 -51t-30 -119q0 -93 72 -93
q31 0 52.5 21t26.5 52h175q-23 -99 -94 -152t-175 -53z" />
    <glyph glyph-name="Ccaron" unicode="&#x10c;" horiz-adv-x="721" 
d="M701 914l-133 -142h-178l-74 142h134l38 -72l67 72h146zM351 -18q-152 0 -222 79t-70 214q0 191 107.5 320t280.5 129q126 0 199 -68t73 -182q0 -16 -3 -36h-170q1 8 1 16q0 61 -30 94.5t-87 33.5q-94 0 -146 -89.5t-52 -212.5q0 -72 32 -113.5t94 -41.5q111 0 144 127
h182q-24 -123 -114.5 -196.5t-218.5 -73.5z" />
    <glyph glyph-name="ccaron" unicode="&#x10d;" horiz-adv-x="572" 
d="M573 728l-132 -158h-178l-67 158h133l36 -88l69 88h139zM257 -13q-113 0 -168 60.5t-55 161.5q0 130 81 217t208 87q102 0 161.5 -49t59.5 -139q0 -10 -1 -16h-168v4q0 69 -62 69q-53 0 -83 -51t-30 -119q0 -93 72 -93q31 0 52.5 21t26.5 52h175q-23 -99 -94 -152
t-175 -53z" />
    <glyph glyph-name="Dcaron" unicode="&#x10e;" horiz-adv-x="722" 
d="M679 914l-133 -142h-178l-74 142h134l38 -72l67 72h146zM27 0l141 706h213q321 0 321 -288q0 -184 -106.5 -301t-285.5 -117h-283zM221 135h68q117 0 178 74t61 194q0 81 -35 124.5t-118 43.5h-67z" />
    <glyph glyph-name="dcaron" unicode="&#x10f;" horiz-adv-x="725" 
d="M424 436l54 270h157l-141 -706h-153l9 46q-59 -60 -144 -60q-89 0 -130.5 59.5t-41.5 160.5q0 125 70 215.5t182 90.5q103 0 138 -76zM705 706h132l-74 -172h-115zM277 118q85 0 105 100q13 65 13 80q0 83 -77 83q-58 0 -88 -46.5t-30 -115.5q0 -101 77 -101z" />
    <glyph glyph-name="Dcroat" unicode="&#x110;" horiz-adv-x="722" 
d="M381 706q321 0 321 -288q0 -184 -106.5 -301t-285.5 -117h-283l61 305h-56l21 105h56l59 296h213zM289 135q117 0 178 74t61 194q0 81 -35 124.5t-118 43.5h-67l-32 -161h143l-21 -105h-143l-34 -170h68z" />
    <glyph glyph-name="dcroat" unicode="&#x111;" horiz-adv-x="607" 
d="M671 651l-19 -90h-46l-112 -561h-153l9 46q-59 -60 -144 -60q-89 0 -130.5 59.5t-41.5 160.5q0 125 70 215.5t182 90.5q103 0 138 -76l25 125h-163l19 90h162l11 55h157l-11 -55h47zM277 118q85 0 105 100q13 65 13 80q0 83 -77 83q-58 0 -88 -46.5t-30 -115.5
q0 -101 77 -101z" />
    <glyph glyph-name="Emacron" unicode="&#x112;" horiz-adv-x="571" 
d="M240 794l20 100h314l-20 -100h-314zM27 0l141 706h439l-26 -135h-273l-30 -145h270l-27 -136h-269l-31 -155h272l-27 -135h-439z" />
    <glyph glyph-name="emacron" unicode="&#x113;" horiz-adv-x="581" 
d="M524 695l-20 -99h-305l20 99h305zM538 211h-344v-4q0 -101 84 -101q59 0 83 48h164q-25 -79 -94.5 -123t-163.5 -44q-116 0 -174.5 59.5t-58.5 161.5q0 131 79.5 218t209.5 87q102 0 162.5 -56.5t60.5 -161.5q0 -39 -8 -84zM314 399q-76 0 -106 -95h184v2q0 93 -78 93z
" />
    <glyph glyph-name="Ebreve" unicode="&#x114;" horiz-adv-x="571" 
d="M393 765q-150 0 -150 120q0 9 2 29h100v-12q0 -51 57 -51q32 0 52 14.5t34 48.5h110q-38 -149 -205 -149zM27 0l141 706h439l-26 -135h-273l-30 -145h270l-27 -136h-269l-31 -155h272l-27 -135h-439z" />
    <glyph glyph-name="ebreve" unicode="&#x115;" horiz-adv-x="581" 
d="M356 562q-160 0 -160 143q0 15 1 23h108q-1 -7 -1 -21q0 -57 56 -57q33 0 53.5 18t33.5 60h113q-38 -166 -204 -166zM323 513q102 0 162.5 -56.5t60.5 -161.5q0 -39 -8 -84h-344v-4q0 -101 84 -101q59 0 83 48h164q-25 -79 -94.5 -123t-163.5 -44q-116 0 -174.5 59.5
t-58.5 161.5q0 131 79.5 218t209.5 87zM314 399q-76 0 -106 -95h184v2q0 93 -78 93z" />
    <glyph glyph-name="Edotaccent" unicode="&#x116;" horiz-adv-x="571" 
d="M410 772q-38 0 -61.5 22.5t-23.5 58.5q0 35 24 57t61 22q36 0 59.5 -22.5t23.5 -56.5q0 -36 -23.5 -58.5t-59.5 -22.5zM27 0l141 706h439l-26 -135h-273l-30 -145h270l-27 -136h-269l-31 -155h272l-27 -135h-439z" />
    <glyph glyph-name="edotaccent" unicode="&#x117;" horiz-adv-x="581" 
d="M364 570q-37 0 -61.5 23.5t-24.5 58.5t24.5 59t61.5 24q36 0 60.5 -24t24.5 -59t-24.5 -58.5t-60.5 -23.5zM538 211h-344v-4q0 -101 84 -101q59 0 83 48h164q-25 -79 -94.5 -123t-163.5 -44q-116 0 -174.5 59.5t-58.5 161.5q0 131 79.5 218t209.5 87q102 0 162.5 -56.5
t60.5 -161.5q0 -39 -8 -84zM314 399q-76 0 -106 -95h184v2q0 93 -78 93z" />
    <glyph glyph-name="Eogonek" unicode="&#x118;" horiz-adv-x="571" 
d="M581 571h-273l-30 -145h270l-27 -136h-269l-31 -155h272l-27 -135q-27 -17 -42.5 -27.5t-32.5 -29.5t-17 -36q0 -29 35 -29q21 0 35 5l-17 -88q-35 -9 -71 -9q-52 0 -82 22.5t-30 64.5q0 77 110 127h-327l141 706h439z" />
    <glyph glyph-name="eogonek" unicode="&#x119;" horiz-adv-x="581" 
d="M538 211h-344v-4q0 -101 84 -101q60 0 82 48h165q-31 -95 -123 -149q-92 -57 -92 -98q0 -29 35 -29q21 0 36 5l-18 -88q-34 -9 -70 -9q-53 0 -83 22.5t-30 64.5q0 68 85 114q-115 1 -173 60t-58 161q0 131 79.5 218t209.5 87q102 0 162.5 -56.5t60.5 -161.5q0 -39 -8 -84
zM314 399q-76 0 -106 -95h184v2q0 93 -78 93z" />
    <glyph glyph-name="Ecaron" unicode="&#x11a;" horiz-adv-x="571" 
d="M614 914l-133 -142h-178l-74 142h134l38 -72l67 72h146zM27 0l141 706h439l-26 -135h-273l-30 -145h270l-27 -136h-269l-31 -155h272l-27 -135h-439z" />
    <glyph glyph-name="ecaron" unicode="&#x11b;" horiz-adv-x="581" 
d="M437 570h-178l-67 158h133l36 -88l69 88h139zM323 513q102 0 162.5 -56.5t60.5 -161.5q0 -39 -8 -84h-344v-4q0 -101 84 -101q59 0 83 48h164q-25 -79 -94.5 -123t-163.5 -44q-116 0 -174.5 59.5t-58.5 161.5q0 131 79.5 218t209.5 87zM314 399q-76 0 -106 -95h184v2
q0 93 -78 93z" />
    <glyph glyph-name="Gcircumflex" unicode="&#x11c;" horiz-adv-x="725" 
d="M492 844l-67 -72h-146l133 142h178l74 -142h-134zM437 582q-65 0 -113 -44.5t-70 -110.5t-22 -141q0 -162 131 -162q126 0 160 142h-145l24 119h308l-16 -82q-13 -66 -38.5 -121.5t-66.5 -101.5t-103.5 -72t-140.5 -26q-139 0 -212 78t-73 220q0 120 44 220t133.5 162
t208.5 62q129 0 202.5 -70t69.5 -192h-167q0 60 -30.5 90t-83.5 30z" />
    <glyph glyph-name="gcircumflex" unicode="&#x11d;" horiz-adv-x="606" 
d="M374 658l-69 -88h-139l132 158h178l67 -158h-133zM439 499h153l-101 -504q-41 -209 -272 -209q-107 0 -167.5 39t-57.5 116h163q9 -38 68 -38q88 0 108 104l7 35q-56 -49 -135 -49q-87 0 -129.5 56.5t-42.5 141.5q0 137 69 229t182 92q108 0 141 -83zM199 226
q0 -102 78 -102q85 0 104 96q12 60 12 78q0 83 -77 83q-57 0 -87 -45t-30 -110z" />
    <glyph glyph-name="Gbreve" unicode="&#x11e;" horiz-adv-x="725" 
d="M472 765q-150 0 -150 120q0 9 2 29h100v-12q0 -51 57 -51q32 0 52 14.5t34 48.5h110q-38 -149 -205 -149zM437 582q-65 0 -113 -44.5t-70 -110.5t-22 -141q0 -162 131 -162q126 0 160 142h-145l24 119h308l-16 -82q-13 -66 -38.5 -121.5t-66.5 -101.5t-103.5 -72
t-140.5 -26q-139 0 -212 78t-73 220q0 120 44 220t133.5 162t208.5 62q129 0 202.5 -70t69.5 -192h-167q0 60 -30.5 90t-83.5 30z" />
    <glyph glyph-name="gbreve" unicode="&#x11f;" horiz-adv-x="606" 
d="M365 562q-160 0 -160 143q0 15 1 23h108q-1 -7 -1 -21q0 -57 56 -57q33 0 53.5 18t33.5 60h113q-38 -166 -204 -166zM439 499h153l-101 -504q-41 -209 -272 -209q-107 0 -167.5 39t-57.5 116h163q9 -38 68 -38q88 0 108 104l7 35q-56 -49 -135 -49q-87 0 -129.5 56.5
t-42.5 141.5q0 137 69 229t182 92q108 0 141 -83zM199 226q0 -102 78 -102q85 0 104 96q12 60 12 78q0 83 -77 83q-57 0 -87 -45t-30 -110z" />
    <glyph glyph-name="Gdotaccent" unicode="&#x120;" horiz-adv-x="725" 
d="M489 772q-38 0 -61.5 22.5t-23.5 58.5q0 35 24 57t61 22q36 0 59.5 -22.5t23.5 -56.5q0 -36 -23.5 -58.5t-59.5 -22.5zM437 582q-65 0 -113 -44.5t-70 -110.5t-22 -141q0 -162 131 -162q126 0 160 142h-145l24 119h308l-16 -82q-13 -66 -38.5 -121.5t-66.5 -101.5
t-103.5 -72t-140.5 -26q-139 0 -212 78t-73 220q0 120 44 220t133.5 162t208.5 62q129 0 202.5 -70t69.5 -192h-167q0 60 -30.5 90t-83.5 30z" />
    <glyph glyph-name="gdotaccent" unicode="&#x121;" horiz-adv-x="606" 
d="M373 570q-37 0 -61.5 23.5t-24.5 58.5t24.5 59t61.5 24q36 0 60.5 -24t24.5 -59t-24.5 -58.5t-60.5 -23.5zM439 499h153l-101 -504q-41 -209 -272 -209q-107 0 -167.5 39t-57.5 116h163q9 -38 68 -38q88 0 108 104l7 35q-56 -49 -135 -49q-87 0 -129.5 56.5t-42.5 141.5
q0 137 69 229t182 92q108 0 141 -83zM199 226q0 -102 78 -102q85 0 104 96q12 60 12 78q0 83 -77 83q-57 0 -87 -45t-30 -110z" />
    <glyph glyph-name="uni0122" unicode="&#x122;" horiz-adv-x="725" 
d="M437 582q-65 0 -113 -44.5t-70 -110.5t-22 -141q0 -162 131 -162q126 0 160 142h-145l24 119h308l-16 -82q-13 -66 -38.5 -121.5t-66.5 -101.5t-103.5 -72t-140.5 -26q-139 0 -212 78t-73 220q0 120 44 220t133.5 162t208.5 62q129 0 202.5 -70t69.5 -192h-167
q0 60 -30.5 90t-83.5 30zM169 -200l68 148h161l-86 -148h-143z" />
    <glyph glyph-name="uni0123" unicode="&#x123;" horiz-adv-x="606" 
d="M478 718l-68 -148h-161l85 148h144zM439 499h153l-101 -504q-41 -209 -272 -209q-107 0 -167.5 39t-57.5 116h163q9 -38 68 -38q88 0 108 104l7 35q-56 -49 -135 -49q-87 0 -129.5 56.5t-42.5 141.5q0 137 69 229t182 92q108 0 141 -83zM199 226q0 -102 78 -102
q85 0 104 96q12 60 12 78q0 83 -77 83q-57 0 -87 -45t-30 -110z" />
    <glyph glyph-name="Hcircumflex" unicode="&#x124;" horiz-adv-x="734" 
d="M279 772l133 142h178l74 -142h-134l-38 72l-67 -72h-146zM27 0l141 706h166l-55 -279h247l56 279h166l-141 -706h-166l57 287h-247l-58 -287h-166z" />
    <glyph glyph-name="hcircumflex" unicode="&#x125;" horiz-adv-x="592" 
d="M422 844l-67 -72h-146l133 142h178l74 -142h-134zM399 513q73 0 111 -40.5t38 -118.5q0 -26 -6 -57l-60 -297h-157l54 272q5 25 5 42q0 68 -63 68q-73 0 -91 -84l-60 -298h-156l141 706h156l-51 -258q57 65 139 65z" />
    <glyph glyph-name="Hbar" unicode="&#x126;" horiz-adv-x="734" 
d="M582 706h166l-141 -706h-166l57 287h-247l-58 -287h-166l141 706h166l-19 -94h248zM279 427h247l18 90h-247z" />
    <glyph glyph-name="hbar" unicode="&#x127;" horiz-adv-x="592" 
d="M399 513q73 0 111 -40.5t38 -118.5q0 -26 -6 -57l-60 -297h-157l54 272q5 25 5 42q0 68 -63 68q-73 0 -91 -84l-60 -298h-156l112 560h-41l19 91h40l11 55h156l-11 -55h169l-18 -91h-169l-22 -112q57 65 139 65z" />
    <glyph glyph-name="Itilde" unicode="&#x128;" horiz-adv-x="320" 
d="M330 769q-35 0 -62 25q-24 24 -42 24q-25 0 -37 -47h-81q17 73 46 108t75 35q36 0 62 -28q20 -20 33 -20q15 0 23.5 11t17.5 37h84q-18 -77 -45.5 -111t-73.5 -34zM27 0l141 706h166l-141 -706h-166z" />
    <glyph glyph-name="itilde" unicode="&#x129;" horiz-adv-x="284" 
d="M267 569q-42 0 -65 35q-14 21 -26 21q-24 0 -33 -54h-85q18 83 44.5 121t72.5 38q39 0 64 -35q14 -21 26 -21q25 0 34 54h87q-19 -83 -45.5 -121t-73.5 -38zM14 0l99 499h157l-100 -499h-156z" />
    <glyph glyph-name="Imacron" unicode="&#x12a;" horiz-adv-x="320" 
d="M133 793l21 100h268l-21 -100h-268zM27 0l141 706h166l-141 -706h-166z" />
    <glyph glyph-name="imacron" unicode="&#x12b;" horiz-adv-x="284" 
d="M83 596l20 99h255l-20 -99h-255zM14 0l99 499h157l-100 -499h-156z" />
    <glyph glyph-name="Ibreve" unicode="&#x12c;" horiz-adv-x="320" 
d="M273 765q-139 0 -139 112q0 11 4 37h103q-1 -8 -1 -20q0 -23 9 -32.5t30 -9.5q24 0 37.5 14t22.5 48h108q-29 -149 -174 -149zM27 0l141 706h166l-141 -706h-166z" />
    <glyph glyph-name="ibreve" unicode="&#x12d;" horiz-adv-x="284" 
d="M209 561q-59 0 -90 30t-31 87q0 20 5 50h97q-5 -27 -5 -40q0 -38 32 -38q26 0 42 17t25 61h99q-33 -167 -174 -167zM14 0l99 499h157l-100 -499h-156z" />
    <glyph glyph-name="Iogonek" unicode="&#x12e;" horiz-adv-x="320" 
d="M193 0q-74 -62 -74 -100q0 -22 26 -22q13 0 26 5l-17 -89q-30 -8 -61 -8q-48 0 -76 20t-28 58q0 39 27 74.5t70 61.5h-59l141 706h166z" />
    <glyph glyph-name="iogonek" unicode="&#x12f;" horiz-adv-x="284" 
d="M223 735q36 0 60.5 -24t24.5 -59t-24.5 -58.5t-60.5 -23.5q-37 0 -61.5 23.5t-24.5 58.5t24.5 59t61.5 24zM14 0l99 499h157l-100 -499q-74 -62 -74 -100q0 -22 26 -22q13 0 26 5l-17 -89q-30 -8 -61 -8q-48 0 -76 20t-28 58q0 39 27 74.5t70 61.5h-49z" />
    <glyph glyph-name="Idotaccent" unicode="&#x130;" horiz-adv-x="320" 
d="M281 772q-38 0 -61.5 22.5t-23.5 58.5q0 35 24 57t61 22q36 0 59.5 -22.5t23.5 -56.5q0 -36 -23.5 -58.5t-59.5 -22.5zM27 0l141 706h166l-141 -706h-166z" />
    <glyph glyph-name="dotlessi" unicode="&#x131;" horiz-adv-x="284" 
d="M14 0l99 499h157l-100 -499h-156z" />
    <glyph glyph-name="IJ" unicode="&#x132;" horiz-adv-x="704" 
d="M27 0l141 706h166l-141 -706h-166zM356 -3q-40 0 -70 5l30 149q14 -3 37 -3q57 0 84.5 24.5t39.5 87.5l90 446h166l-97 -488q-23 -113 -90 -167t-190 -54z" />
    <glyph glyph-name="ij" unicode="&#x133;" horiz-adv-x="568" 
d="M223 570q-37 0 -61.5 23.5t-24.5 58.5t24.5 59t61.5 24q36 0 61 -24t25 -59q0 -34 -25 -58t-61 -24zM507 570q-37 0 -61.5 23.5t-24.5 58.5t24.5 59t61.5 24q36 0 61 -24t25 -59q0 -34 -25 -58t-61 -24zM14 0l99 499h157l-100 -499h-156zM254 -204q-36 0 -76 5l27 134
q10 -2 27 -2q53 0 63 55l102 511h157l-110 -549q-16 -81 -61.5 -117.5t-128.5 -36.5z" />
    <glyph glyph-name="Jcircumflex" unicode="&#x134;" horiz-adv-x="384" 
d="M171 772l112 142h175l56 -142h-126l-26 73l-55 -73h-136zM36 -3q-40 0 -70 5l30 149q14 -3 37 -3q57 0 84.5 24.5t39.5 87.5l90 446h166l-97 -488q-23 -113 -90 -167t-190 -54z" />
    <glyph glyph-name="jcircumflex" unicode="&#x135;" horiz-adv-x="284" 
d="M56 570l107 158h150l42 -158h-109l-20 85l-55 -85h-115zM-30 -204q-36 0 -76 5l27 134q10 -2 27 -2q53 0 63 55l102 511h157l-110 -549q-16 -81 -61.5 -117.5t-128.5 -36.5z" />
    <glyph glyph-name="uni0136" unicode="&#x136;" horiz-adv-x="691" 
d="M735 706l-330 -342l231 -364h-191l-189 315l-63 -315h-166l141 706h166l-53 -266l249 266h205zM161 -200l68 148h161l-86 -148h-143z" />
    <glyph glyph-name="uni0137" unicode="&#x137;" horiz-adv-x="558" 
d="M590 499l-231 -242l164 -257h-188l-124 206l-41 -206h-156l141 706h156l-74 -369l142 162h211zM97 -200l68 148h161l-86 -148h-143z" />
    <glyph glyph-name="kgreenlandic" unicode="&#x138;" horiz-adv-x="558" 
d="M600 499l-243 -245l166 -254h-188l-124 206l-41 -206h-156l99 499h157l-33 -166l152 166h211z" />
    <glyph glyph-name="Lacute" unicode="&#x139;" horiz-adv-x="482" 
d="M178 772l114 142h170l-129 -142h-155zM27 0l141 706h166l-111 -561h223l-29 -145h-390z" />
    <glyph glyph-name="lacute" unicode="&#x13a;" horiz-adv-x="284" 
d="M153 772l114 142h170l-129 -142h-155zM14 0l141 706h156l-141 -706h-156z" />
    <glyph glyph-name="uni013B" unicode="&#x13b;" horiz-adv-x="482" 
d="M27 0l141 706h166l-111 -561h223l-29 -145h-390zM85 -200l68 148h161l-86 -148h-143z" />
    <glyph glyph-name="uni013C" unicode="&#x13c;" horiz-adv-x="284" 
d="M14 0l141 706h156l-141 -706h-156zM-65 -200l68 148h161l-86 -148h-143z" />
    <glyph glyph-name="Lcaron" unicode="&#x13d;" horiz-adv-x="482" 
d="M27 0l141 706h166l-111 -561h223l-29 -145h-390zM356 534l57 172h132l-74 -172h-115z" />
    <glyph glyph-name="lcaron" unicode="&#x13e;" horiz-adv-x="393" 
d="M14 0l141 706h156l-141 -706h-156zM316 534l57 172h132l-74 -172h-115z" />
    <glyph glyph-name="Ldot" unicode="&#x13f;" horiz-adv-x="575" 
d="M27 0l141 706h166l-111 -561h223l-29 -145h-390zM481 318q-43 0 -70.5 27t-27.5 69t27.5 69.5t70.5 27.5t70.5 -27.5t27.5 -69.5t-27.5 -69t-70.5 -27z" />
    <glyph glyph-name="ldot" unicode="&#x140;" horiz-adv-x="477" 
d="M14 0l141 706h156l-141 -706h-156zM398 240q-43 0 -71 27t-28 69t28 69t71 27t70.5 -27t27.5 -69t-27.5 -69t-70.5 -27z" />
    <glyph glyph-name="Lslash" unicode="&#x141;" horiz-adv-x="482" 
d="M223 145h223l-29 -145h-390l54 272l-63 -37l25 123l63 37l62 311h166l-45 -228l144 85l-25 -125l-144 -84z" />
    <glyph glyph-name="lslash" unicode="&#x142;" horiz-adv-x="300" 
d="M350 531l-25 -130l-76 -47l-71 -354h-156l55 275l-76 -42l26 129l76 45l60 299h156l-44 -221z" />
    <glyph glyph-name="Nacute" unicode="&#x143;" horiz-adv-x="753" 
d="M377 772l114 142h170l-129 -142h-155zM27 0l141 706h165l181 -462l92 462h162l-141 -706h-166l-181 462l-92 -462h-161z" />
    <glyph glyph-name="nacute" unicode="&#x144;" horiz-adv-x="592" 
d="M557 727l-129 -157h-144l113 157h160zM403 513q71 0 108 -39t37 -112q0 -34 -6 -65l-60 -297h-157l54 272q5 25 5 44q0 66 -63 66q-73 0 -91 -84l-60 -298h-156l99 499h157l-10 -51q56 65 143 65z" />
    <glyph glyph-name="uni0145" unicode="&#x145;" horiz-adv-x="753" 
d="M27 0l141 706h165l181 -462l92 462h162l-141 -706h-166l-181 462l-92 -462h-161zM187 -200l68 148h161l-86 -148h-143z" />
    <glyph glyph-name="uni0146" unicode="&#x146;" horiz-adv-x="592" 
d="M403 513q71 0 108 -39t37 -112q0 -34 -6 -65l-60 -297h-157l54 272q5 25 5 44q0 66 -63 66q-73 0 -91 -84l-60 -298h-156l99 499h157l-10 -51q56 65 143 65zM93 -200l68 148h161l-86 -148h-143z" />
    <glyph glyph-name="Ncaron" unicode="&#x147;" horiz-adv-x="753" 
d="M691 914l-133 -142h-178l-74 142h134l38 -72l67 72h146zM27 0l141 706h165l181 -462l92 462h162l-141 -706h-166l-181 462l-92 -462h-161z" />
    <glyph glyph-name="ncaron" unicode="&#x148;" horiz-adv-x="592" 
d="M465 570h-178l-67 158h133l36 -88l69 88h139zM403 513q71 0 108 -39t37 -112q0 -34 -6 -65l-60 -297h-157l54 272q5 25 5 44q0 66 -63 66q-73 0 -91 -84l-60 -298h-156l99 499h157l-10 -51q56 65 143 65z" />
    <glyph glyph-name="napostrophe" unicode="&#x149;" horiz-adv-x="777" 
d="M189 706h169l-160 -282h-127zM588 513q71 0 108 -39t37 -112q0 -34 -6 -65l-60 -297h-157l54 272q5 25 5 44q0 66 -63 66q-74 0 -90 -84l-60 -298h-157l100 499h156l-10 -51q56 65 143 65z" />
    <glyph glyph-name="Eng" unicode="&#x14a;" horiz-adv-x="753" 
d="M606 706h162l-150 -745q-17 -87 -63.5 -126t-132.5 -39q-36 0 -76 5l26 128q10 -2 27 -2q51 0 63 54l6 27l-188 454l-92 -462h-161l141 706h165l184 -446z" />
    <glyph glyph-name="eng" unicode="&#x14b;" horiz-adv-x="592" 
d="M399 513q73 0 111 -40.5t38 -118.5q0 -26 -6 -57l-70 -347q-16 -81 -62 -117.5t-129 -36.5q-37 0 -75 5l27 134q11 -2 31 -2q48 0 58 50l57 289q5 25 5 42q0 68 -63 68q-73 0 -91 -84l-60 -298h-156l99 499h157l-10 -51q57 65 139 65z" />
    <glyph glyph-name="Omacron" unicode="&#x14c;" horiz-adv-x="752" 
d="M327 794l20 100h314l-20 -100h-314zM357 -18q-155 0 -226.5 77.5t-71.5 212.5q0 123 43.5 225t131 164.5t202.5 62.5q153 0 225.5 -78.5t72.5 -211.5q0 -191 -102 -321.5t-275 -130.5zM360 124q64 0 111.5 47t69 114.5t21.5 141.5q0 155 -129 155q-50 0 -89.5 -27
t-63.5 -71t-36.5 -96.5t-12.5 -107.5q0 -71 31.5 -113.5t97.5 -42.5z" />
    <glyph glyph-name="omacron" unicode="&#x14d;" horiz-adv-x="588" 
d="M211 596l20 99h305l-20 -99h-305zM258 -13q-111 0 -167 62t-56 160q0 135 79.5 219.5t215.5 84.5q113 0 168.5 -61.5t55.5 -156.5q0 -137 -79.5 -222.5t-216.5 -85.5zM275 119q57 0 86.5 50t29.5 121q0 92 -78 92q-55 0 -85 -50t-30 -118q0 -95 77 -95z" />
    <glyph glyph-name="Obreve" unicode="&#x14e;" horiz-adv-x="752" 
d="M479 765q-150 0 -150 120q0 9 2 29h100v-12q0 -51 57 -51q32 0 52 14.5t34 48.5h110q-38 -149 -205 -149zM357 -18q-155 0 -226.5 77.5t-71.5 212.5q0 123 43.5 225t131 164.5t202.5 62.5q153 0 225.5 -78.5t72.5 -211.5q0 -191 -102 -321.5t-275 -130.5zM360 124
q64 0 111.5 47t69 114.5t21.5 141.5q0 155 -129 155q-50 0 -89.5 -27t-63.5 -71t-36.5 -96.5t-12.5 -107.5q0 -71 31.5 -113.5t97.5 -42.5z" />
    <glyph glyph-name="obreve" unicode="&#x14f;" horiz-adv-x="588" 
d="M367 562q-160 0 -160 143q0 15 1 23h108q-1 -7 -1 -21q0 -57 56 -57q33 0 53.5 18t33.5 60h113q-38 -166 -204 -166zM258 -13q-111 0 -167 62t-56 160q0 135 79.5 219.5t215.5 84.5q113 0 168.5 -61.5t55.5 -156.5q0 -137 -79.5 -222.5t-216.5 -85.5zM275 119
q57 0 86.5 50t29.5 121q0 92 -78 92q-55 0 -85 -50t-30 -118q0 -95 77 -95z" />
    <glyph glyph-name="Ohungarumlaut" unicode="&#x150;" horiz-adv-x="752" 
d="M323 772l113 142h141l-137 -142h-117zM503 772l112 142h142l-137 -142h-117zM357 -18q-155 0 -226.5 77.5t-71.5 212.5q0 123 43.5 225t131 164.5t202.5 62.5q153 0 225.5 -78.5t72.5 -211.5q0 -191 -102 -321.5t-275 -130.5zM360 124q64 0 111.5 47t69 114.5t21.5 141.5
q0 155 -129 155q-50 0 -89.5 -27t-63.5 -71t-36.5 -96.5t-12.5 -107.5q0 -71 31.5 -113.5t97.5 -42.5z" />
    <glyph glyph-name="ohungarumlaut" unicode="&#x151;" horiz-adv-x="588" 
d="M202 570l116 158h140l-143 -158h-113zM381 570l115 158h140l-142 -158h-113zM258 -13q-111 0 -167 62t-56 160q0 135 79.5 219.5t215.5 84.5q113 0 168.5 -61.5t55.5 -156.5q0 -137 -79.5 -222.5t-216.5 -85.5zM275 119q57 0 86.5 50t29.5 121q0 92 -78 92q-55 0 -85 -50
t-30 -118q0 -95 77 -95z" />
    <glyph glyph-name="OE" unicode="&#x152;" horiz-adv-x="1016" 
d="M1025 571h-272l-30 -145h270l-27 -136h-270l-30 -155h272l-27 -135h-410l6 30q-77 -48 -171 -48q-139 0 -206.5 83t-67.5 220q0 192 97.5 315.5t264.5 123.5q135 0 206 -77l12 59h410zM351 124q92 0 144.5 90t48.5 212q-4 156 -123 156q-60 0 -103 -45.5t-62 -112.5
t-19 -146q0 -154 114 -154z" />
    <glyph glyph-name="oe" unicode="&#x153;" horiz-adv-x="882" 
d="M846 294q0 -35 -7 -83h-325q1 -53 17.5 -79t56.5 -26q52 0 73 48h164q-24 -79 -90.5 -123t-157.5 -44q-105 0 -159 62q-72 -62 -176 -62t-156 59t-52 153q0 140 75.5 227t201.5 87q103 0 154 -61q71 61 170 61q96 0 153.5 -57t57.5 -162zM623 399q-73 0 -99 -95h168v3
q0 92 -69 92zM263 118q52 0 79.5 54t27.5 120q0 90 -63 90q-53 0 -81.5 -51.5t-28.5 -116.5q0 -96 66 -96z" />
    <glyph glyph-name="Racute" unicode="&#x154;" horiz-adv-x="660" 
d="M615 914l-129 -142h-155l114 142h170zM646 511q0 -91 -50 -151t-139 -77l143 -283h-175l-138 277h-38l-56 -277h-166l141 706h241q237 0 237 -195zM310 581l-37 -186h84q57 0 87.5 27.5t30.5 76.5q0 45 -24.5 63.5t-76.5 18.5h-64z" />
    <glyph glyph-name="racute" unicode="&#x155;" horiz-adv-x="405" 
d="M470 727l-129 -157h-144l113 157h160zM250 435q56 72 142 72q26 0 49 -7l-28 -138q-18 5 -46 5q-122 0 -153 -151l-44 -216h-156l99 499h150z" />
    <glyph glyph-name="uni0156" unicode="&#x156;" horiz-adv-x="660" 
d="M646 511q0 -91 -50 -151t-139 -77l143 -283h-175l-138 277h-38l-56 -277h-166l141 706h241q237 0 237 -195zM310 581l-37 -186h84q57 0 87.5 27.5t30.5 76.5q0 45 -24.5 63.5t-76.5 18.5h-64zM158 -200l68 148h161l-86 -148h-143z" />
    <glyph glyph-name="uni0157" unicode="&#x157;" horiz-adv-x="405" 
d="M392 507q26 0 49 -7l-28 -138q-18 5 -46 5q-122 0 -153 -151l-44 -216h-156l99 499h150l-13 -64q56 72 142 72zM-65 -200l68 148h161l-86 -148h-143z" />
    <glyph glyph-name="Rcaron" unicode="&#x158;" horiz-adv-x="660" 
d="M513 772h-178l-74 142h134l38 -72l67 72h146zM646 511q0 -91 -50 -151t-139 -77l143 -283h-175l-138 277h-38l-56 -277h-166l141 706h241q237 0 237 -195zM357 395q57 0 87.5 27.5t30.5 76.5q0 45 -24.5 63.5t-76.5 18.5h-64l-37 -186h84z" />
    <glyph glyph-name="rcaron" unicode="&#x159;" horiz-adv-x="405" 
d="M377 570h-178l-67 158h133l36 -88l69 88h139zM250 435q56 72 142 72q26 0 49 -7l-28 -138q-18 5 -46 5q-122 0 -153 -151l-44 -216h-156l99 499h150z" />
    <glyph glyph-name="Sacute" unicode="&#x15a;" horiz-adv-x="622" 
d="M311 772l114 142h170l-129 -142h-155zM281 -18q-132 0 -194.5 56.5t-62.5 154.5q0 15 1 24h184q-2 -16 -2 -22q0 -85 92 -85q48 0 75 21t27 56q0 18 -6.5 32t-24 27t-30.5 20.5t-44.5 23t-47.5 23.5q-74 39 -108 79.5t-34 106.5q0 104 76.5 164.5t200.5 60.5
q116 0 176.5 -53.5t60.5 -145.5q0 -17 -1 -26h-172q2 20 2 28q0 34 -20.5 54t-61.5 20q-42 0 -65.5 -21t-23.5 -55q0 -9 1.5 -16.5t6 -14.5t8 -12t12.5 -11.5t15 -10.5t19.5 -11t21.5 -10.5t26 -12t28 -13.5q89 -42 128.5 -82.5t39.5 -115.5q0 -110 -83.5 -171.5
t-219.5 -61.5z" />
    <glyph glyph-name="sacute" unicode="&#x15b;" horiz-adv-x="499" 
d="M213 570l113 157h160l-129 -157h-144zM217 -17q-104 0 -155.5 38.5t-51.5 108.5q0 16 3 34h155q-3 -13 -3 -26q0 -47 56 -47q29 0 43.5 13t14.5 31q0 24 -20 38.5t-65 32.5q-61 24 -92 56t-31 87q0 77 59.5 120.5t151.5 43.5q94 0 141.5 -34t47.5 -97q0 -8 -2 -28h-149
q2 12 2 21q0 40 -47 40q-25 0 -38 -11.5t-13 -28.5q0 -20 20.5 -34.5t70.5 -34.5q67 -26 99 -59.5t32 -90.5q0 -83 -64 -128t-165 -45z" />
    <glyph glyph-name="Scircumflex" unicode="&#x15c;" horiz-adv-x="622" 
d="M211 772l133 142h178l74 -142h-134l-38 72l-67 -72h-146zM281 -18q-132 0 -194.5 56.5t-62.5 154.5q0 15 1 24h184q-2 -16 -2 -22q0 -85 92 -85q48 0 75 21t27 56q0 18 -6.5 32t-24 27t-30.5 20.5t-44.5 23t-47.5 23.5q-74 39 -108 79.5t-34 106.5q0 104 76.5 164.5
t200.5 60.5q116 0 176.5 -53.5t60.5 -145.5q0 -17 -1 -26h-172q2 20 2 28q0 34 -20.5 54t-61.5 20q-42 0 -65.5 -21t-23.5 -55q0 -9 1.5 -16.5t6 -14.5t8 -12t12.5 -11.5t15 -10.5t19.5 -11t21.5 -10.5t26 -12t28 -13.5q89 -42 128.5 -82.5t39.5 -115.5q0 -110 -83.5 -171.5
t-219.5 -61.5z" />
    <glyph glyph-name="scircumflex" unicode="&#x15d;" horiz-adv-x="499" 
d="M113 570l132 158h178l67 -158h-133l-36 88l-69 -88h-139zM217 -17q-104 0 -155.5 38.5t-51.5 108.5q0 16 3 34h155q-3 -13 -3 -26q0 -47 56 -47q29 0 43.5 13t14.5 31q0 24 -20 38.5t-65 32.5q-61 24 -92 56t-31 87q0 77 59.5 120.5t151.5 43.5q94 0 141.5 -34t47.5 -97
q0 -8 -2 -28h-149q2 12 2 21q0 40 -47 40q-25 0 -38 -11.5t-13 -28.5q0 -20 20.5 -34.5t70.5 -34.5q67 -26 99 -59.5t32 -90.5q0 -83 -64 -128t-165 -45z" />
    <glyph glyph-name="Scedilla" unicode="&#x15e;" horiz-adv-x="622" 
d="M619 499h-172q2 20 2 28q0 34 -20.5 54t-61.5 20q-42 0 -65.5 -21t-23.5 -55q0 -9 1.5 -16.5t6 -14.5t8 -12t12.5 -11.5t15 -10.5t19.5 -11t21.5 -10.5t26 -12t28 -13.5q89 -42 128.5 -82.5t39.5 -115.5q0 -96 -64.5 -155.5t-174.5 -73.5l-10 -23q41 -5 63.5 -28.5
t22.5 -60.5q0 -55 -44 -81.5t-117 -26.5q-61 0 -105 21l30 72q33 -15 73 -15q57 0 57 33q0 30 -63 30h-47l34 77q-110 9 -162.5 64t-52.5 145q0 15 1 24h184q-2 -16 -2 -22q0 -85 92 -85q48 0 75 21t27 56q0 18 -6.5 32t-24 27t-30.5 20.5t-44.5 23t-47.5 23.5
q-74 39 -108 79.5t-34 106.5q0 104 76.5 164.5t200.5 60.5q116 0 176.5 -53.5t60.5 -145.5q0 -17 -1 -26z" />
    <glyph glyph-name="scedilla" unicode="&#x15f;" horiz-adv-x="499" 
d="M469 354h-149q2 12 2 21q0 40 -47 40q-25 0 -38 -11.5t-13 -28.5q0 -20 20.5 -34.5t70.5 -34.5q67 -26 99 -59.5t32 -90.5q0 -73 -51.5 -117.5t-135.5 -53.5l-10 -22q41 -5 63.5 -28.5t22.5 -60.5q0 -55 -44 -81.5t-117 -26.5q-61 0 -105 21l30 72q33 -15 73 -15
q57 0 57 33q0 30 -63 30h-47l35 80q-144 22 -144 143q0 16 3 34h155q-3 -13 -3 -26q0 -47 56 -47q29 0 43.5 13t14.5 31q0 24 -20 38.5t-65 32.5q-61 24 -92 56t-31 87q0 77 59.5 120.5t151.5 43.5q94 0 141.5 -34t47.5 -97q0 -8 -2 -28z" />
    <glyph glyph-name="Scaron" unicode="&#x160;" horiz-adv-x="622" 
d="M625 914l-133 -142h-178l-74 142h134l38 -72l67 72h146zM281 -18q-132 0 -194.5 56.5t-62.5 154.5q0 15 1 24h184q-2 -16 -2 -22q0 -85 92 -85q48 0 75 21t27 56q0 18 -6.5 32t-24 27t-30.5 20.5t-44.5 23t-47.5 23.5q-74 39 -108 79.5t-34 106.5q0 104 76.5 164.5
t200.5 60.5q116 0 176.5 -53.5t60.5 -145.5q0 -17 -1 -26h-172q2 20 2 28q0 34 -20.5 54t-61.5 20q-42 0 -65.5 -21t-23.5 -55q0 -9 1.5 -16.5t6 -14.5t8 -12t12.5 -11.5t15 -10.5t19.5 -11t21.5 -10.5t26 -12t28 -13.5q89 -42 128.5 -82.5t39.5 -115.5q0 -110 -83.5 -171.5
t-219.5 -61.5z" />
    <glyph glyph-name="scaron" unicode="&#x161;" horiz-adv-x="499" 
d="M526 728l-132 -158h-178l-67 158h133l36 -88l69 88h139zM217 -17q-104 0 -155.5 38.5t-51.5 108.5q0 16 3 34h155q-3 -13 -3 -26q0 -47 56 -47q29 0 43.5 13t14.5 31q0 24 -20 38.5t-65 32.5q-61 24 -92 56t-31 87q0 77 59.5 120.5t151.5 43.5q94 0 141.5 -34t47.5 -97
q0 -8 -2 -28h-149q2 12 2 21q0 40 -47 40q-25 0 -38 -11.5t-13 -28.5q0 -20 20.5 -34.5t70.5 -34.5q67 -26 99 -59.5t32 -90.5q0 -83 -64 -128t-165 -45z" />
    <glyph glyph-name="uni0162" unicode="&#x162;" horiz-adv-x="549" 
d="M106 706h519l-27 -135h-175l-115 -571h-19l-17 -37q41 -5 63.5 -28.5t22.5 -60.5q0 -55 -44 -81.5t-117 -26.5q-61 0 -105 21l30 72q33 -15 73 -15q57 0 57 33q0 30 -63 30h-47l41 93h-41l114 571h-176z" />
    <glyph glyph-name="uni0163" unicode="&#x163;" horiz-adv-x="372" 
d="M258 375l-36 -177q-3 -16 -3 -28q0 -27 13 -39t40 -12q20 0 46 6l-26 -126q-38 -7 -70 -8l-13 -28q41 -5 63.5 -28.5t22.5 -60.5q0 -55 -44 -81.5t-117 -26.5q-61 0 -105 21l30 72q33 -15 73 -15q57 0 57 33q0 30 -63 30h-47l42 96q-66 25 -66 112q0 31 9 73l37 187h-63
l24 124h64l23 117h157l-23 -117h111l-25 -124h-111z" />
    <glyph glyph-name="Tcaron" unicode="&#x164;" horiz-adv-x="549" 
d="M600 914l-133 -142h-178l-74 142h134l38 -72l67 72h146zM142 0l114 571h-176l26 135h519l-27 -135h-175l-115 -571h-166z" />
    <glyph glyph-name="tcaron" unicode="&#x165;" horiz-adv-x="422" 
d="M317 536l57 172h132l-74 -172h-115zM206 -9q-78 0 -114.5 29t-36.5 95q0 31 9 73l37 187h-63l24 124h64l23 117h157l-23 -117h111l-25 -124h-111l-36 -177q-3 -16 -3 -28q0 -27 13 -39t40 -12q20 0 46 6l-26 -126q-46 -8 -86 -8z" />
    <glyph glyph-name="Tbar" unicode="&#x166;" horiz-adv-x="549" 
d="M598 571h-175l-29 -145h110l-21 -100h-109l-66 -326h-166l65 326h-112l21 100h111l29 145h-176l26 135h519z" />
    <glyph glyph-name="tbar" unicode="&#x167;" horiz-adv-x="372" 
d="M369 375h-111l-13 -66h111l-19 -98h-112l-3 -13q-3 -16 -3 -28q0 -27 13 -39t40 -12q20 0 46 6l-26 -126q-46 -8 -86 -8q-78 0 -114.5 29t-36.5 95q0 31 9 73l5 23h-65l20 98h64l13 66h-63l24 124h64l23 117h157l-23 -117h111z" />
    <glyph glyph-name="Utilde" unicode="&#x168;" horiz-adv-x="690" 
d="M532 768q-37 0 -80 26q-42 23 -62 23q-36 0 -49 -48h-87q35 146 138 146q42 0 82 -29q29 -20 52 -20q34 0 53 49h85q-35 -147 -132 -147zM316 -18q-258 0 -258 208q0 44 11 96l84 420h166l-88 -442q-5 -24 -5 -53q0 -43 22.5 -64.5t73.5 -21.5q64 0 96 31.5t45 97.5
l90 452h166l-97 -489q-47 -235 -306 -235z" />
    <glyph glyph-name="utilde" unicode="&#x169;" horiz-adv-x="592" 
d="M301 624q-30 0 -42 -53h-93q33 159 133 159q38 0 76 -29q37 -26 54 -26t27 12.5t17 40.5h93q-33 -159 -134 -159q-43 0 -77 27q-40 28 -54 28zM422 499h156l-99 -499h-157l10 51q-56 -65 -143 -65q-71 0 -108 39t-37 112q0 33 6 65l60 297h157l-54 -272q-5 -25 -5 -44
q0 -66 63 -66q73 0 91 84z" />
    <glyph glyph-name="Umacron" unicode="&#x16a;" horiz-adv-x="690" 
d="M293 794l20 100h314l-20 -100h-314zM316 -18q-258 0 -258 208q0 44 11 96l84 420h166l-88 -442q-5 -24 -5 -53q0 -43 22.5 -64.5t73.5 -21.5q64 0 96 31.5t45 97.5l90 452h166l-97 -489q-47 -235 -306 -235z" />
    <glyph glyph-name="umacron" unicode="&#x16b;" horiz-adv-x="592" 
d="M528 695l-20 -99h-305l20 99h305zM422 499h156l-99 -499h-157l10 51q-56 -65 -143 -65q-71 0 -108 39t-37 112q0 33 6 65l60 297h157l-54 -272q-5 -25 -5 -44q0 -66 63 -66q73 0 91 84z" />
    <glyph glyph-name="Ubreve" unicode="&#x16c;" horiz-adv-x="690" 
d="M445 765q-150 0 -150 120q0 9 2 29h100v-12q0 -51 57 -51q32 0 52 14.5t34 48.5h110q-38 -149 -205 -149zM316 -18q-258 0 -258 208q0 44 11 96l84 420h166l-88 -442q-5 -24 -5 -53q0 -43 22.5 -64.5t73.5 -21.5q64 0 96 31.5t45 97.5l90 452h166l-97 -489
q-47 -235 -306 -235z" />
    <glyph glyph-name="ubreve" unicode="&#x16d;" horiz-adv-x="592" 
d="M359 562q-160 0 -160 143q0 15 1 23h108q-1 -7 -1 -21q0 -57 56 -57q33 0 53.5 18t33.5 60h113q-38 -166 -204 -166zM422 499h156l-99 -499h-157l10 51q-56 -65 -143 -65q-71 0 -108 39t-37 112q0 33 6 65l60 297h157l-54 -272q-5 -25 -5 -44q0 -66 63 -66q73 0 91 84z
" />
    <glyph glyph-name="Uring" unicode="&#x16e;" horiz-adv-x="690" 
d="M452 738q-60 0 -97.5 34.5t-37.5 89.5q0 56 37 90t98 34q62 0 99.5 -34t37.5 -90q0 -55 -38 -89.5t-99 -34.5zM452 815q23 0 36.5 13t13.5 34q0 22 -13.5 35.5t-36.5 13.5q-22 0 -35.5 -13.5t-13.5 -35.5q0 -21 13.5 -34t35.5 -13zM316 -18q-258 0 -258 208q0 44 11 96
l84 420h166l-88 -442q-5 -24 -5 -53q0 -43 22.5 -64.5t73.5 -21.5q64 0 96 31.5t45 97.5l90 452h166l-97 -489q-47 -235 -306 -235z" />
    <glyph glyph-name="uring" unicode="&#x16f;" horiz-adv-x="592" 
d="M360 549q-61 0 -98 34.5t-37 89.5q0 56 37 90t98 34q62 0 99.5 -34t37.5 -90q0 -55 -38 -89.5t-99 -34.5zM360 722q-22 0 -35.5 -13.5t-13.5 -35.5q0 -21 13.5 -34t35.5 -13q23 0 36.5 13t13.5 34q0 22 -13.5 35.5t-36.5 13.5zM422 499h156l-99 -499h-157l10 51
q-56 -65 -143 -65q-71 0 -108 39t-37 112q0 33 6 65l60 297h157l-54 -272q-5 -25 -5 -44q0 -66 63 -66q73 0 91 84z" />
    <glyph glyph-name="Uhungarumlaut" unicode="&#x170;" horiz-adv-x="690" 
d="M289 772l113 142h141l-137 -142h-117zM469 772l112 142h142l-137 -142h-117zM316 -18q-258 0 -258 208q0 44 11 96l84 420h166l-88 -442q-5 -24 -5 -53q0 -43 22.5 -64.5t73.5 -21.5q64 0 96 31.5t45 97.5l90 452h166l-97 -489q-47 -235 -306 -235z" />
    <glyph glyph-name="uhungarumlaut" unicode="&#x171;" horiz-adv-x="592" 
d="M450 728l-143 -158h-113l116 158h140zM486 570h-113l115 158h140zM362 201l60 298h156l-99 -499h-157l10 51q-56 -65 -143 -65q-71 0 -108 39t-37 112q0 33 6 65l60 297h157l-54 -272q-5 -25 -5 -44q0 -66 63 -66q73 0 91 84z" />
    <glyph glyph-name="Uogonek" unicode="&#x172;" horiz-adv-x="690" 
d="M553 706h166l-97 -489q-15 -75 -50.5 -125.5t-101.5 -89.5q-92 -57 -92 -95q0 -29 35 -29q21 0 35 5l-17 -88q-35 -9 -71 -9q-52 0 -82 22.5t-30 64.5q0 64 75 109h-7q-258 0 -258 208q0 44 11 96l84 420h166l-88 -442q-5 -24 -5 -53q0 -43 22.5 -64.5t73.5 -21.5
q64 0 96 31.5t45 97.5z" />
    <glyph glyph-name="uogonek" unicode="&#x173;" horiz-adv-x="592" 
d="M422 499h156l-99 -499h-1q-27 -17 -42.5 -27.5t-32.5 -29.5t-17 -36q0 -29 35 -29q21 0 35 5l-17 -88q-35 -9 -71 -9q-52 0 -82 22.5t-30 64.5q0 77 110 127h-44l10 51q-56 -65 -143 -65q-71 0 -108 39t-37 112q0 33 6 65l60 297h157l-54 -272q-5 -25 -5 -44
q0 -66 63 -66q73 0 91 84z" />
    <glyph glyph-name="Wcircumflex" unicode="&#x174;" horiz-adv-x="943" 
d="M597 844l-67 -72h-146l133 142h178l74 -142h-134zM859 706h170l-327 -706h-174l-12 476l-202 -476h-170l-48 706h158l24 -467l193 467h174l13 -466z" />
    <glyph glyph-name="wcircumflex" unicode="&#x175;" horiz-adv-x="829" 
d="M478 658l-69 -88h-139l132 158h178l67 -158h-133zM691 499h177l-272 -499h-153l-26 286l-134 -286h-151l-71 499h160l22 -295l147 295h130l30 -294z" />
    <glyph glyph-name="Ycircumflex" unicode="&#x176;" horiz-adv-x="612" 
d="M198 772l133 142h178l74 -142h-134l-38 72l-67 -72h-146zM173 0l61 303l-138 403h165l83 -241l162 241h192l-298 -403l-61 -303h-166z" />
    <glyph glyph-name="ycircumflex" unicode="&#x177;" horiz-adv-x="559" 
d="M347 658l-69 -88h-139l132 158h178l67 -158h-133zM421 499h176l-410 -699h-168l118 202l-76 497h158l38 -319z" />
    <glyph glyph-name="Ydieresis" unicode="&#x178;" horiz-adv-x="612" 
d="M295 770q-34 0 -56.5 21.5t-22.5 53.5q0 33 22.5 54.5t56.5 21.5t56.5 -21.5t22.5 -54.5q0 -32 -22.5 -53.5t-56.5 -21.5zM517 770q-34 0 -56.5 21.5t-22.5 53.5q0 33 22.5 54.5t56.5 21.5q33 0 56 -21.5t23 -54.5q0 -32 -23 -53.5t-56 -21.5zM173 0l61 303l-138 403h165
l83 -241l162 241h192l-298 -403l-61 -303h-166z" />
    <glyph glyph-name="Zacute" unicode="&#x179;" horiz-adv-x="614" 
d="M290 772l114 142h170l-129 -142h-155zM-28 0l395 567h-264l27 139h529l-393 -567h294l-28 -139h-560z" />
    <glyph glyph-name="zacute" unicode="&#x17a;" horiz-adv-x="480" 
d="M475 727l-129 -157h-144l113 157h160zM524 499l-287 -373h203l-25 -126h-459l299 375h-202l25 124h446z" />
    <glyph glyph-name="Zdotaccent" unicode="&#x17b;" horiz-adv-x="614" 
d="M401 772q-38 0 -61.5 22.5t-23.5 58.5q0 35 24 57t61 22q36 0 59.5 -22.5t23.5 -56.5q0 -36 -23.5 -58.5t-59.5 -22.5zM-28 0l395 567h-264l27 139h529l-393 -567h294l-28 -139h-560z" />
    <glyph glyph-name="zdotaccent" unicode="&#x17c;" horiz-adv-x="480" 
d="M310 570q-37 0 -61.5 23.5t-24.5 58.5t24.5 59t61.5 24q36 0 60.5 -24t24.5 -59t-24.5 -58.5t-60.5 -23.5zM524 499l-287 -373h203l-25 -126h-459l299 375h-202l25 124h446z" />
    <glyph glyph-name="Zcaron" unicode="&#x17d;" horiz-adv-x="614" 
d="M604 914l-133 -142h-178l-74 142h134l38 -72l67 72h146zM-28 0l395 567h-264l27 139h529l-393 -567h294l-28 -139h-560z" />
    <glyph glyph-name="zcaron" unicode="&#x17e;" horiz-adv-x="480" 
d="M383 570h-178l-67 158h133l36 -88l69 88h139zM524 499l-287 -373h203l-25 -126h-459l299 375h-202l25 124h446z" />
    <glyph glyph-name="Schwa" unicode="&#x18f;" horiz-adv-x="725" 
d="M420 724q143 0 214.5 -81.5t71.5 -219.5q0 -188 -103.5 -314.5t-269.5 -126.5q-125 0 -199 75.5t-74 214.5q0 57 11 122h463q1 10 1 29q0 155 -127 155q-101 0 -140 -96h-177q35 115 123.5 178.5t205.5 63.5zM345 121q58 0 100 38.5t65 103.5h-285q0 -67 30 -104.5
t90 -37.5z" />
    <glyph glyph-name="florin" unicode="&#x192;" horiz-adv-x="402" 
d="M48 -8q-45 0 -82 10l25 121q17 -6 38 -6q69 0 83 69l35 176h-104l16 79h104l25 126q16 82 66.5 119t143.5 37q44 0 81 -10l-25 -121q-15 6 -40 6q-66 0 -81 -74l-17 -83h108l-16 -79h-108l-42 -215q-16 -81 -66.5 -118t-143.5 -37z" />
    <glyph glyph-name="Aringacute" unicode="&#x1fa;" horiz-adv-x="699" 
d="M700 1194l-129 -142h-155l114 142h170zM460 738q-60 0 -97.5 34.5t-37.5 89.5q0 56 37 90t98 34q62 0 99.5 -34t37.5 -90q0 -55 -38 -89.5t-99 -34.5zM460 911q-22 0 -35.5 -13.5t-13.5 -35.5q0 -21 13.5 -34t35.5 -13q23 0 36.5 13t13.5 34q0 22 -13.5 35.5t-36.5 13.5z
M315 706h251l78 -706h-169l-12 137h-262l-67 -137h-179zM264 264h187l-28 319h-2z" />
    <glyph glyph-name="aringacute" unicode="&#x1fb;" horiz-adv-x="583" 
d="M596 1024l-129 -157h-144l113 157h160zM363 549q-61 0 -98 34.5t-37 89.5q0 56 37 90t98 34q62 0 99.5 -34t37.5 -90q0 -55 -38 -89.5t-99 -34.5zM363 722q-22 0 -35.5 -13.5t-13.5 -35.5q0 -21 13.5 -34t35.5 -13q23 0 36.5 13t13.5 34q0 22 -13.5 35.5t-36.5 13.5z
M318 513q115 0 166 -44.5t51 -132.5q0 -28 -11 -86l-50 -250h-159l10 50q-60 -63 -158 -63q-76 0 -114 37.5t-38 102.5q0 178 268 178h93q4 21 4 38q0 31 -14.5 45.5t-50.5 14.5q-70 0 -81 -64h-162q15 84 78.5 129t167.5 45zM248 103q48 0 73 25.5t37 84.5h-71
q-49 0 -75 -13t-26 -48q0 -49 62 -49z" />
    <glyph glyph-name="AEacute" unicode="&#x1fc;" horiz-adv-x="846" 
d="M764 914l-129 -142h-155l114 142h170zM856 571h-254l-12 -145h233l-26 -136h-218l-13 -155h203l-27 -135h-356l13 139h-187l-72 -139h-185l388 706h540zM278 265h133l30 311h-2z" />
    <glyph glyph-name="aeacute" unicode="&#x1fd;" horiz-adv-x="882" 
d="M700 727l-129 -157h-144l113 157h160zM839 213h-324v-1q0 -53 17 -79.5t56 -26.5q54 0 73 48h165q-24 -80 -91 -123.5t-158 -43.5q-130 0 -181 90q-75 -90 -209 -90q-172 0 -172 144q0 174 268 174h93q4 21 4 38q0 31 -14.5 45.5t-49.5 14.5q-71 0 -82 -64h-162
q16 85 79.5 129.5t169.5 44.5q109 0 160 -48q67 48 155 48q96 0 153.5 -57t57.5 -162q0 -38 -8 -81zM624 399q-69 0 -96 -94h165v1q0 93 -69 93zM251 103q46 0 71 27t36 84h-71q-49 0 -75 -12.5t-26 -46.5q0 -52 65 -52z" />
    <glyph glyph-name="Oslashacute" unicode="&#x1fe;" horiz-adv-x="752" 
d="M670 914l-129 -142h-155l114 142h170zM850 706l-144 -127q28 -62 28 -145q0 -191 -102 -321.5t-275 -130.5q-155 0 -232 83l-71 -65h-113l144 128q-26 59 -26 144q0 123 43.5 225t131 164.5t202.5 62.5q155 0 230 -83l72 65h112zM433 582q-50 0 -89.5 -27t-63.5 -71
t-36.5 -96.5t-12.5 -107.5q0 -19 1 -28l307 279q-32 51 -106 51zM360 124q64 0 111.5 47t69 114.5t21.5 141.5q0 20 -1 29l-306 -279q32 -53 105 -53z" />
    <glyph glyph-name="oslashacute" unicode="&#x1ff;" horiz-adv-x="588" 
d="M541 727l-129 -157h-144l113 157h160zM610 499l-88 -79q32 -52 32 -125q0 -137 -79.5 -222.5t-216.5 -85.5q-93 0 -150 46l-36 -33h-96l91 82q-32 52 -32 127q0 135 79.5 219.5t215.5 84.5q94 0 150 -45l34 31h96zM313 382q-55 0 -85 -50t-30 -118v-14l171 162
q-18 20 -56 20zM275 119q57 0 86.5 50t29.5 121v13l-172 -163q18 -21 56 -21z" />
    <glyph glyph-name="uni0218" unicode="&#x218;" horiz-adv-x="622" 
d="M281 -18q-132 0 -194.5 56.5t-62.5 154.5q0 15 1 24h184q-2 -16 -2 -22q0 -85 92 -85q48 0 75 21t27 56q0 18 -6.5 32t-24 27t-30.5 20.5t-44.5 23t-47.5 23.5q-74 39 -108 79.5t-34 106.5q0 104 76.5 164.5t200.5 60.5q116 0 176.5 -53.5t60.5 -145.5q0 -17 -1 -26h-172
q2 20 2 28q0 34 -20.5 54t-61.5 20q-42 0 -65.5 -21t-23.5 -55q0 -9 1.5 -16.5t6 -14.5t8 -12t12.5 -11.5t15 -10.5t19.5 -11t21.5 -10.5t26 -12t28 -13.5q89 -42 128.5 -82.5t39.5 -115.5q0 -110 -83.5 -171.5t-219.5 -61.5zM137 -200l68 148h161l-86 -148h-143z" />
    <glyph glyph-name="uni0219" unicode="&#x219;" horiz-adv-x="499" 
d="M217 -17q-104 0 -155.5 38.5t-51.5 108.5q0 16 3 34h155q-3 -13 -3 -26q0 -47 56 -47q29 0 43.5 13t14.5 31q0 24 -20 38.5t-65 32.5q-61 24 -92 56t-31 87q0 77 59.5 120.5t151.5 43.5q94 0 141.5 -34t47.5 -97q0 -8 -2 -28h-149q2 12 2 21q0 40 -47 40q-25 0 -38 -11.5
t-13 -28.5q0 -20 20.5 -34.5t70.5 -34.5q67 -26 99 -59.5t32 -90.5q0 -83 -64 -128t-165 -45zM51 -200l68 148h161l-86 -148h-143z" />
    <glyph glyph-name="uni021A" unicode="&#x21a;" horiz-adv-x="549" 
d="M142 0l114 571h-176l26 135h519l-27 -135h-175l-115 -571h-166zM75 -200l68 148h161l-86 -148h-143z" />
    <glyph glyph-name="uni021B" unicode="&#x21b;" horiz-adv-x="372" 
d="M206 -9q-78 0 -114.5 29t-36.5 95q0 31 9 73l37 187h-63l24 124h64l23 117h157l-23 -117h111l-25 -124h-111l-36 -177q-3 -16 -3 -28q0 -27 13 -39t40 -12q20 0 46 6l-26 -126q-46 -8 -86 -8zM12 -200l68 148h161l-86 -148h-143z" />
    <glyph glyph-name="uni0237" unicode="&#x237;" horiz-adv-x="284" 
d="M-30 -204q-36 0 -76 5l27 134q10 -2 27 -2q53 0 63 55l102 511h157l-110 -549q-16 -81 -61.5 -117.5t-128.5 -36.5z" />
    <glyph glyph-name="uni0259" unicode="&#x259;" horiz-adv-x="582" 
d="M314 512q116 0 174.5 -59t58.5 -161q0 -132 -79.5 -219t-209.5 -87q-102 0 -162.5 56.5t-60.5 161.5q0 39 8 84h344v4q0 101 -84 101q-59 0 -83 -48h-164q25 79 94.5 123t163.5 44zM267 100q77 0 107 96h-185v-3q0 -93 78 -93z" />
    <glyph glyph-name="circumflex" unicode="&#x2c6;" horiz-adv-x="477" 
d="M114 570l132 158h178l67 -158h-133l-36 88l-69 -88h-139z" />
    <glyph glyph-name="caron" unicode="&#x2c7;" horiz-adv-x="477" 
d="M523 728l-132 -158h-178l-67 158h133l36 -88l69 88h139z" />
    <glyph glyph-name="uni02C9" unicode="&#x2c9;" horiz-adv-x="405" 
d="M119 596l20 99h305l-20 -99h-305z" />
    <glyph glyph-name="breve" unicode="&#x2d8;" horiz-adv-x="463" 
d="M305 562q-160 0 -160 143q0 15 1 23h108q-1 -7 -1 -21q0 -57 56 -57q33 0 53.5 18t33.5 60h113q-38 -166 -204 -166z" />
    <glyph glyph-name="dotaccent" unicode="&#x2d9;" horiz-adv-x="274" 
d="M218 570q-37 0 -61.5 23.5t-24.5 58.5t24.5 59t61.5 24q36 0 60.5 -24t24.5 -59t-24.5 -58.5t-60.5 -23.5z" />
    <glyph glyph-name="ring" unicode="&#x2da;" horiz-adv-x="378" 
d="M273 549q-61 0 -98 34.5t-37 89.5q0 56 37 90t98 34q62 0 99.5 -34t37.5 -90q0 -55 -38 -89.5t-99 -34.5zM273 626q23 0 36.5 13t13.5 34q0 22 -13.5 35.5t-36.5 13.5q-22 0 -35.5 -13.5t-13.5 -35.5q0 -21 13.5 -34t35.5 -13z" />
    <glyph glyph-name="ogonek" unicode="&#x2db;" horiz-adv-x="300" 
d="M89 -214q-52 0 -82 22.5t-30 64.5q0 79 115 129l107 -2q-27 -17 -42.5 -27.5t-32.5 -29.5t-17 -36q0 -29 35 -29q21 0 35 5l-17 -88q-34 -9 -71 -9z" />
    <glyph glyph-name="tilde" unicode="&#x2dc;" horiz-adv-x="468" 
d="M380 569q-43 0 -77 27q-40 28 -54 28q-30 0 -42 -53h-93q33 159 133 159q38 0 76 -29q37 -26 54 -26t27 12.5t17 40.5h93q-33 -159 -134 -159z" />
    <glyph glyph-name="hungarumlaut" unicode="&#x2dd;" horiz-adv-x="502" 
d="M114 570l116 158h140l-143 -158h-113zM293 570l115 158h140l-142 -158h-113z" />
    <glyph glyph-name="gravecomb" unicode="&#x300;" 
d="M14 570h-130l-80 157h146z" />
    <glyph glyph-name="acutecomb" unicode="&#x301;" 
d="M-228 570l113 157h160l-129 -157h-144z" />
    <glyph glyph-name="uni0302" unicode="&#x302;" 
d="M-363 570l132 158h178l67 -158h-133l-36 88l-69 -88h-139z" />
    <glyph glyph-name="tildecomb" unicode="&#x303;" 
d="M-88 569q-43 0 -77 27q-40 28 -54 28q-30 0 -42 -53h-93q33 159 133 159q38 0 76 -29q37 -26 54 -26t27 12.5t17 40.5h93q-33 -159 -134 -159z" />
    <glyph glyph-name="uni0304" unicode="&#x304;" 
d="M-286 596l20 99h305l-20 -99h-305z" />
    <glyph glyph-name="uni0306" unicode="&#x306;" 
d="M-158 562q-160 0 -160 143q0 15 1 23h108q-1 -7 -1 -21q0 -57 56 -57q33 0 53.5 18t33.5 60h113q-38 -166 -204 -166z" />
    <glyph glyph-name="uni0307" unicode="&#x307;" 
d="M-56 570q-37 0 -61.5 23.5t-24.5 58.5t24.5 59t61.5 24q36 0 60.5 -24t24.5 -59t-24.5 -58.5t-60.5 -23.5z" />
    <glyph glyph-name="uni0308" unicode="&#x308;" 
d="M-263 569q-35 0 -58 22t-23 55q0 34 23 56.5t58 22.5t58.5 -22.5t23.5 -56.5q0 -33 -23.5 -55t-58.5 -22zM-54 569q-35 0 -58 22t-23 55q0 34 23 56.5t58 22.5t58.5 -22.5t23.5 -56.5q0 -33 -23.5 -55t-58.5 -22z" />
    <glyph glyph-name="uni030A" unicode="&#x30a;" 
d="M-105 549q-61 0 -98 34.5t-37 89.5q0 56 37 90t98 34q62 0 99.5 -34t37.5 -90q0 -55 -38 -89.5t-99 -34.5zM-105 626q23 0 36.5 13t13.5 34q0 22 -13.5 35.5t-36.5 13.5q-22 0 -35.5 -13.5t-13.5 -35.5q0 -21 13.5 -34t35.5 -13z" />
    <glyph glyph-name="uni030B" unicode="&#x30b;" 
d="M-388 570l116 158h140l-143 -158h-113zM-209 570l115 158h140l-142 -158h-113z" />
    <glyph glyph-name="uni030C" unicode="&#x30c;" 
d="M46 728l-132 -158h-178l-67 158h133l36 -88l69 88h139z" />
    <glyph glyph-name="uni0312" unicode="&#x312;" 
d="M44 718l-68 -148h-161l85 148h144z" />
    <glyph glyph-name="uni0326" unicode="&#x326;" 
d="M-339 -200l68 148h161l-86 -148h-143z" />
    <glyph glyph-name="uni0327" unicode="&#x327;" 
d="M-214 -37q41 -5 63.5 -28.5t22.5 -60.5q0 -55 -44 -81.5t-117 -26.5q-61 0 -105 21l30 72q33 -15 73 -15q57 0 57 33q0 30 -63 30h-47l43 98h106z" />
    <glyph glyph-name="uni0328" unicode="&#x328;" 
d="M-211 -214q-52 0 -82 22.5t-30 64.5q0 79 115 129l107 -2q-27 -17 -42.5 -27.5t-32.5 -29.5t-17 -36q0 -29 35 -29q21 0 35 5l-17 -88q-34 -9 -71 -9z" />
    <glyph glyph-name="uni0335" unicode="&#x335;" 
d="M-376 287l20 98h332l-19 -98h-333z" />
    <glyph glyph-name="uni0336" unicode="&#x336;" 
d="M-273 581l19 95h339l-19 -95h-339z" />
    <glyph glyph-name="uni0337" unicode="&#x337;" 
d="M-124 305l27 132l153 94l-25 -130zM-293 233l26 129l154 90l-26 -133z" />
    <glyph glyph-name="uni0338" unicode="&#x338;" 
d="M-624 0l168 151l-1 -4l281 267v2l90 83h96l-168 -151l1 5l-281 -267l1 -2l-91 -84h-96z" />
    <glyph glyph-name="uni0394" unicode="&#x394;" horiz-adv-x="699" 
d="M566 706l78 -706h-689l360 706h251zM202 129h267l-42 453h-2z" />
    <glyph glyph-name="uni0394" unicode="&#x3b4;" horiz-adv-x="699" 
d="M566 706l78 -706h-689l360 706h251zM202 129h267l-42 453h-2z" />
    <glyph glyph-name="uni03A9" unicode="&#x3a9;" horiz-adv-x="726" 
d="M11 0l24 123h138l12 62q-105 61 -105 213q0 149 95.5 237.5t253.5 88.5q148 0 220 -66.5t72 -186.5q0 -108 -55.5 -188t-153.5 -115l-9 -45h139l-25 -123h-265l53 268q68 9 109 68.5t41 134.5q0 127 -132 127q-83 0 -129.5 -56.5t-46.5 -143.5q0 -108 83 -130l-54 -268
h-265z" />
    <glyph glyph-name="uni03A9" unicode="&#x3c9;" horiz-adv-x="726" 
d="M11 0l24 123h138l12 62q-105 61 -105 213q0 149 95.5 237.5t253.5 88.5q148 0 220 -66.5t72 -186.5q0 -108 -55.5 -188t-153.5 -115l-9 -45h139l-25 -123h-265l53 268q68 9 109 68.5t41 134.5q0 127 -132 127q-83 0 -129.5 -56.5t-46.5 -143.5q0 -108 83 -130l-54 -268
h-265z" />
    <glyph glyph-name="uni03BC" unicode="&#x3bc;" horiz-adv-x="595" 
d="M427 499h154l-100 -499h-151l10 50q-55 -63 -134 -63q-30 0 -50 10q-3 -72 -17 -135l-12 -64h-153l139 701h153l-58 -288q-4 -20 -4 -39q0 -30 15 -43.5t47 -13.5q84 0 104 98z" />
    <glyph glyph-name="pi" unicode="&#x3c0;" horiz-adv-x="708" 
d="M543 -9q-78 0 -114.5 29t-36.5 95q0 31 9 73l37 187h-114l-76 -375h-156l75 375h-87l25 124h595l-24 -124h-81l-35 -177q-4 -15 -4 -28q0 -27 13 -39t40 -12q10 0 16 1l-26 -125q-27 -4 -56 -4z" />
    <glyph glyph-name="Wgrave" unicode="&#x1e80;" horiz-adv-x="943" 
d="M670 772h-135l-92 142h150zM859 706h170l-327 -706h-174l-12 476l-202 -476h-170l-48 706h158l24 -467l193 467h174l13 -466z" />
    <glyph glyph-name="wgrave" unicode="&#x1e81;" horiz-adv-x="829" 
d="M550 570h-130l-80 157h146zM691 499h177l-272 -499h-153l-26 286l-134 -286h-151l-71 499h160l22 -295l147 295h130l30 -294z" />
    <glyph glyph-name="Wacute" unicode="&#x1e82;" horiz-adv-x="943" 
d="M767 914l-129 -142h-155l114 142h170zM859 706h170l-327 -706h-174l-12 476l-202 -476h-170l-48 706h158l24 -467l193 467h174l13 -466z" />
    <glyph glyph-name="wacute" unicode="&#x1e83;" horiz-adv-x="829" 
d="M643 727l-129 -157h-144l113 157h160zM691 499h177l-272 -499h-153l-26 286l-134 -286h-151l-71 499h160l22 -295l147 295h130l30 -294z" />
    <glyph glyph-name="Wdieresis" unicode="&#x1e84;" horiz-adv-x="943" 
d="M480 770q-34 0 -56.5 21.5t-22.5 53.5q0 33 22.5 54.5t56.5 21.5t56.5 -21.5t22.5 -54.5q0 -32 -22.5 -53.5t-56.5 -21.5zM702 770q-34 0 -56.5 21.5t-22.5 53.5q0 33 22.5 54.5t56.5 21.5q33 0 56 -21.5t23 -54.5q0 -32 -23 -53.5t-56 -21.5zM859 706h170l-327 -706
h-174l-12 476l-202 -476h-170l-48 706h158l24 -467l193 467h174l13 -466z" />
    <glyph glyph-name="wdieresis" unicode="&#x1e85;" horiz-adv-x="829" 
d="M371 569q-35 0 -58 22t-23 55q0 34 23 56.5t58 22.5t58.5 -22.5t23.5 -56.5q0 -33 -23.5 -55t-58.5 -22zM580 569q-35 0 -58 22t-23 55q0 34 23 56.5t58 22.5t58.5 -22.5t23.5 -56.5q0 -33 -23.5 -55t-58.5 -22zM691 499h177l-272 -499h-153l-26 286l-134 -286h-151
l-71 499h160l22 -295l147 295h130l30 -294z" />
    <glyph glyph-name="uni1E9E" unicode="&#x1e9e;" horiz-adv-x="684" 
d="M727 706l-1 -5l-176 -298q98 -43 98 -158q0 -112 -83.5 -180.5t-215.5 -68.5q-49 0 -94 8l28 136q20 -4 55 -4q70 0 105.5 29t35.5 80q0 40 -29.5 63.5t-84.5 23.5q-13 0 -20 -1v3l137 233h-175l-114 -567h-166l141 706h559z" />
    <glyph glyph-name="Ygrave" unicode="&#x1ef2;" horiz-adv-x="612" 
d="M485 772h-135l-92 142h150zM173 0l61 303l-138 403h165l83 -241l162 241h192l-298 -403l-61 -303h-166z" />
    <glyph glyph-name="ygrave" unicode="&#x1ef3;" horiz-adv-x="559" 
d="M419 570h-130l-80 157h146zM421 499h176l-410 -699h-168l118 202l-76 497h158l38 -319z" />
    <glyph glyph-name="uni2009" unicode="&#x2009;" horiz-adv-x="74" 
 />
    <glyph glyph-name="uni2011" unicode="&#x2011;" horiz-adv-x="600" 
d="M51 228l27 132h298l-27 -132h-298z" />
    <glyph glyph-name="endash" unicode="&#x2013;" horiz-adv-x="502" 
d="M52 230l27 132h389l-26 -132h-390z" />
    <glyph glyph-name="emdash" unicode="&#x2014;" horiz-adv-x="970" 
d="M52 230l27 132h857l-26 -132h-858z" />
    <glyph glyph-name="quoteleft" unicode="&#x2018;" horiz-adv-x="303" 
d="M358 706l-118 -282h-169l161 282h126z" />
    <glyph glyph-name="quoteright" unicode="&#x2019;" horiz-adv-x="303" 
d="M71 424l118 282h169l-160 -282h-127z" />
    <glyph glyph-name="quotesinglbase" unicode="&#x201a;" horiz-adv-x="303" 
d="M-41 -136l118 282h169l-160 -282h-127z" />
    <glyph glyph-name="quotedblleft" unicode="&#x201c;" horiz-adv-x="530" 
d="M358 706l-118 -282h-169l161 282h126zM585 706l-118 -282h-169l160 282h127z" />
    <glyph glyph-name="quotedblright" unicode="&#x201d;" horiz-adv-x="530" 
d="M71 424l118 282h169l-160 -282h-127zM298 424l118 282h169l-160 -282h-127z" />
    <glyph glyph-name="quotedblbase" unicode="&#x201e;" horiz-adv-x="530" 
d="M-41 -136l118 282h169l-160 -282h-127zM186 -136l118 282h169l-160 -282h-127z" />
    <glyph glyph-name="dagger" unicode="&#x2020;" horiz-adv-x="445" 
d="M473 555l-28 -141h-109l-83 -414h-161l83 414h-110l29 141h109l30 151h161l-30 -151h109z" />
    <glyph glyph-name="daggerdbl" unicode="&#x2021;" horiz-adv-x="445" 
d="M447 428h-109l-29 -150h109l-29 -141h-109l-27 -137h-161l27 137h-109l28 141h110l29 150h-109l29 141h109l27 137h161l-27 -137h109z" />
    <glyph glyph-name="bullet" unicode="&#x2022;" horiz-adv-x="465" 
d="M256 212q-66 0 -107 41t-41 107q0 67 40 106.5t108 39.5q65 0 105.5 -39.5t40.5 -106.5q0 -66 -40.5 -107t-105.5 -41z" />
    <glyph glyph-name="ellipsis" unicode="&#x2026;" horiz-adv-x="901" 
d="M129 -18q-44 0 -71.5 27t-27.5 70q0 42 28 69t71 27t70.5 -27t27.5 -69q0 -43 -27.5 -70t-70.5 -27zM416 -18q-44 0 -71.5 27t-27.5 70q0 42 28 69t71 27t70.5 -27t27.5 -69q0 -43 -27.5 -70t-70.5 -27zM704 -18q-43 0 -70.5 27t-27.5 70q0 42 27.5 69t70.5 27t70.5 -27
t27.5 -69q0 -43 -27.5 -70t-70.5 -27z" />
    <glyph glyph-name="perthousand" unicode="&#x2030;" horiz-adv-x="1148" 
d="M225 389q-65 0 -97.5 36t-32.5 100q0 84 44.5 137t125.5 53q66 0 97.5 -36.5t31.5 -99.5q0 -84 -44 -137t-125 -53zM47 0l605 706h122l-605 -706h-122zM234 476q31 0 45 28.5t14 67.5q0 56 -37 56q-31 0 -45.5 -28.5t-14.5 -68.5q0 -55 38 -55zM557 -8q-66 0 -98.5 36.5
t-32.5 100.5q0 83 45 136t126 53q66 0 97.5 -36t31.5 -99q0 -84 -44 -137.5t-125 -53.5zM926 -8q-66 0 -98.5 36.5t-32.5 100.5q0 83 45 136t126 53q66 0 97.5 -36t31.5 -99q0 -84 -44 -137.5t-125 -53.5zM566 80q31 0 45 28t14 68q0 56 -37 56q-30 0 -45 -29t-15 -68
q0 -55 38 -55zM935 80q31 0 45 28t14 68q0 56 -37 56q-30 0 -45 -29t-15 -68q0 -55 38 -55z" />
    <glyph glyph-name="guilsinglleft" unicode="&#x2039;" horiz-adv-x="343" 
d="M143 124l-113 170l171 160h169l-182 -169l108 -161h-153z" />
    <glyph glyph-name="guilsinglright" unicode="&#x203a;" horiz-adv-x="343" 
d="M215 454l113 -170l-171 -160h-169l182 170l-108 160h153z" />
    <glyph glyph-name="fraction" unicode="&#x2044;" horiz-adv-x="226" 
d="M-196 0l548 706h111l-549 -706h-110z" />
    <glyph glyph-name="uni2070" unicode="&#x2070;" horiz-adv-x="441" 
d="M277 427q-83 0 -122.5 43t-39.5 119q0 31 7 69q17 83 66 131t131 48t121.5 -43t39.5 -119q0 -31 -7 -69q-15 -82 -64.5 -130.5t-131.5 -48.5zM282 533q47 0 65 85q6 30 6 56q0 30 -8.5 43.5t-30.5 13.5q-48 0 -65 -85q-6 -30 -6 -56q0 -30 8.5 -43.5t30.5 -13.5z" />
    <glyph glyph-name="uni2074" unicode="&#x2074;" horiz-adv-x="430" 
d="M277 438l14 69h-236v2l200 317h218l-44 -218h58l-19 -101h-59l-14 -69h-118zM245 608h66l36 179z" />
    <glyph glyph-name="uni2075" unicode="&#x2075;" horiz-adv-x="394" 
d="M248 427q-79 0 -119 32.5t-40 92.5q0 12 2 26l118 -1q-1 -7 -1 -14q0 -43 46 -43q24 0 37.5 13t13.5 33q0 57 -110 57q-42 0 -77 -5l79 208h267l-34 -89h-152l-17 -45q15 3 35 3q69 0 102.5 -32.5t33.5 -88.5q0 -69 -50.5 -108t-133.5 -39z" />
    <glyph glyph-name="uni2076" unicode="&#x2076;" horiz-adv-x="431" 
d="M338 692q62 0 94.5 -31t32.5 -83q0 -68 -53.5 -109.5t-132.5 -41.5q-170 0 -170 159q0 111 59.5 181t163.5 70q74 0 113 -34.5t40 -88.5h-115q-6 34 -47 34q-64 0 -84 -86q41 30 99 30zM279 517q25 0 40 14.5t15 37.5q0 39 -44 39q-25 0 -40 -15t-15 -37q0 -39 44 -39z
" />
    <glyph glyph-name="uni2077" unicode="&#x2077;" horiz-adv-x="378" 
d="M85 438l178 280h-146l21 108h343l-248 -388h-148z" />
    <glyph glyph-name="uni2078" unicode="&#x2078;" horiz-adv-x="396" 
d="M460 734q0 -34 -24 -60t-62 -32q56 -21 56 -85q0 -63 -49.5 -96.5t-126.5 -33.5q-80 0 -124 30.5t-44 88.5q0 43 26 71.5t73 32.5q-54 22 -54 79q0 49 46.5 78.5t118.5 29.5q75 0 119.5 -27.5t44.5 -75.5zM295 761q-47 0 -47 -45q0 -32 42 -32q23 0 35.5 12t12.5 31
q0 34 -43 34zM256 514q25 0 39.5 13t14.5 36q0 36 -47 36q-24 0 -38 -12.5t-14 -35.5q0 -37 45 -37z" />
    <glyph glyph-name="uni2079" unicode="&#x2079;" horiz-adv-x="431" 
d="M328 837q170 0 170 -159q0 -111 -59.5 -181t-163.5 -70q-74 0 -113 34.5t-40 88.5h115q6 -34 47 -34q64 0 84 86q-41 -30 -99 -30q-62 0 -94.5 31t-32.5 83q0 68 53.5 109.5t132.5 41.5zM317 656q25 0 40 15t15 37q0 39 -44 39q-26 0 -40.5 -14.5t-14.5 -37.5
q0 -39 44 -39z" />
    <glyph glyph-name="uni207A" unicode="&#x207a;" horiz-adv-x="361" 
d="M412 676l-17 -86h-104l-19 -95h-86l19 95h-103l18 86h103l19 95h86l-19 -95h103z" />
    <glyph glyph-name="uni207B" unicode="&#x207b;" horiz-adv-x="361" 
d="M102 590l18 86h292l-17 -86h-293z" />
    <glyph glyph-name="uni207C" unicode="&#x207c;" horiz-adv-x="359" 
d="M115 652l15 73h290l-15 -73h-290zM92 541l16 75h290l-16 -75h-290z" />
    <glyph glyph-name="uni207D" unicode="&#x207d;" horiz-adv-x="270" 
d="M171 358q-36 106 -36 201q0 179 135 348h108q-151 -181 -151 -362q0 -93 32 -187h-88z" />
    <glyph glyph-name="uni207E" unicode="&#x207e;" horiz-adv-x="270" 
d="M252 907q37 -109 37 -201q0 -98 -34.5 -181t-101.5 -167h-107q150 181 150 362q0 93 -32 187h88z" />
    <glyph glyph-name="uni207F" unicode="&#x207f;" horiz-adv-x="402" 
d="M344 752q44 0 67.5 -25.5t23.5 -72.5q0 -16 -4 -36l-35 -180h-117l33 163q2 12 2 17q0 34 -34 34t-42 -40l-35 -174h-118l61 305h113l-6 -30q41 39 91 39z" />
    <glyph glyph-name="uni2080" unicode="&#x2080;" horiz-adv-x="441" 
d="M165 -131q-83 0 -122.5 43t-39.5 119q0 31 7 69q17 83 66 131t131 48t121.5 -43t39.5 -119q0 -31 -7 -69q-15 -82 -64.5 -130.5t-131.5 -48.5zM170 -25q47 0 65 85q6 30 6 56q0 30 -8.5 43.5t-30.5 13.5q-48 0 -65 -85q-6 -30 -6 -56q0 -30 8.5 -43.5t30.5 -13.5z" />
    <glyph glyph-name="uni2081" unicode="&#x2081;" horiz-adv-x="291" 
d="M18 -120l55 278h-69l42 110h175l-78 -388h-125z" />
    <glyph glyph-name="uni2082" unicode="&#x2082;" horiz-adv-x="388" 
d="M-59 -120l1 6l218 191q33 29 45.5 44.5t12.5 30.5q0 32 -40 32q-44 0 -53 -49h-120q12 66 57 105t120 39q156 0 156 -114q0 -59 -55 -105q-42 -35 -90 -72h117l-22 -108h-347z" />
    <glyph glyph-name="uni2083" unicode="&#x2083;" horiz-adv-x="377" 
d="M244 75q55 -17 55 -76q0 -62 -49 -96t-130 -34q-151 0 -151 122q0 15 3 35l110 -1q-3 -9 -3 -18q0 -45 45 -45q25 0 39 12.5t14 33.5q0 33 -45 33h-17l15 75h17q55 0 55 38q0 14 -10 23t-29 9q-42 0 -50 -47h-113q14 68 59.5 104t120.5 36q69 0 106.5 -28.5t37.5 -78.5
q0 -70 -80 -97z" />
    <glyph glyph-name="uni2084" unicode="&#x2084;" horiz-adv-x="430" 
d="M165 -120l14 69h-236v2l200 317h218l-44 -218h58l-19 -101h-59l-14 -69h-118zM133 50h66l36 179z" />
    <glyph glyph-name="uni2085" unicode="&#x2085;" horiz-adv-x="394" 
d="M136 -131q-79 0 -119 32.5t-40 91.5q0 13 2 27l118 -1q-1 -7 -1 -14q0 -43 46 -43q24 0 37.5 13t13.5 33q0 57 -110 57q-41 0 -78 -5l80 208h267l-34 -89h-152l-17 -45q15 3 35 3q69 0 102.5 -32.5t33.5 -88.5q0 -69 -50.5 -108t-133.5 -39z" />
    <glyph glyph-name="uni2086" unicode="&#x2086;" horiz-adv-x="431" 
d="M226 134q62 0 94.5 -31t32.5 -83q0 -68 -53.5 -109.5t-132.5 -41.5q-170 0 -170 159q0 111 59.5 181t163.5 70q74 0 113 -34.5t40 -88.5h-115q-6 34 -47 34q-64 0 -84 -86q41 30 99 30zM167 -41q25 0 40 14.5t15 37.5q0 39 -44 39q-25 0 -40 -15t-15 -37q0 -39 44 -39z
" />
    <glyph glyph-name="uni2087" unicode="&#x2087;" horiz-adv-x="378" 
d="M-27 -120l178 280h-146l21 108h343l-248 -388h-148z" />
    <glyph glyph-name="uni2088" unicode="&#x2088;" horiz-adv-x="396" 
d="M348 176q0 -34 -24 -60t-62 -32q56 -21 56 -85q0 -63 -49.5 -96.5t-126.5 -33.5q-80 0 -124 30.5t-44 88.5q0 43 26 71.5t73 32.5q-54 22 -54 79q0 49 46.5 78.5t118.5 29.5q75 0 119.5 -27.5t44.5 -75.5zM183 203q-47 0 -47 -45q0 -32 42 -32q23 0 35.5 12t12.5 31
q0 34 -43 34zM144 -44q25 0 39.5 13t14.5 36q0 36 -47 36q-24 0 -38 -12.5t-14 -35.5q0 -37 45 -37z" />
    <glyph glyph-name="uni2089" unicode="&#x2089;" horiz-adv-x="431" 
d="M216 279q170 0 170 -159q0 -111 -59.5 -181t-163.5 -70q-74 0 -112.5 34.5t-39.5 88.5h114q6 -34 48 -34q64 0 84 87q-40 -31 -99 -31q-62 0 -94.5 31t-32.5 83q0 68 53 109.5t132 41.5zM206 98q25 0 39.5 15t14.5 37q0 39 -44 39q-25 0 -40 -15t-15 -37q0 -39 45 -39z
" />
    <glyph glyph-name="uni208A" unicode="&#x208a;" horiz-adv-x="360" 
d="M300 118l-17 -86h-104l-19 -95h-86l19 95h-103l18 86h103l19 95h86l-19 -95h103z" />
    <glyph glyph-name="uni208B" unicode="&#x208b;" horiz-adv-x="360" 
d="M-10 32l18 86h292l-17 -86h-293z" />
    <glyph glyph-name="uni208C" unicode="&#x208c;" horiz-adv-x="358" 
d="M3 94l15 73h290l-15 -73h-290zM-20 -17l16 75h290l-16 -75h-290z" />
    <glyph glyph-name="uni208D" unicode="&#x208d;" horiz-adv-x="269" 
d="M59 -200q-36 106 -36 201q0 179 135 348h108q-151 -181 -151 -362q0 -93 32 -187h-88z" />
    <glyph glyph-name="uni208E" unicode="&#x208e;" horiz-adv-x="270" 
d="M140 349q37 -109 37 -201q0 -98 -34.5 -181t-101.5 -167h-107q150 181 150 362q0 93 -32 187h88z" />
    <glyph glyph-name="uni2099" unicode="&#x2099;" horiz-adv-x="402" 
d="M225 157q44 0 68 -25t24 -72q0 -12 -5 -37l-35 -180h-117l33 163q2 12 2 18q0 34 -34 34t-42 -41l-35 -174h-117l60 305h113l-6 -30q41 39 91 39z" />
    <glyph glyph-name="Euro" unicode="&#x20ac;" horiz-adv-x="757" 
d="M752 438h-170q1 8 1 16q0 61 -30 94.5t-87 33.5q-107 0 -163 -121h199l-14 -73h-208q-7 -28 -10 -64h205l-15 -72h-191q6 -60 37.5 -93.5t87.5 -33.5q111 0 144 127h182q-24 -123 -114.5 -196.5t-218.5 -73.5q-145 0 -215 72.5t-76 197.5h-62l15 72h48q3 32 9 64h-44
l14 73h50q43 120 137 191.5t220 71.5t199 -68t73 -182q0 -16 -3 -36z" />
    <glyph glyph-name="uni20B9" unicode="&#x20b9;" horiz-adv-x="680" 
d="M738 628h-192q40 -43 46 -119h123l-16 -79h-110q-14 -80 -73.5 -127.5t-157.5 -51.5l178 -251h-181l-237 348h188q97 0 121 82h-329l16 79h319q-9 76 -93 76h-211l24 121h601z" />
    <glyph glyph-name="uni20BA" unicode="&#x20ba;" horiz-adv-x="620" 
d="M456 308h155q-16 -78 -39 -132.5t-61.5 -95.5t-96.5 -60.5t-138 -19.5h-221l49 244l-78 -32l18 89l78 33l16 80l-78 -33l18 89l77 33l41 203h164l-27 -138l185 78l-17 -88l-186 -78l-16 -80l186 78l-18 -90l-186 -78l-34 -172h29q145 0 180 170z" />
    <glyph glyph-name="uni20BC" unicode="&#x20bc;" horiz-adv-x="838" 
d="M580 607q53 -6 92.5 -23.5t62.5 -44.5t35.5 -62t12 -75.5t-8.5 -86.5l-63 -315h-156l69 347q9 47 -8.5 85t-61.5 46l-95 -478h-167l96 479q-100 -2 -122 -117l-71 -362h-166l74 385q21 107 100.5 165.5t210.5 58.5l19 97h167z" />
    <glyph glyph-name="uni2113" unicode="&#x2113;" horiz-adv-x="506" 
d="M355 715q91 0 132 -40t41 -125q0 -44 -10 -92q-23 -113 -96.5 -176.5t-200.5 -88.5q1 -41 25 -58t75 -17q46 0 94 15l-25 -129q-51 -13 -111 -13q-220 0 -220 186q-17 -1 -52 -1l22 111q32 0 46 1l41 201q24 120 80.5 173t158.5 53zM361 463q10 50 10 86q0 32 -8 44.5
t-25 12.5q-21 0 -34.5 -17.5t-22.5 -62.5l-42 -213q51 20 80.5 55.5t41.5 94.5z" />
    <glyph glyph-name="uni2117" unicode="&#x2117;" horiz-adv-x="808" 
d="M392 -18q-159 0 -243.5 93.5t-84.5 237.5q0 171 112 291t282 120q158 0 243.5 -90.5t85.5 -231.5q0 -176 -112 -298t-283 -122zM393 46q143 0 233 104.5t90 253.5q0 115 -66.5 185.5t-191.5 70.5q-144 0 -234.5 -101.5t-90.5 -246.5q0 -117 67.5 -191.5t192.5 -74.5z
M221 121l94 466h185q65 0 101.5 -33.5t36.5 -100.5q0 -74 -44.5 -119.5t-121.5 -45.5h-87l-34 -167h-130zM404 385h44q29 0 43 17t14 44q0 43 -46 43h-34z" />
    <glyph glyph-name="trademark" unicode="&#x2122;" horiz-adv-x="694" 
d="M101 396l45 226h-63l17 84h225l-16 -84h-62l-45 -226h-101zM296 396l62 310h113l38 -171l107 171h123l-62 -310h-96l35 171l-108 -171h-43l-40 171l-34 -171h-95z" />
    <glyph glyph-name="uni2126" unicode="&#x2126;" horiz-adv-x="726" 
d="M11 0l24 123h138l12 62q-105 61 -105 213q0 149 95.5 237.5t253.5 88.5q148 0 220 -66.5t72 -186.5q0 -108 -55.5 -188t-153.5 -115l-9 -45h139l-25 -123h-265l53 268q68 9 109 68.5t41 134.5q0 127 -132 127q-83 0 -129.5 -56.5t-46.5 -143.5q0 -108 83 -130l-54 -268
h-265z" />
    <glyph glyph-name="estimated" unicode="&#x212e;" horiz-adv-x="858" 
d="M435 -11q-100 0 -186 42.5t-139.5 121.5t-53.5 177q0 145 110.5 243t268.5 98q156 0 267 -99.5t111 -247.5h-608q-10 0 -10 -11v-197q47 -51 110 -78.5t130 -27.5q73 0 139 32.5t113 88.5h57q-56 -68 -138 -105t-171 -37zM205 347h461q9 0 9 11v184q-44 51 -108 79.5
t-132 28.5q-70 0 -133 -28.5t-107 -78.5v-185q0 -11 10 -11z" />
    <glyph glyph-name="partialdiff" unicode="&#x2202;" horiz-adv-x="631" 
d="M376 724q258 0 258 -280q0 -126 -43 -230t-126.5 -168t-192.5 -64q-127 0 -190.5 59.5t-63.5 159.5q0 116 71 191t186 75q143 0 186 -102q9 42 9 81q0 151 -106 151q-80 0 -110 -79h-160q32 97 106 151.5t176 54.5zM284 114q58 0 93.5 38t35.5 93q0 49 -24 77t-72 28
q-59 0 -93.5 -39.5t-34.5 -97.5q0 -46 23.5 -72.5t71.5 -26.5z" />
    <glyph glyph-name="uni2206" unicode="&#x2206;" horiz-adv-x="699" 
d="M566 706l78 -706h-689l360 706h251zM202 129h267l-42 453h-2z" />
    <glyph glyph-name="product" unicode="&#x220f;" horiz-adv-x="742" 
d="M-13 -201l181 907h588l-181 -907h-167l154 769h-255l-154 -769h-166z" />
    <glyph glyph-name="summation" unicode="&#x2211;" horiz-adv-x="620" 
d="M-58 -200l321 472l-134 434h481l-27 -137h-234l91 -317l-206 -315h241l-27 -137h-506z" />
    <glyph glyph-name="minus" unicode="&#x2212;" horiz-adv-x="593" 
d="M52 233l25 122h481l-24 -122h-482z" />
    <glyph glyph-name="uni2215" unicode="&#x2215;" horiz-adv-x="593" 
d="M81 0l425 706h152l-425 -706h-152z" />
    <glyph glyph-name="uni2219" unicode="&#x2219;" horiz-adv-x="593" 
d="M321 272q-43 0 -71 27t-28 69t28 69.5t71 27.5t70.5 -27.5t27.5 -69.5t-27.5 -69t-70.5 -27z" />
    <glyph glyph-name="radical" unicode="&#x221a;" horiz-adv-x="741" 
d="M644 706h183l-475 -908h-175l-74 432l-103 -29l31 156l215 53l51 -403z" />
    <glyph glyph-name="infinity" unicode="&#x221e;" horiz-adv-x="830" 
d="M624 466q85 0 128 -52t43 -137q0 -100 -64.5 -172t-162.5 -72q-110 0 -167 105q-92 -105 -195 -105q-86 0 -128.5 52t-42.5 137q0 99 64.5 171.5t162.5 72.5q109 0 170 -104q91 104 192 104zM234 170q50 0 112 85q-17 37 -35.5 55t-47.5 18q-37 0 -59 -28t-22 -65
q0 -30 13.5 -47.5t38.5 -17.5zM571 170q35 0 56 29.5t21 64.5q0 64 -52 64q-50 0 -108 -83q17 -37 35.5 -56t47.5 -19z" />
    <glyph glyph-name="integral" unicode="&#x222b;" horiz-adv-x="399" 
d="M2 -207q-53 0 -92 8l51 131q9 -1 22 -1q58 0 73 56l157 566q23 81 71 120t130 39q39 0 76 -8l-54 -135q-6 2 -15 2q-45 0 -60 -54l-158 -566q-23 -82 -70.5 -120t-130.5 -38z" />
    <glyph glyph-name="approxequal" unicode="&#x2248;" horiz-adv-x="593" 
d="M405 310q-9 0 -17 1t-16 3.5t-14 4t-14 5.5t-11.5 6t-12 6.5t-10.5 5.5q-37 22 -59 22q-36 0 -52 -52h-108q42 166 153 166q41 0 96 -32q35 -21 58 -21q39 0 51 50h110q-22 -83 -59 -124t-95 -41zM365 110q-36 0 -95 32q-38 21 -59 21q-37 0 -52 -51h-108q42 165 154 165
q42 0 96 -31q37 -22 57 -22q39 0 51 51h110q-22 -83 -58.5 -124t-95.5 -41z" />
    <glyph glyph-name="notequal" unicode="&#x2260;" horiz-adv-x="593" 
d="M554 333h-158l-67 -78h209l-24 -122h-276l-87 -102h-91l86 102h-114l25 122h180l67 78h-232l25 122h299l86 102h92l-86 -102h90z" />
    <glyph glyph-name="lessequal" unicode="&#x2264;" horiz-adv-x="593" 
d="M599 556l-26 -126l-402 -64l377 -64l-26 -125l-462 94l20 95l18 95zM13 32l24 124h481l-24 -124h-481z" />
    <glyph glyph-name="greaterequal" unicode="&#x2265;" horiz-adv-x="593" 
d="M580 461l-20 -95l-18 -95l-500 -94l24 125l403 64l-377 64l25 126zM12 32l25 124h482l-26 -124h-481z" />
    <glyph glyph-name="lozenge" unicode="&#x25ca;" horiz-adv-x="574" 
d="M469 706l86 -453l-267 -454h-181l-86 454l267 453h181zM219 -45l182 325l-44 269l-180 -323z" />
    <glyph glyph-name="uniFB00" unicode="&#xfb00;" horiz-adv-x="718" 
d="M24 0l75 375h-57l24 124h58l13 68q16 81 65 118.5t137 37.5q49 0 92 -10l-26 -125q-21 7 -43 7q-63 0 -75 -65l-6 -31h104l-25 -124h-104l-75 -375h-157zM388 0l75 375h-57l24 124h58l13 68q16 81 65 118.5t137 37.5q49 0 92 -10l-26 -125q-21 7 -43 7q-63 0 -75 -65
l-6 -31h104l-25 -124h-104l-75 -375h-157z" />
    <glyph glyph-name="fi" unicode="&#xfb01;" horiz-adv-x="638" 
d="M577 570q-37 0 -61.5 23.5t-24.5 58.5t24.5 59t61.5 24q36 0 61 -24t25 -59q0 -34 -25 -58t-61 -24zM24 0l75 375h-57l24 124h58l13 68q16 81 65 118.5t137 37.5q49 0 92 -10l-26 -125q-21 7 -43 7q-63 0 -75 -65l-6 -31h104l-25 -124h-104l-75 -375h-157zM368 0l99 499
h157l-100 -499h-156z" />
    <glyph glyph-name="fl" unicode="&#xfb02;" horiz-adv-x="638" 
d="M24 0l75 375h-57l24 124h58l13 68q16 81 65 118.5t137 37.5q49 0 92 -10l-26 -125q-21 7 -43 7q-63 0 -75 -65l-6 -31h104l-25 -124h-104l-75 -375h-157zM368 0l141 706h156l-141 -706h-156z" />
    <glyph glyph-name="uniFB03" unicode="&#xfb03;" horiz-adv-x="1002" 
d="M941 570q-37 0 -61.5 23.5t-24.5 58.5t24.5 59t61.5 24q36 0 61 -24t25 -59q0 -34 -25 -58t-61 -24zM24 0l75 375h-57l24 124h58l13 68q16 81 65 118.5t137 37.5q49 0 92 -10l-26 -125q-21 7 -43 7q-63 0 -75 -65l-6 -31h104l-25 -124h-104l-75 -375h-157zM388 0l75 375
h-57l24 124h58l13 68q16 81 65 118.5t137 37.5q49 0 92 -10l-26 -125q-21 7 -43 7q-63 0 -75 -65l-6 -31h104l-25 -124h-104l-75 -375h-157zM732 0l99 499h157l-100 -499h-156z" />
    <glyph glyph-name="uniFB04" unicode="&#xfb04;" horiz-adv-x="1002" 
d="M24 0l75 375h-57l24 124h58l13 68q16 81 65 118.5t137 37.5q49 0 92 -10l-26 -125q-21 7 -43 7q-63 0 -75 -65l-6 -31h104l-25 -124h-104l-75 -375h-157zM388 0l75 375h-57l24 124h58l13 68q16 81 65 118.5t137 37.5q49 0 92 -10l-26 -125q-21 7 -43 7q-63 0 -75 -65
l-6 -31h104l-25 -124h-104l-75 -375h-157zM732 0l141 706h156l-141 -706h-156z" />
    <glyph glyph-name="uniFEFF" unicode="&#xfeff;" 
 />
    <glyph glyph-name="uni00A40301" horiz-adv-x="384" 
d="M250 772l114 142h170l-129 -142h-155zM36 -3q-40 0 -70 5l30 149q14 -3 37 -3q57 0 84.5 24.5t39.5 87.5l90 446h166l-97 -488q-23 -113 -90 -167t-190 -54z" />
    <glyph glyph-name="M.ss01" horiz-adv-x="860" 
d="M27 0l141 706h191l99 -260l199 260h218l-141 -706h-162l101 506l-209 -271h-71l-104 271l-101 -506h-161z" />
    <glyph glyph-name="Q.ss02" horiz-adv-x="752" 
d="M734 434q0 -143 -59.5 -257t-166.5 -163l42 -122l-153 -51l-41 141q-154 1 -225.5 78t-71.5 212q0 123 43.5 225t131 164.5t202.5 62.5q153 0 225.5 -78.5t72.5 -211.5zM360 124q64 0 111.5 47t69 114.5t21.5 141.5q0 155 -129 155q-50 0 -89.5 -27t-63.5 -71
t-36.5 -96.5t-12.5 -107.5q0 -71 31.5 -113.5t97.5 -42.5z" />
    <glyph glyph-name="Oslash.ss04" horiz-adv-x="752" 
d="M824 699l-119 -118q29 -62 29 -147q0 -191 -102 -321.5t-275 -130.5q-109 0 -180 41l-109 -113l-100 96l119 118q-28 62 -28 148q0 123 43.5 225t131 164.5t202.5 62.5q109 0 179 -42l109 113zM360 124q64 0 111.5 47t69 114.5t21.5 141.5q0 155 -129 155
q-50 0 -89.5 -27t-63.5 -71t-36.5 -96.5t-12.5 -107.5q0 -71 31.5 -113.5t97.5 -42.5z" />
    <glyph glyph-name="i.loclTRK" horiz-adv-x="284" 
d="M223 570q-37 0 -61.5 23.5t-24.5 58.5t24.5 59t61.5 24q36 0 60.5 -24t24.5 -59t-24.5 -58.5t-60.5 -23.5zM14 0l99 499h157l-100 -499h-156z" />
    <glyph glyph-name="uni006A0301" horiz-adv-x="284" 
d="M120 570l93 157h163l-114 -157h-142zM-30 -204q-36 0 -76 5l27 134q10 -2 27 -2q53 0 63 55l102 511h157l-110 -549q-16 -81 -61.5 -117.5t-128.5 -36.5z" />
    <glyph glyph-name="oslash.ss04" horiz-adv-x="588" 
d="M599 498l-74 -83q29 -51 29 -120q0 -137 -79.5 -222.5t-216.5 -85.5q-57 0 -100 17l-70 -86l-100 83l76 85q-29 52 -29 123q0 135 79.5 219.5t215.5 84.5q57 0 100 -17l69 84zM275 119q57 0 86.5 50t29.5 121q0 92 -78 92q-55 0 -85 -50t-30 -118q0 -95 77 -95z" />
    <glyph glyph-name="f_i" horiz-adv-x="638" 
d="M577 570q-37 0 -61.5 23.5t-24.5 58.5t24.5 59t61.5 24q36 0 61 -24t25 -59q0 -34 -25 -58t-61 -24zM24 0l75 375h-57l24 124h58l13 68q16 81 65 118.5t137 37.5q49 0 92 -10l-26 -125q-21 7 -43 7q-63 0 -75 -65l-6 -31h104l-25 -124h-104l-75 -375h-157zM368 0l99 499
h157l-100 -499h-156z" />
    <glyph glyph-name="f_l" horiz-adv-x="638" 
d="M24 0l75 375h-57l24 124h58l13 68q16 81 65 118.5t137 37.5q49 0 92 -10l-26 -125q-21 7 -43 7q-63 0 -75 -65l-6 -31h104l-25 -124h-104l-75 -375h-157zM368 0l141 706h156l-141 -706h-156z" />
    <glyph glyph-name="a.sc" horiz-adv-x="623" 
d="M409 0l-10 101h-219l-50 -101h-175l303 590h243l67 -590h-159zM241 224h147l-24 245h-2z" />
    <glyph glyph-name="aacute.sc" horiz-adv-x="623" 
d="M576 817l-129 -157h-144l113 157h160zM258 590h243l67 -590h-159l-10 101h-219l-50 -101h-175zM241 224h147l-24 245h-2z" />
    <glyph glyph-name="abreve.sc" horiz-adv-x="623" 
d="M403 652q-160 0 -160 143q0 15 1 23h108q-1 -7 -1 -21q0 -57 56 -57q33 0 53.5 18t33.5 60h113q-38 -166 -204 -166zM258 590h243l67 -590h-159l-10 101h-219l-50 -101h-175zM241 224h147l-24 245h-2z" />
    <glyph glyph-name="acircumflex.sc" horiz-adv-x="623" 
d="M411 748l-69 -88h-139l132 158h178l67 -158h-133zM258 590h243l67 -590h-159l-10 101h-219l-50 -101h-175zM241 224h147l-24 245h-2z" />
    <glyph glyph-name="adieresis.sc" horiz-adv-x="623" 
d="M304 659q-35 0 -58 22t-23 55q0 34 23 56.5t58 22.5t58.5 -22.5t23.5 -56.5q0 -33 -23.5 -55t-58.5 -22zM513 815q35 0 58.5 -22.5t23.5 -56.5q0 -33 -23.5 -55t-58.5 -22t-58 22t-23 55q0 34 23 56.5t58 22.5zM258 590h243l67 -590h-159l-10 101h-219l-50 -101h-175z
M241 224h147l-24 245h-2z" />
    <glyph glyph-name="agrave.sc" horiz-adv-x="623" 
d="M483 660h-130l-80 157h146zM409 0l-10 101h-219l-50 -101h-175l303 590h243l67 -590h-159zM241 224h147l-24 245h-2z" />
    <glyph glyph-name="amacron.sc" horiz-adv-x="623" 
d="M571 785l-20 -99h-305l20 99h305zM258 590h243l67 -590h-159l-10 101h-219l-50 -101h-175zM241 224h147l-24 245h-2z" />
    <glyph glyph-name="aogonek.sc" horiz-adv-x="623" 
d="M476 -93q0 -29 35 -29q21 0 35 5l-17 -88q-35 -9 -71 -9q-52 0 -82 22.5t-30 64.5q0 77 110 127h-47l-10 101h-219l-50 -101h-175l303 590h243l67 -590q-27 -17 -42.5 -27.5t-32.5 -29.5t-17 -36zM241 224h147l-24 245h-2z" />
    <glyph glyph-name="aring.sc" horiz-adv-x="623" 
d="M404 639q-61 0 -98 34.5t-37 89.5q0 56 37 90t98 34q62 0 99.5 -34t37.5 -90q0 -55 -38 -89.5t-99 -34.5zM404 812q-22 0 -35.5 -13.5t-13.5 -35.5q0 -21 13.5 -34t35.5 -13q23 0 36.5 13t13.5 34q0 22 -13.5 35.5t-36.5 13.5zM409 0l-10 101h-219l-50 -101h-175l303 590
h243l67 -590h-159zM241 224h147l-24 245h-2z" />
    <glyph glyph-name="aringacute.sc" horiz-adv-x="623" 
d="M636 1114l-129 -157h-144l113 157h160zM404 639q-61 0 -98 34.5t-37 89.5q0 56 37 90t98 34q62 0 99.5 -34t37.5 -90q0 -55 -38 -89.5t-99 -34.5zM404 812q-22 0 -35.5 -13.5t-13.5 -35.5q0 -21 13.5 -34t35.5 -13q23 0 36.5 13t13.5 34q0 22 -13.5 35.5t-36.5 13.5z
M258 590h243l67 -590h-159l-10 101h-219l-50 -101h-175zM241 224h147l-24 245h-2z" />
    <glyph glyph-name="atilde.sc" horiz-adv-x="623" 
d="M344 714q-30 0 -42 -53h-93q33 159 133 159q38 0 76 -29q37 -26 54 -26t27 12.5t17 40.5h93q-33 -159 -134 -159q-43 0 -77 27q-40 28 -54 28zM258 590h243l67 -590h-159l-10 101h-219l-50 -101h-175zM241 224h147l-24 245h-2z" />
    <glyph glyph-name="ae.sc" horiz-adv-x="753" 
d="M740 457h-211l-7 -92h196l-26 -133h-181l-7 -100h171l-27 -132h-318l9 103h-154l-53 -103h-177l324 590h487zM248 225h102l22 236h-2z" />
    <glyph glyph-name="aeacute.sc" horiz-adv-x="753" 
d="M677 817l-129 -157h-144l113 157h160zM740 457h-211l-7 -92h196l-26 -133h-181l-7 -100h171l-27 -132h-318l9 103h-154l-53 -103h-177l324 590h487zM248 225h102l22 236h-2z" />
    <glyph glyph-name="b.sc" horiz-adv-x="579" 
d="M438 307q51 -17 72.5 -45t21.5 -75q0 -92 -66 -139.5t-173 -47.5h-266l118 590h243q89 0 133 -35.5t44 -100.5q0 -114 -127 -147zM307 361q87 0 87 63q0 58 -73 58h-37l-25 -121h48zM255 110q108 0 108 76q0 66 -88 66h-37l-29 -142h46z" />
    <glyph glyph-name="c.sc" horiz-adv-x="656" 
d="M317 -16q-131 0 -198 74t-67 197q0 150 90 250t241 100q114 0 181 -61.5t67 -161.5q0 -7 -2 -27h-169q1 10 1 24q0 38 -23 62.5t-66 24.5q-52 0 -88 -32.5t-50.5 -79.5t-14.5 -102q0 -128 108 -128q89 1 113 87h171q-23 -105 -98 -166t-196 -61z" />
    <glyph glyph-name="cacute.sc" horiz-adv-x="656" 
d="M317 660l113 157h160l-129 -157h-144zM317 -16q-131 0 -198 74t-67 197q0 150 90 250t241 100q114 0 181 -61.5t67 -161.5q0 -7 -2 -27h-169q1 10 1 24q0 38 -23 62.5t-66 24.5q-52 0 -88 -32.5t-50.5 -79.5t-14.5 -102q0 -128 108 -128q89 1 113 87h171
q-23 -105 -98 -166t-196 -61z" />
    <glyph glyph-name="ccaron.sc" horiz-adv-x="656" 
d="M630 818l-132 -158h-178l-67 158h133l36 -88l69 88h139zM317 -16q-131 0 -198 74t-67 197q0 150 90 250t241 100q114 0 181 -61.5t67 -161.5q0 -7 -2 -27h-169q1 10 1 24q0 38 -23 62.5t-66 24.5q-52 0 -88 -32.5t-50.5 -79.5t-14.5 -102q0 -128 108 -128q89 1 113 87
h171q-23 -105 -98 -166t-196 -61z" />
    <glyph glyph-name="ccedilla.sc" horiz-adv-x="656" 
d="M629 355h-169q1 10 1 24q0 38 -23 62.5t-66 24.5q-52 0 -88 -32.5t-50.5 -79.5t-14.5 -102q0 -128 108 -128q89 1 113 87h171q-20 -94 -82.5 -153t-162.5 -71l-11 -24q41 -5 63.5 -28.5t22.5 -60.5q0 -55 -44 -81.5t-117 -26.5q-61 0 -105 21l30 72q33 -15 73 -15
q57 0 57 33q0 30 -63 30h-47l36 81q-104 16 -156.5 87t-52.5 180q0 150 90 250t241 100q114 0 181 -61.5t67 -161.5q0 -7 -2 -27z" />
    <glyph glyph-name="ccircumflex.sc" horiz-adv-x="656" 
d="M217 660l132 158h178l67 -158h-133l-36 88l-69 -88h-139zM317 -16q-131 0 -198 74t-67 197q0 150 90 250t241 100q114 0 181 -61.5t67 -161.5q0 -7 -2 -27h-169q1 10 1 24q0 38 -23 62.5t-66 24.5q-52 0 -88 -32.5t-50.5 -79.5t-14.5 -102q0 -128 108 -128q89 1 113 87
h171q-23 -105 -98 -166t-196 -61z" />
    <glyph glyph-name="cdotaccent.sc" horiz-adv-x="656" 
d="M424 660q-37 0 -61.5 23.5t-24.5 58.5t24.5 59t61.5 24q36 0 60.5 -24t24.5 -59t-24.5 -58.5t-60.5 -23.5zM317 -16q-131 0 -198 74t-67 197q0 150 90 250t241 100q114 0 181 -61.5t67 -161.5q0 -7 -2 -27h-169q1 10 1 24q0 38 -23 62.5t-66 24.5q-52 0 -88 -32.5
t-50.5 -79.5t-14.5 -102q0 -128 108 -128q89 1 113 87h171q-23 -105 -98 -166t-196 -61z" />
    <glyph glyph-name="d.sc" horiz-adv-x="653" 
d="M27 0l118 590h198q136 0 207 -66t71 -188q0 -142 -92.5 -239t-245.5 -97h-256zM214 132h58q89 0 133 53.5t44 145.5q0 62 -33 94t-93 32h-44z" />
    <glyph glyph-name="eth.sc" horiz-adv-x="653" 
d="M343 590q136 0 207 -66t71 -188q0 -142 -92.5 -239t-245.5 -97h-256l51 254h-50l20 98h49l48 238h198zM272 132q89 0 133 53.5t44 145.5q0 62 -33 94t-93 32h-44l-21 -105h122l-19 -98h-123l-24 -122h58z" />
    <glyph glyph-name="dcaron.sc" horiz-adv-x="653" 
d="M617 818l-132 -158h-178l-67 158h133l36 -88l69 88h139zM27 0l118 590h198q136 0 207 -66t71 -188q0 -142 -92.5 -239t-245.5 -97h-256zM214 132h58q89 0 133 53.5t44 145.5q0 62 -33 94t-93 32h-44z" />
    <glyph glyph-name="dcroat.sc" horiz-adv-x="653" 
d="M343 590q136 0 207 -66t71 -188q0 -142 -92.5 -239t-245.5 -97h-256l51 254h-50l20 98h49l48 238h198zM272 132q89 0 133 53.5t44 145.5q0 62 -33 94t-93 32h-44l-21 -105h122l-19 -98h-123l-24 -122h58z" />
    <glyph glyph-name="e.sc" horiz-adv-x="520" 
d="M27 0l118 590h388l-27 -133h-227l-19 -93h225l-27 -132h-224l-20 -100h227l-26 -132h-388z" />
    <glyph glyph-name="eacute.sc" horiz-adv-x="520" 
d="M257 660l113 157h160l-129 -157h-144zM27 0l118 590h388l-27 -133h-227l-19 -93h225l-27 -132h-224l-20 -100h227l-26 -132h-388z" />
    <glyph glyph-name="ebreve.sc" horiz-adv-x="520" 
d="M356 652q-160 0 -160 143q0 15 1 23h108q-1 -7 -1 -21q0 -57 56 -57q33 0 53.5 18t33.5 60h113q-38 -166 -204 -166zM27 0l118 590h388l-27 -133h-227l-19 -93h225l-27 -132h-224l-20 -100h227l-26 -132h-388z" />
    <glyph glyph-name="ecaron.sc" horiz-adv-x="520" 
d="M569 818l-132 -158h-178l-67 158h133l36 -88l69 88h139zM27 0l118 590h388l-27 -133h-227l-19 -93h225l-27 -132h-224l-20 -100h227l-26 -132h-388z" />
    <glyph glyph-name="ecircumflex.sc" horiz-adv-x="520" 
d="M156 660l132 158h178l67 -158h-133l-36 88l-69 -88h-139zM27 0l118 590h388l-27 -133h-227l-19 -93h225l-27 -132h-224l-20 -100h227l-26 -132h-388z" />
    <glyph glyph-name="edieresis.sc" horiz-adv-x="520" 
d="M257 659q-35 0 -58 22t-23 55q0 34 23 56.5t58 22.5t58.5 -22.5t23.5 -56.5q0 -33 -23.5 -55t-58.5 -22zM466 659q-35 0 -58 22t-23 55q0 34 23 56.5t58 22.5t58.5 -22.5t23.5 -56.5q0 -33 -23.5 -55t-58.5 -22zM27 0l118 590h388l-27 -133h-227l-19 -93h225l-27 -132
h-224l-20 -100h227l-26 -132h-388z" />
    <glyph glyph-name="edotaccent.sc" horiz-adv-x="520" 
d="M364 660q-37 0 -61.5 23.5t-24.5 58.5t24.5 59t61.5 24q36 0 60.5 -24t24.5 -59t-24.5 -58.5t-60.5 -23.5zM27 0l118 590h388l-27 -133h-227l-19 -93h225l-27 -132h-224l-20 -100h227l-26 -132h-388z" />
    <glyph glyph-name="egrave.sc" horiz-adv-x="520" 
d="M436 660h-130l-80 157h146zM27 0l118 590h388l-27 -133h-227l-19 -93h225l-27 -132h-224l-20 -100h227l-26 -132h-388z" />
    <glyph glyph-name="emacron.sc" horiz-adv-x="520" 
d="M199 686l20 99h305l-20 -99h-305zM27 0l118 590h388l-27 -133h-227l-19 -93h225l-27 -132h-224l-20 -100h227l-26 -132h-388z" />
    <glyph glyph-name="eogonek.sc" horiz-adv-x="520" 
d="M506 457h-227l-19 -93h225l-27 -132h-224l-20 -100h227l-26 -132q-27 -17 -42.5 -27.5t-32.5 -29.5t-17 -36q0 -29 35 -29q21 0 35 5l-17 -88q-34 -9 -71 -9q-52 0 -82 22.5t-30 64.5q0 77 110 127h-276l118 590h388z" />
    <glyph glyph-name="uni0259.sc" horiz-adv-x="631" 
d="M354 605q122 0 183.5 -69t61.5 -187q0 -155 -87.5 -260t-228.5 -105q-107 0 -170.5 63t-63.5 180q0 50 10 107h374v15q0 115 -91 115q-68 0 -97 -65h-171q29 99 105 152.5t175 53.5zM295 119q77 0 114 91h-201q5 -91 87 -91z" />
    <glyph glyph-name="f.sc" horiz-adv-x="484" 
d="M27 0l118 590h365l-26 -133h-205l-19 -93h203l-26 -132h-203l-47 -232h-160z" />
    <glyph glyph-name="g.sc" horiz-adv-x="643" 
d="M320 212l23 115h274l-10 -50q-28 -143 -99 -218t-199 -75q-126 0 -193 70.5t-67 184.5q0 158 91 262t245 104q115 0 177 -60.5t62 -161.5h-157q0 95 -93 95q-78 0 -118 -67t-40 -171q0 -63 23.5 -97t84.5 -34q95 0 117 103h-121z" />
    <glyph glyph-name="gbreve.sc" horiz-adv-x="643" 
d="M424 652q-160 0 -160 143q0 15 1 23h108q-1 -7 -1 -21q0 -57 56 -57q33 0 53.5 18t33.5 60h113q-38 -166 -204 -166zM374 478q-78 0 -118 -67t-40 -171q0 -63 23.5 -97t84.5 -34q95 0 117 103h-121l23 115h274l-10 -50q-28 -143 -99 -218t-199 -75q-126 0 -193 70.5
t-67 184.5q0 158 91 262t245 104q115 0 177 -60.5t62 -161.5h-157q0 95 -93 95z" />
    <glyph glyph-name="gcircumflex.sc" horiz-adv-x="643" 
d="M432 748l-69 -88h-139l132 158h178l67 -158h-133zM320 212l23 115h274l-10 -50q-28 -143 -99 -218t-199 -75q-126 0 -193 70.5t-67 184.5q0 158 91 262t245 104q115 0 177 -60.5t62 -161.5h-157q0 95 -93 95q-78 0 -118 -67t-40 -171q0 -63 23.5 -97t84.5 -34
q95 0 117 103h-121z" />
    <glyph glyph-name="uni0123.sc" horiz-adv-x="643" 
d="M320 212l23 115h274l-10 -50q-28 -143 -99 -218t-199 -75q-126 0 -193 70.5t-67 184.5q0 158 91 262t245 104q115 0 177 -60.5t62 -161.5h-157q0 95 -93 95q-78 0 -118 -67t-40 -171q0 -63 23.5 -97t84.5 -34q95 0 117 103h-121zM140 -200l68 148h161l-86 -148h-143z" />
    <glyph glyph-name="gdotaccent.sc" horiz-adv-x="643" 
d="M432 660q-37 0 -61.5 23.5t-24.5 58.5t24.5 59t61.5 24q36 0 60.5 -24t24.5 -59t-24.5 -58.5t-60.5 -23.5zM320 212l23 115h274l-10 -50q-28 -143 -99 -218t-199 -75q-126 0 -193 70.5t-67 184.5q0 158 91 262t245 104q115 0 177 -60.5t62 -161.5h-157q0 95 -93 95
q-78 0 -118 -67t-40 -171q0 -63 23.5 -97t84.5 -34q95 0 117 103h-121z" />
    <glyph glyph-name="h.sc" horiz-adv-x="672" 
d="M27 0l118 590h160l-45 -225h197l45 225h161l-118 -590h-160l45 228h-197l-46 -228h-160z" />
    <glyph glyph-name="hbar.sc" horiz-adv-x="672" 
d="M502 590h161l-118 -590h-160l45 228h-197l-46 -228h-160l118 590h160l-14 -70h197zM260 365h197l12 60h-197z" />
    <glyph glyph-name="hcircumflex.sc" horiz-adv-x="672" 
d="M228 660l132 158h178l67 -158h-133l-36 88l-69 -88h-139zM27 0l118 590h160l-45 -225h197l45 225h161l-118 -590h-160l45 228h-197l-46 -228h-160z" />
    <glyph glyph-name="i.sc" horiz-adv-x="314" 
d="M27 0l118 590h160l-118 -590h-160z" />
    <glyph glyph-name="dotlessi.sc" horiz-adv-x="314" 
d="M27 0l118 590h160l-118 -590h-160z" />
    <glyph glyph-name="iacute.sc" horiz-adv-x="314" 
d="M153 660l93 157h163l-114 -157h-142zM27 0l118 590h160l-118 -590h-160z" />
    <glyph glyph-name="ibreve.sc" horiz-adv-x="314" 
d="M242 651q-59 0 -90 30t-31 87q0 20 5 50h97q-5 -27 -5 -40q0 -38 32 -38q26 0 42 17t25 61h99q-33 -167 -174 -167zM27 0l118 590h160l-118 -590h-160z" />
    <glyph glyph-name="icircumflex.sc" horiz-adv-x="314" 
d="M89 660l107 158h150l42 -158h-109l-20 85l-55 -85h-115zM27 0l118 590h160l-118 -590h-160z" />
    <glyph glyph-name="idieresis.sc" horiz-adv-x="314" 
d="M173 664q-29 0 -46.5 18.5t-17.5 50.5q0 36 20 57.5t52 21.5q29 0 46.5 -19t17.5 -51q0 -35 -19.5 -56.5t-52.5 -21.5zM327 664q-29 0 -46.5 18.5t-17.5 50.5q0 36 20 57.5t52 21.5q30 0 47 -19t17 -51q0 -35 -19.5 -56.5t-52.5 -21.5zM27 0l118 590h160l-118 -590h-160z
" />
    <glyph glyph-name="i.sc.loclTRK" horiz-adv-x="314" 
d="M256 660q-37 0 -61.5 23.5t-24.5 58.5t24.5 59t61.5 24q36 0 60.5 -24t24.5 -59t-24.5 -58.5t-60.5 -23.5zM27 0l118 590h160l-118 -590h-160z" />
    <glyph glyph-name="igrave.sc" horiz-adv-x="314" 
d="M324 660h-122l-71 157h143zM27 0l118 590h160l-118 -590h-160z" />
    <glyph glyph-name="ij.sc" horiz-adv-x="666" 
d="M27 0l118 590h160l-118 -590h-160zM341 -3q-35 0 -62 5l30 145q14 -2 26 -2q50 0 72.5 19t32.5 70l71 356h161l-78 -392q-21 -102 -81 -151.5t-172 -49.5z" />
    <glyph glyph-name="imacron.sc" horiz-adv-x="314" 
d="M116 686l20 99h255l-20 -99h-255zM27 0l118 590h160l-118 -590h-160z" />
    <glyph glyph-name="iogonek.sc" horiz-adv-x="314" 
d="M187 0q-74 -62 -74 -100q0 -22 26 -22q13 0 26 5l-17 -89q-30 -8 -61 -8q-48 0 -76 20t-28 58q0 39 27 74.5t70 61.5h-53l118 590h160z" />
    <glyph glyph-name="itilde.sc" horiz-adv-x="314" 
d="M300 659q-42 0 -65 35q-14 21 -26 21q-24 0 -33 -54h-85q18 83 44.5 121t72.5 38q39 0 64 -35q14 -21 26 -21q25 0 34 54h87q-19 -83 -45.5 -121t-73.5 -38zM27 0l118 590h160l-118 -590h-160z" />
    <glyph glyph-name="j.sc" horiz-adv-x="352" 
d="M27 -3q-35 0 -62 5l30 145q14 -2 26 -2q50 0 72.5 19t32.5 70l71 356h161l-78 -392q-21 -102 -81 -151.5t-172 -49.5z" />
    <glyph glyph-name="uni006A0301.sc" horiz-adv-x="352" 
d="M202 660l93 157h163l-114 -157h-142zM27 -3q-35 0 -62 5l30 145q14 -2 26 -2q50 0 72.5 19t32.5 70l71 356h161l-78 -392q-21 -102 -81 -151.5t-172 -49.5z" />
    <glyph glyph-name="jcircumflex.sc" horiz-adv-x="352" 
d="M138 660l107 158h150l42 -158h-109l-20 85l-55 -85h-115zM27 -3q-35 0 -62 5l30 145q14 -2 26 -2q50 0 72.5 19t32.5 70l71 356h161l-78 -392q-21 -102 -81 -151.5t-172 -49.5z" />
    <glyph glyph-name="k.sc" horiz-adv-x="625" 
d="M660 590l-267 -282l177 -308h-189l-140 272l-54 -272h-160l118 590h160l-44 -221l211 221h188z" />
    <glyph glyph-name="uni0137.sc" horiz-adv-x="625" 
d="M660 590l-267 -282l177 -308h-189l-140 272l-54 -272h-160l118 590h160l-44 -221l211 221h188zM134 -200l68 148h161l-86 -148h-143z" />
    <glyph glyph-name="kgreenlandic.sc" horiz-adv-x="625" 
d="M660 590l-267 -282l177 -308h-189l-140 272l-54 -272h-160l118 590h160l-44 -221l211 221h188z" />
    <glyph glyph-name="l.sc" horiz-adv-x="435" 
d="M27 0l118 590h160l-89 -448h182l-29 -142h-342z" />
    <glyph glyph-name="lacute.sc" horiz-adv-x="435" 
d="M176 660l113 157h160l-129 -157h-144zM27 0l118 590h160l-89 -448h182l-29 -142h-342z" />
    <glyph glyph-name="lcaron.sc" horiz-adv-x="435" 
d="M27 0l118 590h160l-89 -448h182l-29 -142h-342zM305 418l57 172h132l-74 -172h-115z" />
    <glyph glyph-name="uni013C.sc" horiz-adv-x="435" 
d="M27 0l118 590h160l-89 -448h182l-29 -142h-342zM44 -200l68 148h161l-86 -148h-143z" />
    <glyph glyph-name="ldot.sc" horiz-adv-x="522" 
d="M27 0l118 590h160l-89 -448h182l-29 -142h-342zM439 274q-43 0 -70.5 27t-27.5 69t27.5 69t70.5 27t70.5 -27t27.5 -69t-27.5 -69t-70.5 -27z" />
    <glyph glyph-name="lslash.sc" horiz-adv-x="435" 
d="M246 292l-30 -150h182l-29 -142h-342l43 213l-68 -39l25 123l67 40l51 253h160l-35 -174l147 86l-25 -125z" />
    <glyph glyph-name="m.sc" horiz-adv-x="817" 
d="M27 0l118 590h174l81 -327l211 327h197l-118 -590h-152l66 329l-211 -329h-70l-79 329l-66 -329h-151z" />
    <glyph glyph-name="n.sc" horiz-adv-x="687" 
d="M27 0l118 590h158l150 -349l70 349h155l-117 -590h-159l-150 350l-69 -350h-156z" />
    <glyph glyph-name="nacute.sc" horiz-adv-x="687" 
d="M327 660l113 157h160l-129 -157h-144zM27 0l118 590h158l150 -349l70 349h155l-117 -590h-159l-150 350l-69 -350h-156z" />
    <glyph glyph-name="napostrophe.sc" horiz-adv-x="904" 
d="M71 424l118 282h169l-160 -282h-127zM260 0l118 590h158l150 -349l70 349h156l-118 -590h-159l-149 350l-70 -350h-156z" />
    <glyph glyph-name="ncaron.sc" horiz-adv-x="687" 
d="M640 818l-132 -158h-178l-67 158h133l36 -88l69 88h139zM27 0l118 590h158l150 -349l70 349h155l-117 -590h-159l-150 350l-69 -350h-156z" />
    <glyph glyph-name="uni0146.sc" horiz-adv-x="687" 
d="M27 0l118 590h158l150 -349l70 349h155l-117 -590h-159l-150 350l-69 -350h-156zM140 -200l68 148h161l-86 -148h-143z" />
    <glyph glyph-name="eng.sc" horiz-adv-x="687" 
d="M523 590h155l-124 -623q-14 -72 -55.5 -105t-118.5 -33q-43 0 -75 4l26 126q12 -2 20 -2q46 0 54 41l1 6l-154 346l-69 -350h-156l118 590h158l152 -340z" />
    <glyph glyph-name="ntilde.sc" horiz-adv-x="687" 
d="M499 659q-43 0 -77 27q-40 28 -54 28q-30 0 -42 -53h-93q33 159 133 159q38 0 76 -29q37 -26 54 -26t27 12.5t17 40.5h93q-33 -159 -134 -159zM27 0l118 590h158l150 -349l70 349h155l-117 -590h-159l-150 350l-69 -350h-156z" />
    <glyph glyph-name="o.sc" horiz-adv-x="673" 
d="M312 -16q-129 0 -194.5 74t-65.5 197q0 150 88.5 250t238.5 100q129 0 194 -73.5t65 -197.5q0 -150 -88 -250t-238 -100zM322 123q51 0 86.5 35t49.5 81.5t14 97.5q0 129 -104 129q-74 0 -111.5 -65.5t-37.5 -148.5q0 -129 103 -129z" />
    <glyph glyph-name="oacute.sc" horiz-adv-x="673" 
d="M320 660l113 157h160l-129 -157h-144zM312 -16q-129 0 -194.5 74t-65.5 197q0 150 88.5 250t238.5 100q129 0 194 -73.5t65 -197.5q0 -150 -88 -250t-238 -100zM322 123q51 0 86.5 35t49.5 81.5t14 97.5q0 129 -104 129q-74 0 -111.5 -65.5t-37.5 -148.5q0 -129 103 -129
z" />
    <glyph glyph-name="obreve.sc" horiz-adv-x="673" 
d="M419 652q-160 0 -160 143q0 15 1 23h108q-1 -7 -1 -21q0 -57 56 -57q33 0 53.5 18t33.5 60h113q-38 -166 -204 -166zM312 -16q-129 0 -194.5 74t-65.5 197q0 150 88.5 250t238.5 100q129 0 194 -73.5t65 -197.5q0 -150 -88 -250t-238 -100zM322 123q51 0 86.5 35
t49.5 81.5t14 97.5q0 129 -104 129q-74 0 -111.5 -65.5t-37.5 -148.5q0 -129 103 -129z" />
    <glyph glyph-name="ocircumflex.sc" horiz-adv-x="673" 
d="M219 660l132 158h178l67 -158h-133l-36 88l-69 -88h-139zM312 -16q-129 0 -194.5 74t-65.5 197q0 150 88.5 250t238.5 100q129 0 194 -73.5t65 -197.5q0 -150 -88 -250t-238 -100zM322 123q51 0 86.5 35t49.5 81.5t14 97.5q0 129 -104 129q-74 0 -111.5 -65.5
t-37.5 -148.5q0 -129 103 -129z" />
    <glyph glyph-name="odieresis.sc" horiz-adv-x="673" 
d="M320 659q-35 0 -58 22t-23 55q0 34 23 56.5t58 22.5t58.5 -22.5t23.5 -56.5q0 -33 -23.5 -55t-58.5 -22zM529 659q-35 0 -58 22t-23 55q0 34 23 56.5t58 22.5t58.5 -22.5t23.5 -56.5q0 -33 -23.5 -55t-58.5 -22zM312 -16q-129 0 -194.5 74t-65.5 197q0 150 88.5 250
t238.5 100q129 0 194 -73.5t65 -197.5q0 -150 -88 -250t-238 -100zM322 123q51 0 86.5 35t49.5 81.5t14 97.5q0 129 -104 129q-74 0 -111.5 -65.5t-37.5 -148.5q0 -129 103 -129z" />
    <glyph glyph-name="ograve.sc" horiz-adv-x="673" 
d="M499 660h-130l-80 157h146zM312 -16q-129 0 -194.5 74t-65.5 197q0 150 88.5 250t238.5 100q129 0 194 -73.5t65 -197.5q0 -150 -88 -250t-238 -100zM322 123q51 0 86.5 35t49.5 81.5t14 97.5q0 129 -104 129q-74 0 -111.5 -65.5t-37.5 -148.5q0 -129 103 -129z" />
    <glyph glyph-name="ohungarumlaut.sc" horiz-adv-x="673" 
d="M253 660l116 158h140l-143 -158h-113zM432 660l115 158h140l-142 -158h-113zM312 -16q-129 0 -194.5 74t-65.5 197q0 150 88.5 250t238.5 100q129 0 194 -73.5t65 -197.5q0 -150 -88 -250t-238 -100zM322 123q51 0 86.5 35t49.5 81.5t14 97.5q0 129 -104 129
q-74 0 -111.5 -65.5t-37.5 -148.5q0 -129 103 -129z" />
    <glyph glyph-name="omacron.sc" horiz-adv-x="673" 
d="M262 686l20 99h305l-20 -99h-305zM312 -16q-129 0 -194.5 74t-65.5 197q0 150 88.5 250t238.5 100q129 0 194 -73.5t65 -197.5q0 -150 -88 -250t-238 -100zM322 123q51 0 86.5 35t49.5 81.5t14 97.5q0 129 -104 129q-74 0 -111.5 -65.5t-37.5 -148.5q0 -129 103 -129z
" />
    <glyph glyph-name="oslash.sc" horiz-adv-x="673" 
d="M719 590l-115 -104q34 -62 34 -152q0 -150 -88 -250t-238 -100q-115 0 -181 60l-47 -44h-110l112 102q-34 62 -34 153q0 150 88.5 250t238.5 100q115 0 181 -61l49 46h110zM368 466q-74 0 -111.5 -65.5t-37.5 -148.5q0 -11 2 -31l224 213q-27 32 -77 32zM322 123
q51 0 86.5 35t49.5 81.5t14 97.5q0 12 -2 30l-224 -212q24 -32 76 -32z" />
    <glyph glyph-name="oslashacute.sc" horiz-adv-x="673" 
d="M593 817l-129 -157h-144l113 157h160zM719 590l-115 -104q34 -62 34 -152q0 -150 -88 -250t-238 -100q-115 0 -181 60l-47 -44h-110l112 102q-34 62 -34 153q0 150 88.5 250t238.5 100q115 0 181 -61l49 46h110zM368 466q-74 0 -111.5 -65.5t-37.5 -148.5q0 -11 2 -31
l224 213q-27 32 -77 32zM322 123q51 0 86.5 35t49.5 81.5t14 97.5q0 12 -2 30l-224 -212q24 -32 76 -32z" />
    <glyph glyph-name="otilde.sc" horiz-adv-x="673" 
d="M491 659q-43 0 -77 27q-40 28 -54 28q-30 0 -42 -53h-93q33 159 133 159q38 0 76 -29q37 -26 54 -26t27 12.5t17 40.5h93q-33 -159 -134 -159zM312 -16q-129 0 -194.5 74t-65.5 197q0 150 88.5 250t238.5 100q129 0 194 -73.5t65 -197.5q0 -150 -88 -250t-238 -100z
M322 123q51 0 86.5 35t49.5 81.5t14 97.5q0 129 -104 129q-74 0 -111.5 -65.5t-37.5 -148.5q0 -129 103 -129z" />
    <glyph glyph-name="oe.sc" horiz-adv-x="892" 
d="M879 457h-227l-19 -92h225l-26 -133h-226l-19 -100h227l-26 -132h-358l4 25q-61 -33 -138 -33q-121 0 -182.5 72t-61.5 192q0 146 86.5 243.5t232.5 97.5q107 0 164 -68l12 61h359zM312 123q50 0 85.5 35t50 82t14.5 97q0 129 -94 129q-74 0 -111.5 -65.5t-37.5 -148.5
q0 -129 93 -129z" />
    <glyph glyph-name="p.sc" horiz-adv-x="556" 
d="M27 0l118 590h219q200 0 200 -168q0 -93 -55 -149t-150 -56h-128l-44 -217h-160zM255 337h59q86 0 86 72q0 60 -80 60h-39z" />
    <glyph glyph-name="thorn.sc" horiz-adv-x="556" 
d="M27 0l118 590h160l-16 -79h52q203 0 203 -184q0 -106 -61 -170.5t-166 -64.5h-111l-19 -92h-160zM231 219h51q48 0 73 26.5t25 70.5q0 35 -20 51t-66 16h-30z" />
    <glyph glyph-name="q.sc" horiz-adv-x="673" 
d="M638 334q0 -100 -41 -181t-116 -126l48 -101l-120 -54l-48 115q-24 -3 -49 -3q-129 0 -194.5 74t-65.5 197q0 150 88.5 250t238.5 100q129 0 194 -73.5t65 -197.5zM388 222l27 -58q57 63 57 173q0 129 -104 129q-74 0 -111.5 -65.5t-37.5 -148.5q0 -117 86 -128l-21 50z
" />
    <glyph glyph-name="r.sc" horiz-adv-x="595" 
d="M568 422q0 -78 -40.5 -129t-113.5 -67l121 -226h-166l-116 219h-22l-44 -219h-160l118 590h222q201 0 201 -168zM281 468l-27 -136h57q92 0 92 79q0 32 -18.5 44.5t-58.5 12.5h-45z" />
    <glyph glyph-name="racute.sc" horiz-adv-x="595" 
d="M558 817l-129 -157h-144l113 157h160zM568 422q0 -78 -40.5 -129t-113.5 -67l121 -226h-166l-116 219h-22l-44 -219h-160l118 590h222q201 0 201 -168zM281 468l-27 -136h57q92 0 92 79q0 32 -18.5 44.5t-58.5 12.5h-45z" />
    <glyph glyph-name="rcaron.sc" horiz-adv-x="595" 
d="M465 660h-178l-67 158h133l36 -88l69 88h139zM568 422q0 -78 -40.5 -129t-113.5 -67l121 -226h-166l-116 219h-22l-44 -219h-160l118 590h222q201 0 201 -168zM281 468l-27 -136h57q92 0 92 79q0 32 -18.5 44.5t-58.5 12.5h-45z" />
    <glyph glyph-name="uni0157.sc" horiz-adv-x="595" 
d="M568 422q0 -78 -40.5 -129t-113.5 -67l121 -226h-166l-116 219h-22l-44 -219h-160l118 590h222q201 0 201 -168zM281 468l-27 -136h57q92 0 92 79q0 32 -18.5 44.5t-58.5 12.5h-45zM125 -200l68 148h161l-86 -148h-143z" />
    <glyph glyph-name="s.sc" horiz-adv-x="555" 
d="M245 -16q-115 0 -173 43.5t-58 117.5q0 15 3 31h179q-1 -6 -1 -15q0 -53 65 -53q33 0 52.5 13t19.5 37q0 26 -25 44t-102 52q-127 55 -127 160q0 86 71.5 138.5t176.5 52.5q104 0 157.5 -40.5t53.5 -111.5q0 -15 -3 -33h-167q2 14 2 19q0 47 -62 47q-28 0 -45.5 -12.5
t-17.5 -32.5q0 -23 23 -37.5t87 -39.5q80 -31 119 -71t39 -107q0 -94 -75 -148t-192 -54z" />
    <glyph glyph-name="sacute.sc" horiz-adv-x="555" 
d="M252 660l113 157h160l-129 -157h-144zM245 -16q-115 0 -173 43.5t-58 117.5q0 15 3 31h179q-1 -6 -1 -15q0 -53 65 -53q33 0 52.5 13t19.5 37q0 26 -25 44t-102 52q-127 55 -127 160q0 86 71.5 138.5t176.5 52.5q104 0 157.5 -40.5t53.5 -111.5q0 -15 -3 -33h-167
q2 14 2 19q0 47 -62 47q-28 0 -45.5 -12.5t-17.5 -32.5q0 -23 23 -37.5t87 -39.5q80 -31 119 -71t39 -107q0 -94 -75 -148t-192 -54z" />
    <glyph glyph-name="scaron.sc" horiz-adv-x="555" 
d="M565 818l-132 -158h-178l-67 158h133l36 -88l69 88h139zM245 -16q-115 0 -173 43.5t-58 117.5q0 15 3 31h179q-1 -6 -1 -15q0 -53 65 -53q33 0 52.5 13t19.5 37q0 26 -25 44t-102 52q-127 55 -127 160q0 86 71.5 138.5t176.5 52.5q104 0 157.5 -40.5t53.5 -111.5
q0 -15 -3 -33h-167q2 14 2 19q0 47 -62 47q-28 0 -45.5 -12.5t-17.5 -32.5q0 -23 23 -37.5t87 -39.5q80 -31 119 -71t39 -107q0 -94 -75 -148t-192 -54z" />
    <glyph glyph-name="scedilla.sc" horiz-adv-x="555" 
d="M534 420h-167q2 14 2 19q0 47 -62 47q-28 0 -45.5 -12.5t-17.5 -32.5q0 -23 23 -37.5t87 -39.5q80 -31 119 -71t39 -107q0 -79 -55 -130.5t-145 -66.5l-12 -26q41 -5 63.5 -28.5t22.5 -60.5q0 -55 -44 -81.5t-117 -26.5q-61 0 -105 21l30 72q33 -15 73 -15q57 0 57 33
q0 30 -63 30h-47l34 79q-95 7 -142.5 49.5t-47.5 109.5q0 15 3 31h179q-1 -6 -1 -15q0 -53 65 -53q33 0 52.5 13t19.5 37q0 26 -25 44t-102 52q-127 55 -127 160q0 86 71.5 138.5t176.5 52.5q104 0 157.5 -40.5t53.5 -111.5q0 -15 -3 -33z" />
    <glyph glyph-name="scircumflex.sc" horiz-adv-x="555" 
d="M152 660l132 158h178l67 -158h-133l-36 88l-69 -88h-139zM245 -16q-115 0 -173 43.5t-58 117.5q0 15 3 31h179q-1 -6 -1 -15q0 -53 65 -53q33 0 52.5 13t19.5 37q0 26 -25 44t-102 52q-127 55 -127 160q0 86 71.5 138.5t176.5 52.5q104 0 157.5 -40.5t53.5 -111.5
q0 -15 -3 -33h-167q2 14 2 19q0 47 -62 47q-28 0 -45.5 -12.5t-17.5 -32.5q0 -23 23 -37.5t87 -39.5q80 -31 119 -71t39 -107q0 -94 -75 -148t-192 -54z" />
    <glyph glyph-name="uni0219.sc" horiz-adv-x="555" 
d="M245 -16q-115 0 -173 43.5t-58 117.5q0 15 3 31h179q-1 -6 -1 -15q0 -53 65 -53q33 0 52.5 13t19.5 37q0 26 -25 44t-102 52q-127 55 -127 160q0 86 71.5 138.5t176.5 52.5q104 0 157.5 -40.5t53.5 -111.5q0 -15 -3 -33h-167q2 14 2 19q0 47 -62 47q-28 0 -45.5 -12.5
t-17.5 -32.5q0 -23 23 -37.5t87 -39.5q80 -31 119 -71t39 -107q0 -94 -75 -148t-192 -54zM103 -200l68 148h161l-86 -148h-143z" />
    <glyph glyph-name="germandbls.sc" horiz-adv-x="618" 
d="M633 590l-1 -5l-132 -246q75 -36 75 -135q0 -93 -68 -150.5t-173 -57.5q-57 0 -99 9l27 132q19 -4 51 -4q99 0 99 73q0 65 -78 65q-14 0 -30 -2v3l97 181h-123l-91 -453h-160l118 590h488z" />
    <glyph glyph-name="t.sc" horiz-adv-x="481" 
d="M110 0l92 457h-145l26 133h450l-26 -133h-144l-92 -457h-161z" />
    <glyph glyph-name="tbar.sc" horiz-adv-x="481" 
d="M507 457h-144l-20 -100h85l-19 -98h-86l-52 -259h-161l52 259h-86l20 98h86l20 100h-145l26 133h450z" />
    <glyph glyph-name="tcaron.sc" horiz-adv-x="481" 
d="M545 818l-132 -158h-178l-67 158h133l36 -88l69 88h139zM110 0l92 457h-145l26 133h450l-26 -133h-144l-92 -457h-161z" />
    <glyph glyph-name="uni0163.sc" horiz-adv-x="481" 
d="M83 590h450l-26 -133h-144l-92 -457h-23l-17 -37q41 -5 63.5 -28.5t22.5 -60.5q0 -55 -44 -81.5t-117 -26.5q-61 0 -105 21l30 72q33 -15 73 -15q57 0 57 33q0 30 -63 30h-47l41 93h-32l92 457h-145z" />
    <glyph glyph-name="uni021B.sc" horiz-adv-x="481" 
d="M110 0l92 457h-145l26 133h450l-26 -133h-144l-92 -457h-161zM34 -200l68 148h161l-86 -148h-143z" />
    <glyph glyph-name="u.sc" horiz-adv-x="629" 
d="M291 -16q-238 0 -238 194q0 30 8 72l68 340h162l-70 -353q-6 -26 -6 -46q0 -67 80 -67q49 0 72 23t33 70l75 373h160l-79 -395q-43 -211 -265 -211z" />
    <glyph glyph-name="uacute.sc" horiz-adv-x="629" 
d="M305 660l113 157h160l-129 -157h-144zM291 -16q-238 0 -238 194q0 30 8 72l68 340h162l-70 -353q-6 -26 -6 -46q0 -67 80 -67q49 0 72 23t33 70l75 373h160l-79 -395q-43 -211 -265 -211z" />
    <glyph glyph-name="ubreve.sc" horiz-adv-x="629" 
d="M404 652q-160 0 -160 143q0 15 1 23h108q-1 -7 -1 -21q0 -57 56 -57q33 0 53.5 18t33.5 60h113q-38 -166 -204 -166zM291 -16q-238 0 -238 194q0 30 8 72l68 340h162l-70 -353q-6 -26 -6 -46q0 -67 80 -67q49 0 72 23t33 70l75 373h160l-79 -395q-43 -211 -265 -211z" />
    <glyph glyph-name="ucircumflex.sc" horiz-adv-x="629" 
d="M204 660l132 158h178l67 -158h-133l-36 88l-69 -88h-139zM291 -16q-238 0 -238 194q0 30 8 72l68 340h162l-70 -353q-6 -26 -6 -46q0 -67 80 -67q49 0 72 23t33 70l75 373h160l-79 -395q-43 -211 -265 -211z" />
    <glyph glyph-name="udieresis.sc" horiz-adv-x="629" 
d="M305 659q-35 0 -58 22t-23 55q0 34 23 56.5t58 22.5t58.5 -22.5t23.5 -56.5q0 -33 -23.5 -55t-58.5 -22zM514 659q-35 0 -58 22t-23 55q0 34 23 56.5t58 22.5t58.5 -22.5t23.5 -56.5q0 -33 -23.5 -55t-58.5 -22zM291 -16q-238 0 -238 194q0 30 8 72l68 340h162l-70 -353
q-6 -26 -6 -46q0 -67 80 -67q49 0 72 23t33 70l75 373h160l-79 -395q-43 -211 -265 -211z" />
    <glyph glyph-name="ugrave.sc" horiz-adv-x="629" 
d="M484 660h-130l-80 157h146zM291 -16q-238 0 -238 194q0 30 8 72l68 340h162l-70 -353q-6 -26 -6 -46q0 -67 80 -67q49 0 72 23t33 70l75 373h160l-79 -395q-43 -211 -265 -211z" />
    <glyph glyph-name="uhungarumlaut.sc" horiz-adv-x="629" 
d="M238 660l116 158h140l-143 -158h-113zM417 660l115 158h140l-142 -158h-113zM291 -16q-238 0 -238 194q0 30 8 72l68 340h162l-70 -353q-6 -26 -6 -46q0 -67 80 -67q49 0 72 23t33 70l75 373h160l-79 -395q-43 -211 -265 -211z" />
    <glyph glyph-name="umacron.sc" horiz-adv-x="629" 
d="M247 686l20 99h305l-20 -99h-305zM291 -16q-238 0 -238 194q0 30 8 72l68 340h162l-70 -353q-6 -26 -6 -46q0 -67 80 -67q49 0 72 23t33 70l75 373h160l-79 -395q-43 -211 -265 -211z" />
    <glyph glyph-name="uogonek.sc" horiz-adv-x="629" 
d="M475 590h160l-79 -395q-15 -72 -46.5 -116.5t-89.5 -78.5q-27 -17 -42.5 -27.5t-32.5 -29.5t-17 -36q0 -29 35 -29q21 0 35 5l-17 -88q-35 -9 -71 -9q-52 0 -82 22.5t-30 64.5q0 65 79 111q-224 6 -224 194q0 30 8 72l68 340h162l-70 -353q-6 -26 -6 -46q0 -67 80 -67
q49 0 72 23t33 70z" />
    <glyph glyph-name="uring.sc" horiz-adv-x="629" 
d="M405 639q-61 0 -98 34.5t-37 89.5q0 56 37 90t98 34q62 0 99.5 -34t37.5 -90q0 -55 -38 -89.5t-99 -34.5zM405 716q23 0 36.5 13t13.5 34q0 22 -13.5 35.5t-36.5 13.5q-22 0 -35.5 -13.5t-13.5 -35.5q0 -21 13.5 -34t35.5 -13zM291 -16q-238 0 -238 194q0 30 8 72l68 340
h162l-70 -353q-6 -26 -6 -46q0 -67 80 -67q49 0 72 23t33 70l75 373h160l-79 -395q-43 -211 -265 -211z" />
    <glyph glyph-name="utilde.sc" horiz-adv-x="629" 
d="M476 659q-43 0 -77 27q-40 28 -54 28q-30 0 -42 -53h-93q33 159 133 159q38 0 76 -29q37 -26 54 -26t27 12.5t17 40.5h93q-33 -159 -134 -159zM291 -16q-238 0 -238 194q0 30 8 72l68 340h162l-70 -353q-6 -26 -6 -46q0 -67 80 -67q49 0 72 23t33 70l75 373h160l-79 -395
q-43 -211 -265 -211z" />
    <glyph glyph-name="v.sc" horiz-adv-x="605" 
d="M491 590h177l-335 -590h-160l-100 590h159l51 -392z" />
    <glyph glyph-name="w.sc" horiz-adv-x="829" 
d="M726 590h165l-277 -590h-166l-11 365l-156 -365h-165l-43 590h151l17 -353l152 353h167l9 -352z" />
    <glyph glyph-name="wacute.sc" horiz-adv-x="829" 
d="M670 817l-129 -157h-144l113 157h160zM726 590h165l-277 -590h-166l-11 365l-156 -365h-165l-43 590h151l17 -353l152 353h167l9 -352z" />
    <glyph glyph-name="wcircumflex.sc" horiz-adv-x="829" 
d="M504 748l-69 -88h-139l132 158h178l67 -158h-133zM726 590h165l-277 -590h-166l-11 365l-156 -365h-165l-43 590h151l17 -353l152 353h167l9 -352z" />
    <glyph glyph-name="wdieresis.sc" horiz-adv-x="829" 
d="M397 659q-35 0 -58 22t-23 55q0 34 23 56.5t58 22.5t58.5 -22.5t23.5 -56.5q0 -33 -23.5 -55t-58.5 -22zM606 659q-35 0 -58 22t-23 55q0 34 23 56.5t58 22.5t58.5 -22.5t23.5 -56.5q0 -33 -23.5 -55t-58.5 -22zM726 590h165l-277 -590h-166l-11 365l-156 -365h-165
l-43 590h151l17 -353l152 353h167l9 -352z" />
    <glyph glyph-name="wgrave.sc" horiz-adv-x="829" 
d="M576 660h-130l-80 157h146zM726 590h165l-277 -590h-166l-11 365l-156 -365h-165l-43 590h151l17 -353l152 353h167l9 -352z" />
    <glyph glyph-name="x.sc" horiz-adv-x="616" 
d="M-23 0l245 311l-148 279h175l80 -159l104 159h203l-228 -294l153 -296h-174l-86 171l-118 -171h-206z" />
    <glyph glyph-name="y.sc" horiz-adv-x="543" 
d="M141 0l51 253l-119 337h160l59 -179l129 179h185l-254 -337l-51 -253h-160z" />
    <glyph glyph-name="yacute.sc" horiz-adv-x="543" 
d="M252 660l113 157h160l-129 -157h-144zM141 0l51 253l-119 337h160l59 -179l129 179h185l-254 -337l-51 -253h-160z" />
    <glyph glyph-name="ycircumflex.sc" horiz-adv-x="543" 
d="M151 660l132 158h178l67 -158h-133l-36 88l-69 -88h-139zM141 0l51 253l-119 337h160l59 -179l129 179h185l-254 -337l-51 -253h-160z" />
    <glyph glyph-name="ydieresis.sc" horiz-adv-x="543" 
d="M253 659q-35 0 -58 22t-23 55q0 34 23 56.5t58 22.5t58.5 -22.5t23.5 -56.5q0 -33 -23.5 -55t-58.5 -22zM462 659q-35 0 -58 22t-23 55q0 34 23 56.5t58 22.5t58.5 -22.5t23.5 -56.5q0 -33 -23.5 -55t-58.5 -22zM141 0l51 253l-119 337h160l59 -179l129 179h185
l-254 -337l-51 -253h-160z" />
    <glyph glyph-name="ygrave.sc" horiz-adv-x="543" 
d="M432 660h-130l-80 157h146zM141 0l51 253l-119 337h160l59 -179l129 179h185l-254 -337l-51 -253h-160z" />
    <glyph glyph-name="z.sc" horiz-adv-x="548" 
d="M-28 0l307 453h-216l27 137h467l-304 -454h241l-28 -136h-494z" />
    <glyph glyph-name="zacute.sc" horiz-adv-x="548" 
d="M240 660l113 157h160l-129 -157h-144zM-28 0l307 453h-216l27 137h467l-304 -454h241l-28 -136h-494z" />
    <glyph glyph-name="zcaron.sc" horiz-adv-x="548" 
d="M553 818l-132 -158h-178l-67 158h133l36 -88l69 88h139zM-28 0l307 453h-216l27 137h467l-304 -454h241l-28 -136h-494z" />
    <glyph glyph-name="zdotaccent.sc" horiz-adv-x="548" 
d="M347 660q-37 0 -61.5 23.5t-24.5 58.5t24.5 59t61.5 24q36 0 60.5 -24t24.5 -59t-24.5 -58.5t-60.5 -23.5zM-28 0l307 453h-216l27 137h467l-304 -454h241l-28 -136h-494z" />
    <glyph glyph-name="m.sc.ss01" horiz-adv-x="784" 
d="M27 0l118 590h181l80 -200l158 200h212l-118 -590h-157l79 393l-167 -210h-68l-84 210l-78 -393h-156z" />
    <glyph glyph-name="q.sc.ss02" horiz-adv-x="673" 
d="M638 334q0 -108 -47.5 -193t-133.5 -126l35 -98l-148 -49l-35 116q-128 1 -192.5 74.5t-64.5 196.5q0 150 88.5 250t238.5 100q129 0 194 -73.5t65 -197.5zM322 123q51 0 86.5 35t49.5 81.5t14 97.5q0 129 -104 129q-74 0 -111.5 -65.5t-37.5 -148.5q0 -129 103 -129z
" />
    <glyph glyph-name="oslash.sc.ss04" horiz-adv-x="673" 
d="M713 587l-104 -110q29 -58 29 -143q0 -150 -88 -250t-238 -100q-82 0 -139 31l-92 -102l-100 91l101 106q-30 62 -30 145q0 150 88.5 250t238.5 100q81 0 140 -31l95 103zM322 123q51 0 86.5 35t49.5 81.5t14 97.5q0 129 -104 129q-74 0 -111.5 -65.5t-37.5 -148.5
q0 -129 103 -129z" />
    <glyph glyph-name="A.subs" horiz-adv-x="435" 
d="M234 -120l-5 57h-138l-28 -57h-133l198 388h185l44 -388h-123zM136 32h84l-13 144h-1z" />
    <glyph glyph-name="B.subs" horiz-adv-x="410" 
d="M275 92q59 -24 59 -89q0 -62 -41.5 -92.5t-112.5 -30.5h-196l77 388h174q59 0 89.5 -18t30.5 -64q0 -75 -80 -94zM179 118q54 0 54 38q0 34 -44 34h-21l-14 -72h25zM151 -42q64 0 64 48q0 38 -50 38h-26l-17 -86h29z" />
    <glyph glyph-name="C.subs" horiz-adv-x="447" 
d="M173 -131q-85 0 -130 47t-45 135q0 100 57.5 164t160.5 64q82 0 129 -38t47 -103q0 -12 -3 -27h-127q3 29 -11.5 45.5t-42.5 16.5q-41 0 -60.5 -38t-19.5 -84q0 -75 59 -75q49 0 60 44h126q-15 -71 -65.5 -111t-134.5 -40z" />
    <glyph glyph-name="D.subs" horiz-adv-x="460" 
d="M-16 -120l77 388h139q101 0 146.5 -44t45.5 -129q0 -95 -63.5 -155t-169.5 -60h-175zM127 -19h29q53 0 79.5 32t26.5 80q0 75 -72 75h-26z" />
    <glyph glyph-name="E.subs" horiz-adv-x="366" 
d="M-16 -120l77 388h267l-18 -94h-145l-10 -51h143l-19 -94h-143l-10 -54h144l-19 -95h-267z" />
    <glyph glyph-name="F.subs" horiz-adv-x="341" 
d="M-16 -120l77 388h251l-19 -94h-128l-11 -58h126l-19 -94h-126l-28 -142h-123z" />
    <glyph glyph-name="G.subs" horiz-adv-x="455" 
d="M186 22l15 77h189l-9 -55q-14 -84 -67 -129.5t-140 -45.5q-88 0 -133.5 45.5t-45.5 129.5q0 100 62.5 167.5t171.5 67.5q76 0 120.5 -37t44.5 -111h-124q0 50 -52 50q-44 0 -68 -34.5t-24 -92.5q0 -85 65 -85q52 0 66 53h-71z" />
    <glyph glyph-name="H.subs" horiz-adv-x="479" 
d="M-16 -120l77 388h123l-28 -141h116l29 141h123l-77 -388h-123l28 142h-117l-28 -142h-123z" />
    <glyph glyph-name="I.subs" horiz-adv-x="239" 
d="M-16 -120l77 388h123l-77 -388h-123z" />
    <glyph glyph-name="J.subs" horiz-adv-x="251" 
d="M-23 -122q-21 0 -40 3l23 112q3 -1 13 -1q33 0 47 12t21 46l43 218h124l-50 -254q-28 -136 -181 -136z" />
    <glyph glyph-name="K.subs" horiz-adv-x="456" 
d="M431 268l-180 -191l127 -197h-141l-99 158l-31 -158h-123l77 388h123l-27 -134l120 134h154z" />
    <glyph glyph-name="L.subs" horiz-adv-x="304" 
d="M-16 -120l77 388h123l-55 -279h111l-21 -109h-235z" />
    <glyph glyph-name="M.subs" horiz-adv-x="575" 
d="M-16 -120l77 388h127l56 -197l132 197h144l-77 -388h-116l40 201l-133 -201h-41l-54 201l-40 -201h-115z" />
    <glyph glyph-name="N.subs" horiz-adv-x="488" 
d="M-16 -120l77 388h120l92 -209l41 209h119l-77 -388h-121l-91 209l-41 -209h-119z" />
    <glyph glyph-name="O.subs" horiz-adv-x="466" 
d="M176 -131q-91 0 -135.5 49.5t-44.5 131.5q0 98 62.5 163.5t160.5 65.5q91 0 135.5 -49t44.5 -131q0 -99 -62 -164.5t-161 -65.5zM182 -25q44 0 66.5 36.5t22.5 87.5q0 74 -58 74q-43 0 -65.5 -36.5t-22.5 -89.5q0 -72 57 -72z" />
    <glyph glyph-name="P.subs" horiz-adv-x="393" 
d="M-16 -120l77 388h143q148 0 148 -121q0 -66 -40.5 -100t-113.5 -34h-65l-26 -133h-123zM150 96h23q58 0 58 48q0 41 -47 41h-16z" />
    <glyph glyph-name="Q.subs" horiz-adv-x="466" 
d="M399 99q0 -64 -28 -116.5t-77 -82.5l27 -53l-86 -37l-26 61q-22 -2 -33 -2q-91 0 -135.5 49.5t-44.5 131.5q0 98 62.5 163.5t160.5 65.5q91 0 135.5 -49t44.5 -131zM228 28l13 -26q30 34 30 97q0 74 -58 74q-43 0 -65.5 -36.5t-22.5 -89.5q0 -61 39 -70l-8 19z" />
    <glyph glyph-name="R.subs" horiz-adv-x="419" 
d="M355 156q0 -49 -25 -84.5t-71 -49.5l78 -142h-127l-72 134h-4l-27 -134h-123l78 388h163q130 0 130 -112zM185 185h-17l-19 -93h27q52 0 52 52q0 41 -43 41z" />
    <glyph glyph-name="S.subs" horiz-adv-x="387" 
d="M130 -131q-77 0 -118.5 27.5t-41.5 72.5q0 16 2 24h128v-2q0 -28 39 -28q38 0 38 30q0 14 -14.5 24t-60.5 28q-20 8 -33 15t-27.5 19.5t-22 30.5t-7.5 42q0 61 49.5 94t126.5 33q70 0 108 -25t38 -69q0 -16 -2 -25h-124v5q0 25 -34 25q-35 0 -35 -27q0 -13 12.5 -21
t46.5 -22q5 -2 8.5 -3t7.5 -3q48 -19 74.5 -43t26.5 -70q0 -60 -48 -96t-137 -36z" />
    <glyph glyph-name="T.subs" horiz-adv-x="327" 
d="M28 -120l58 288h-91l19 100h305l-20 -100h-90l-57 -288h-124z" />
    <glyph glyph-name="U.subs" horiz-adv-x="446" 
d="M161 -131q-161 0 -161 133q0 23 6 50l43 216h124l-44 -221q-4 -15 -4 -30q0 -41 46 -41q30 0 42.5 13.5t18.5 42.5l48 236h122l-50 -251q-29 -148 -191 -148z" />
    <glyph glyph-name="V.subs" horiz-adv-x="421" 
d="M285 268h135l-222 -388h-122l-69 388h122l30 -237z" />
    <glyph glyph-name="W.subs" horiz-adv-x="568" 
d="M441 268h126l-182 -388h-128l-4 214l-91 -214h-125l-30 388h116l10 -219l90 219h120l4 -215z" />
    <glyph glyph-name="X.subs" horiz-adv-x="441" 
d="M-70 -120l187 212l-92 176h132l42 -83l70 83h154l-162 -184l102 -204h-132l-54 105l-90 -105h-157z" />
    <glyph glyph-name="Y.subs" horiz-adv-x="376" 
d="M52 -120l34 166l-79 222h121l33 -100l73 100h141l-166 -222l-33 -166h-124z" />
    <glyph glyph-name="Z.subs" horiz-adv-x="379" 
d="M-58 -120l194 284h-128l21 104h321l-193 -284h144l-20 -104h-339z" />
    <glyph glyph-name="a.subs" horiz-adv-x="394" 
d="M165 194q77 0 111 -28t34 -85q0 -22 -6 -52l-30 -149h-117l5 25q-36 -33 -93 -33q-99 0 -99 87q0 111 176 111h49q2 14 2 17q0 28 -35 28q-31 0 -36 -24h-121q23 103 160 103zM125 -47q25 0 38.5 13.5t18.5 41.5h-36q-49 0 -49 -31q0 -24 28 -24z" />
    <glyph glyph-name="b.subs" horiz-adv-x="408" 
d="M227 194q58 0 85 -36t27 -96q0 -80 -43 -135t-115 -55q-64 0 -87 43l-7 -35h-114l84 424h118l-27 -137q33 27 79 27zM152 -30q31 0 46.5 22t15.5 57q0 45 -42 45q-40 0 -51 -51q-6 -29 -6 -40q0 -33 37 -33z" />
    <glyph glyph-name="c.subs" horiz-adv-x="383" 
d="M133 -128q-75 0 -112.5 39.5t-37.5 104.5q0 76 51.5 127t131.5 51q152 0 152 -134h-128q0 34 -32 34q-26 0 -39 -22t-13 -53q0 -49 35 -49q14 0 24 8t12 19h128q-13 -60 -60 -92.5t-112 -32.5z" />
    <glyph glyph-name="d.subs" horiz-adv-x="409" 
d="M254 304h118l-85 -424h-115l4 21q-33 -30 -83 -30q-58 0 -85 36t-27 96q0 80 43 135t115 55q60 0 85 -39zM106 16q0 -46 42 -46q40 0 51 52q6 29 6 39q0 33 -37 33q-31 0 -46.5 -22t-15.5 -56z" />
    <glyph glyph-name="e.subs" horiz-adv-x="386" 
d="M317 54q0 -20 -7 -51h-208q1 -28 10 -40.5t31 -12.5q33 0 40 25h120q-12 -48 -59.5 -75.5t-108.5 -27.5q-78 0 -115.5 36.5t-37.5 101.5q0 80 52.5 132t135.5 52q68 0 107.5 -35.5t39.5 -104.5zM162 115q-35 0 -51 -47h90q-2 47 -39 47z" />
    <glyph glyph-name="f.subs" horiz-adv-x="235" 
d="M-29 -120l42 210h-33l19 95h33l6 29q11 55 42.5 78.5t95.5 23.5q32 0 58 -7l-17 -84q-14 4 -27 4q-33 0 -39 -30l-3 -14h60l-19 -95h-60l-42 -210h-116z" />
    <glyph glyph-name="g.subs" horiz-adv-x="407" 
d="M233 185h113l-60 -304q-26 -130 -180 -130q-71 0 -112.5 25t-40.5 74h124q5 -21 33 -21q48 0 58 49l5 24q-32 -26 -79 -26q-58 0 -85 36t-27 96q0 77 42.5 131t114.5 54q64 0 87 -44zM107 21q0 -46 42 -46q40 0 51 52q5 25 5 34q0 33 -37 33q-31 0 -46 -20.5t-15 -52.5z
" />
    <glyph glyph-name="h.subs" horiz-adv-x="402" 
d="M232 194q44 0 67.5 -25.5t23.5 -72.5q0 -16 -4 -36l-35 -180h-117l33 163q2 12 2 17q0 34 -34 34t-42 -40l-35 -174h-118l84 424h117l-28 -145q37 35 86 35z" />
    <glyph glyph-name="i.subs" horiz-adv-x="212" 
d="M109 214q-26 0 -43.5 16.5t-17.5 41.5t17.5 42t43.5 17t43.5 -17t17.5 -42t-17.5 -41.5t-43.5 -16.5zM-27 -120l61 305h117l-61 -305h-117z" />
    <glyph glyph-name="j.subs" horiz-adv-x="212" 
d="M111 214q-26 0 -43.5 16.5t-17.5 41.5t17.5 42t43.5 17t43.5 -17t17.5 -42t-17.5 -41.5t-43.5 -16.5zM-40 -242q-29 0 -56 5l21 100q6 -2 19 -2q26 0 30 24l60 300h118l-65 -325q-11 -54 -41 -78t-86 -24z" />
    <glyph glyph-name="k.subs" horiz-adv-x="385" 
d="M369 185l-147 -153l100 -152h-143l-65 115l-23 -115h-118l84 424h118l-42 -210l82 91h154z" />
    <glyph glyph-name="l.subs" horiz-adv-x="212" 
d="M-27 -120l84 424h117l-84 -424h-117z" />
    <glyph glyph-name="m.subs" horiz-adv-x="584" 
d="M415 194q44 0 67.5 -25.5t23.5 -72.5q0 -16 -4 -36l-36 -180h-117l33 163q2 12 2 17q0 34 -31 34t-40 -40l-34 -174h-117l33 163q2 12 2 17q0 34 -31 34q-32 0 -40 -40l-35 -174h-118l61 305h113l-6 -30q39 39 89 39q63 0 81 -52q47 52 104 52z" />
    <glyph glyph-name="n.subs" horiz-adv-x="402" 
d="M232 194q44 0 67.5 -25.5t23.5 -72.5q0 -16 -4 -36l-35 -180h-117l33 163q2 12 2 17q0 34 -34 34t-42 -40l-35 -174h-118l61 305h113l-6 -30q41 39 91 39z" />
    <glyph glyph-name="o.subs" horiz-adv-x="392" 
d="M136 -128q-76 0 -115 39t-39 102q0 79 51.5 130t134.5 51q78 0 116 -38t38 -102q0 -81 -50.5 -131.5t-135.5 -50.5zM145 -30q28 0 41 22.5t13 55.5q0 46 -39 46q-28 0 -41 -22t-13 -54q0 -48 39 -48z" />
    <glyph glyph-name="p.subs" horiz-adv-x="409" 
d="M228 194q58 0 85 -36t27 -96q0 -80 -43 -135t-115 -55q-62 0 -84 39l-31 -152h-118l85 426h114l-5 -23q35 32 85 32zM153 -30q31 0 46.5 22t15.5 57q0 45 -42 45q-41 0 -51 -51q-6 -29 -6 -40q0 -33 37 -33z" />
    <glyph glyph-name="q.subs" horiz-adv-x="408" 
d="M233 185h113l-84 -426h-118l28 138q-32 -26 -79 -26q-58 0 -85 36t-27 96q0 80 43 135t115 55q64 0 87 -44zM106 16q0 -46 42 -46q40 0 51 52q6 29 6 39q0 33 -37 33q-31 0 -46.5 -22t-15.5 -56z" />
    <glyph glyph-name="r.subs" horiz-adv-x="282" 
d="M225 190q18 0 33 -5l-21 -104q-9 3 -26 3q-79 0 -99 -102l-21 -102h-118l61 305h112l-8 -39q37 44 87 44z" />
    <glyph glyph-name="s.subs" horiz-adv-x="335" 
d="M101 -132q-67 0 -100.5 25.5t-33.5 70.5q0 10 1 15h116v-6q0 -24 25 -24q21 0 21 16q0 10 -8 17t-29 15q-44 17 -66.5 38t-22.5 57q0 49 40 75.5t102 26.5q122 0 122 -87v-11h-111v4q0 21 -21 21q-19 0 -19 -16q0 -9 8.5 -14.5t34.5 -15.5q48 -18 71.5 -40t23.5 -58
q0 -53 -43.5 -81t-110.5 -28z" />
    <glyph glyph-name="t.subs" horiz-adv-x="247" 
d="M98 -126q-56 0 -81 20t-25 67q0 22 4 42l17 87h-36l19 95h37l14 70h117l-14 -70h63l-19 -95h-63l-16 -79q-2 -12 -2 -16q0 -25 30 -25q11 0 27 3l-19 -94q-30 -5 -53 -5z" />
    <glyph glyph-name="u.subs" horiz-adv-x="402" 
d="M224 185h118l-61 -305h-113l6 30q-41 -39 -91 -39q-44 0 -67.5 25t-23.5 72q0 16 4 36l35 181h117l-33 -163q-2 -12 -2 -18q0 -34 34 -34t42 41z" />
    <glyph glyph-name="v.subs" horiz-adv-x="371" 
d="M43 -120l-48 305h119l18 -167l84 167h134l-170 -305h-137z" />
    <glyph glyph-name="w.subs" horiz-adv-x="548" 
d="M393 185h133l-171 -305h-112l-15 150l-74 -150h-111l-48 305h118l11 -153l81 153h95l19 -153z" />
    <glyph glyph-name="x.subs" horiz-adv-x="392" 
d="M-66 -120l154 162l-89 143h126l36 -66l58 66h152l-148 -151l92 -154h-124l-43 71l-64 -71h-150z" />
    <glyph glyph-name="y.subs" horiz-adv-x="369" 
d="M214 185h134l-251 -425h-129l72 122l-45 303h118l12 -175z" />
    <glyph glyph-name="z.subs" horiz-adv-x="317" 
d="M300 185l-163 -211h113l-19 -94h-301l169 210h-114l19 95h296z" />
    <glyph glyph-name="A.sups" horiz-adv-x="435" 
d="M346 438l-5 57h-138l-28 -57h-133l198 388h185l44 -388h-123zM248 590h84l-13 144h-1z" />
    <glyph glyph-name="B.sups" horiz-adv-x="410" 
d="M387 650q59 -24 59 -89q0 -62 -41.5 -92.5t-112.5 -30.5h-196l77 388h174q59 0 89.5 -18t30.5 -64q0 -75 -80 -94zM291 676q54 0 54 38q0 34 -44 34h-21l-14 -72h25zM263 516q64 0 64 48q0 38 -50 38h-26l-17 -86h29z" />
    <glyph glyph-name="C.sups" horiz-adv-x="447" 
d="M285 427q-85 0 -130 47t-45 135q0 100 57.5 164t160.5 64q82 0 129 -38t47 -103q0 -12 -3 -27h-127q3 29 -11.5 45.5t-42.5 16.5q-41 0 -60.5 -38t-19.5 -84q0 -75 59 -75q49 0 60 44h126q-15 -71 -65.5 -111t-134.5 -40z" />
    <glyph glyph-name="D.sups" horiz-adv-x="460" 
d="M96 438l77 388h139q101 0 146.5 -44t45.5 -129q0 -95 -63.5 -155t-169.5 -60h-175zM239 539h29q53 0 79.5 32t26.5 80q0 75 -72 75h-26z" />
    <glyph glyph-name="E.sups" horiz-adv-x="366" 
d="M96 438l77 388h267l-18 -94h-145l-10 -51h143l-19 -94h-143l-10 -54h144l-19 -95h-267z" />
    <glyph glyph-name="F.sups" horiz-adv-x="341" 
d="M96 438l77 388h251l-19 -94h-128l-11 -58h126l-19 -94h-126l-28 -142h-123z" />
    <glyph glyph-name="G.sups" horiz-adv-x="455" 
d="M298 580l15 77h189l-9 -55q-14 -84 -67 -129.5t-140 -45.5q-88 0 -133.5 45.5t-45.5 129.5q0 100 62.5 167.5t171.5 67.5q76 0 120.5 -37t44.5 -111h-124q0 50 -52 50q-44 0 -68 -34.5t-24 -92.5q0 -85 65 -85q52 0 66 53h-71z" />
    <glyph glyph-name="H.sups" horiz-adv-x="479" 
d="M96 438l77 388h123l-28 -141h116l29 141h123l-77 -388h-123l28 142h-117l-28 -142h-123z" />
    <glyph glyph-name="I.sups" horiz-adv-x="239" 
d="M96 438l77 388h123l-77 -388h-123z" />
    <glyph glyph-name="J.sups" horiz-adv-x="251" 
d="M89 436q-21 0 -40 3l23 112q3 -1 13 -1q33 0 47 12t21 46l43 218h124l-50 -254q-28 -136 -181 -136z" />
    <glyph glyph-name="K.sups" horiz-adv-x="456" 
d="M543 826l-180 -191l127 -197h-141l-99 158l-31 -158h-123l77 388h123l-27 -134l120 134h154z" />
    <glyph glyph-name="L.sups" horiz-adv-x="304" 
d="M96 438l77 388h123l-55 -279h111l-21 -109h-235z" />
    <glyph glyph-name="M.sups" horiz-adv-x="575" 
d="M96 438l77 388h127l56 -197l132 197h144l-77 -388h-116l40 201l-133 -201h-41l-54 201l-40 -201h-115z" />
    <glyph glyph-name="N.sups" horiz-adv-x="488" 
d="M96 438l77 388h120l92 -209l41 209h119l-77 -388h-121l-91 209l-41 -209h-119z" />
    <glyph glyph-name="O.sups" horiz-adv-x="466" 
d="M288 427q-91 0 -135.5 49.5t-44.5 131.5q0 98 62.5 163.5t160.5 65.5q91 0 135.5 -49t44.5 -131q0 -99 -62 -164.5t-161 -65.5zM294 533q44 0 66.5 36.5t22.5 87.5q0 74 -58 74q-43 0 -65.5 -36.5t-22.5 -89.5q0 -72 57 -72z" />
    <glyph glyph-name="P.sups" horiz-adv-x="393" 
d="M96 438l77 388h143q148 0 148 -121q0 -66 -40.5 -100t-113.5 -34h-65l-26 -133h-123zM262 654h23q58 0 58 48q0 41 -47 41h-16z" />
    <glyph glyph-name="Q.sups" horiz-adv-x="466" 
d="M511 657q0 -64 -28 -116.5t-77 -82.5l27 -53l-86 -37l-26 61q-22 -2 -33 -2q-91 0 -135.5 49.5t-44.5 131.5q0 98 62.5 163.5t160.5 65.5q91 0 135.5 -49t44.5 -131zM340 586l13 -26q30 34 30 97q0 74 -58 74q-43 0 -65.5 -36.5t-22.5 -89.5q0 -61 39 -70l-8 19z" />
    <glyph glyph-name="R.sups" horiz-adv-x="419" 
d="M467 714q0 -49 -25 -84.5t-71 -49.5l78 -142h-127l-72 134h-4l-27 -134h-123l78 388h163q130 0 130 -112zM297 743h-17l-19 -93h27q52 0 52 52q0 41 -43 41z" />
    <glyph glyph-name="S.sups" horiz-adv-x="387" 
d="M242 427q-77 0 -118.5 27.5t-41.5 72.5q0 16 2 24h128v-2q0 -28 39 -28q38 0 38 30q0 14 -14.5 24t-60.5 28q-20 8 -33 15t-27.5 19.5t-22 30.5t-7.5 42q0 61 49.5 94t126.5 33q70 0 108 -25t38 -69q0 -16 -2 -25h-124v5q0 25 -34 25q-35 0 -35 -27q0 -13 12.5 -21
t46.5 -22q10 -4 16 -6q48 -19 74.5 -43t26.5 -70q0 -60 -48 -96t-137 -36z" />
    <glyph glyph-name="T.sups" horiz-adv-x="327" 
d="M140 438l58 288h-91l19 100h305l-20 -100h-90l-57 -288h-124z" />
    <glyph glyph-name="U.sups" horiz-adv-x="446" 
d="M273 427q-161 0 -161 133q0 23 6 50l43 216h124l-44 -221q-4 -15 -4 -30q0 -41 46 -41q30 0 42.5 13.5t18.5 42.5l48 236h122l-50 -251q-29 -148 -191 -148z" />
    <glyph glyph-name="V.sups" horiz-adv-x="421" 
d="M397 826h135l-222 -388h-122l-69 388h122l30 -237z" />
    <glyph glyph-name="W.sups" horiz-adv-x="568" 
d="M553 826h126l-182 -388h-128l-4 214l-91 -214h-125l-30 388h116l10 -219l90 219h120l4 -215z" />
    <glyph glyph-name="X.sups" horiz-adv-x="441" 
d="M42 438l187 212l-92 176h132l42 -83l70 83h154l-162 -184l102 -204h-132l-54 105l-90 -105h-157z" />
    <glyph glyph-name="Y.sups" horiz-adv-x="376" 
d="M164 438l34 166l-79 222h121l33 -100l73 100h141l-166 -222l-33 -166h-124z" />
    <glyph glyph-name="Z.sups" horiz-adv-x="379" 
d="M54 438l194 284h-128l21 104h321l-193 -284h144l-20 -104h-339z" />
    <glyph glyph-name="a.sups" horiz-adv-x="394" 
d="M277 752q77 0 111 -28t34 -85q0 -22 -6 -52l-30 -149h-117l5 25q-36 -33 -93 -33q-99 0 -99 87q0 111 176 111h49q2 14 2 17q0 28 -35 28q-31 0 -36 -24h-121q23 103 160 103zM237 511q25 0 38.5 13.5t18.5 41.5h-36q-49 0 -49 -31q0 -24 28 -24z" />
    <glyph glyph-name="b.sups" horiz-adv-x="408" 
d="M339 752q58 0 85 -36t27 -96q0 -80 -43 -135t-115 -55q-64 0 -87 43l-7 -35h-114l84 424h118l-27 -137q33 27 79 27zM264 528q31 0 46.5 22t15.5 57q0 45 -42 45q-41 0 -51 -51q-6 -29 -6 -40q0 -33 37 -33z" />
    <glyph glyph-name="c.sups" horiz-adv-x="383" 
d="M245 430q-75 0 -112.5 39.5t-37.5 104.5q0 76 51.5 127t131.5 51q152 0 152 -134h-128q0 34 -32 34q-26 0 -39 -22t-13 -53q0 -49 35 -49q14 0 24 8t12 19h128q-13 -60 -60 -92.5t-112 -32.5z" />
    <glyph glyph-name="d.sups" horiz-adv-x="409" 
d="M366 862h118l-85 -424h-115l4 21q-33 -30 -83 -30q-58 0 -85 36t-27 96q0 80 43 135t115 55q60 0 85 -39zM218 574q0 -46 42 -46q40 0 51 52q6 29 6 39q0 33 -37 33q-31 0 -46.5 -22t-15.5 -56z" />
    <glyph glyph-name="e.sups" horiz-adv-x="386" 
d="M429 612q0 -20 -7 -51h-208q1 -28 10 -40.5t31 -12.5q33 0 40 25h120q-12 -48 -59.5 -75.5t-108.5 -27.5q-78 0 -115.5 36.5t-37.5 101.5q0 80 52.5 132t135.5 52q68 0 107.5 -35.5t39.5 -104.5zM274 673q-35 0 -51 -47h90q-2 47 -39 47z" />
    <glyph glyph-name="f.sups" horiz-adv-x="235" 
d="M83 438l42 210h-33l19 95h33l6 29q11 55 42.5 78.5t95.5 23.5q32 0 58 -7l-17 -84q-14 4 -27 4q-33 0 -39 -30l-3 -14h60l-19 -95h-60l-42 -210h-116z" />
    <glyph glyph-name="g.sups" horiz-adv-x="407" 
d="M345 743h113l-60 -304q-26 -130 -180 -130q-71 0 -112.5 25t-40.5 74h124q5 -21 33 -21q48 0 58 49l5 24q-32 -26 -79 -26q-58 0 -85 36t-27 96q0 77 42.5 131t114.5 54q64 0 87 -44zM219 579q0 -46 42 -46q40 0 51 52q5 25 5 34q0 33 -37 33q-31 0 -46 -20.5t-15 -52.5z
" />
    <glyph glyph-name="h.sups" horiz-adv-x="402" 
d="M344 752q44 0 67.5 -25.5t23.5 -72.5q0 -16 -4 -36l-35 -180h-117l33 163q2 12 2 17q0 34 -34 34t-42 -40l-35 -174h-118l84 424h117l-28 -145q37 35 86 35z" />
    <glyph glyph-name="i.sups" horiz-adv-x="212" 
d="M221 772q-26 0 -43.5 16.5t-17.5 41.5t17.5 42t43.5 17t43.5 -17t17.5 -42t-17.5 -41.5t-43.5 -16.5zM85 438l61 305h117l-61 -305h-117z" />
    <glyph glyph-name="j.sups" horiz-adv-x="212" 
d="M223 772q-26 0 -43.5 16.5t-17.5 41.5t17.5 42t43.5 17t43.5 -17t17.5 -42t-17.5 -41.5t-43.5 -16.5zM72 316q-29 0 -56 5l21 100q6 -2 19 -2q26 0 30 24l60 300h118l-65 -325q-11 -54 -41 -78t-86 -24z" />
    <glyph glyph-name="k.sups" horiz-adv-x="385" 
d="M481 743l-147 -153l100 -152h-143l-65 115l-23 -115h-118l84 424h118l-42 -210l82 91h154z" />
    <glyph glyph-name="l.sups" horiz-adv-x="212" 
d="M85 438l84 424h117l-84 -424h-117z" />
    <glyph glyph-name="m.sups" horiz-adv-x="584" 
d="M527 752q44 0 67.5 -25.5t23.5 -72.5q0 -16 -4 -36l-36 -180h-117l33 163q2 12 2 17q0 34 -31 34t-40 -40l-34 -174h-117l33 163q2 12 2 17q0 34 -31 34q-32 0 -40 -40l-35 -174h-118l61 305h113l-6 -30q39 39 89 39q63 0 81 -52q47 52 104 52z" />
    <glyph glyph-name="n.sups" horiz-adv-x="402" 
d="M344 752q44 0 67.5 -25.5t23.5 -72.5q0 -16 -4 -36l-35 -180h-117l33 163q2 12 2 17q0 34 -34 34t-42 -40l-35 -174h-118l61 305h113l-6 -30q41 39 91 39z" />
    <glyph glyph-name="o.sups" horiz-adv-x="392" 
d="M248 430q-76 0 -115 39t-39 102q0 79 51.5 130t134.5 51q78 0 116 -38t38 -102q0 -81 -50.5 -131.5t-135.5 -50.5zM257 528q28 0 41 22.5t13 55.5q0 46 -39 46q-28 0 -41 -22t-13 -54q0 -48 39 -48z" />
    <glyph glyph-name="p.sups" horiz-adv-x="409" 
d="M340 752q58 0 85 -36t27 -96q0 -80 -43 -135t-115 -55q-62 0 -84 39l-31 -152h-118l85 426h114l-5 -23q35 32 85 32zM265 528q31 0 46.5 22t15.5 57q0 45 -42 45q-41 0 -51 -51q-6 -29 -6 -40q0 -33 37 -33z" />
    <glyph glyph-name="q.sups" horiz-adv-x="408" 
d="M345 743h113l-84 -426h-118l28 138q-32 -26 -79 -26q-58 0 -85 36t-27 96q0 80 43 135t115 55q64 0 87 -44zM218 574q0 -46 42 -46q40 0 51 52q6 29 6 39q0 33 -37 33q-31 0 -46.5 -22t-15.5 -56z" />
    <glyph glyph-name="r.sups" horiz-adv-x="282" 
d="M337 748q18 0 33 -5l-21 -104q-9 3 -26 3q-79 0 -99 -102l-21 -102h-118l61 305h112l-8 -39q37 44 87 44z" />
    <glyph glyph-name="s.sups" horiz-adv-x="335" 
d="M213 426q-67 0 -100.5 25.5t-33.5 70.5q0 10 1 15h116v-6q0 -24 25 -24q21 0 21 16q0 10 -8 17t-29 15q-44 17 -66.5 38t-22.5 57q0 49 40 75.5t102 26.5q122 0 122 -87v-11h-111v4q0 21 -21 21q-19 0 -19 -16q0 -9 8.5 -14.5t34.5 -15.5q48 -18 71.5 -40t23.5 -58
q0 -53 -43.5 -81t-110.5 -28z" />
    <glyph glyph-name="t.sups" horiz-adv-x="247" 
d="M210 432q-56 0 -81 20t-25 67q0 22 4 42l17 87h-36l19 95h37l14 70h117l-14 -70h63l-19 -95h-63l-16 -79q-2 -12 -2 -16q0 -25 30 -25q11 0 27 3l-19 -94q-30 -5 -53 -5z" />
    <glyph glyph-name="u.sups" horiz-adv-x="402" 
d="M336 743h118l-61 -305h-113l6 30q-41 -39 -91 -39q-44 0 -67.5 25t-23.5 72q0 16 4 36l35 181h117l-33 -163q-2 -12 -2 -18q0 -34 34 -34t42 41z" />
    <glyph glyph-name="v.sups" horiz-adv-x="371" 
d="M155 438l-48 305h119l18 -167l84 167h134l-170 -305h-137z" />
    <glyph glyph-name="w.sups" horiz-adv-x="548" 
d="M505 743h133l-171 -305h-112l-15 150l-74 -150h-111l-48 305h118l11 -153l81 153h95l19 -153z" />
    <glyph glyph-name="x.sups" horiz-adv-x="392" 
d="M46 438l154 162l-89 143h126l36 -66l58 66h152l-148 -151l92 -154h-124l-43 71l-64 -71h-150z" />
    <glyph glyph-name="y.sups" horiz-adv-x="369" 
d="M326 743h134l-251 -425h-129l72 122l-45 303h118l12 -175z" />
    <glyph glyph-name="z.sups" horiz-adv-x="317" 
d="M412 743l-163 -211h113l-19 -94h-301l169 210h-114l19 95h296z" />
    <glyph glyph-name="zero.lf" horiz-adv-x="683" 
d="M322 -18q-128 0 -194.5 68t-66.5 183q0 70 15 148q31 156 112.5 249.5t213.5 93.5q128 0 194.5 -68t66.5 -183q0 -70 -15 -148q-30 -155 -112 -249t-214 -94zM332 125q102 0 145 216q16 78 16 134q0 50 -25 78t-75 28q-100 0 -145 -216q-16 -78 -16 -134q0 -50 25 -78
t75 -28z" />
    <glyph glyph-name="one.lf" horiz-adv-x="397" 
d="M93 0l111 557h-114l61 149h245l-141 -706h-162z" />
    <glyph glyph-name="two.lf" horiz-adv-x="598" 
d="M-31 0l1 3l356 339q37 36 57 58t37 52.5t17 57.5q0 75 -80 75q-96 0 -119 -127h-159q23 124 96 195t199 71q117 0 175 -53t58 -146q0 -113 -103 -209q-78 -75 -194 -173h233l-28 -143h-546z" />
    <glyph glyph-name="three.lf" horiz-adv-x="599" 
d="M600 543q0 -69 -40 -114t-111 -64q102 -37 102 -149q0 -107 -82 -170.5t-209 -63.5q-131 0 -188 52t-57 153q0 30 8 72h154q-5 -30 -5 -48q0 -94 97 -94q54 0 84.5 30t30.5 77q0 90 -114 90h-12l22 110h21q134 0 134 102q0 75 -85 75q-91 0 -110 -101h-156
q22 109 94.5 166.5t187.5 57.5q117 0 175.5 -49.5t58.5 -131.5z" />
    <glyph glyph-name="four.lf" horiz-adv-x="679" 
d="M668 283l-27 -137h-96l-29 -146h-161l29 146h-401l1 3l365 557h308l-84 -423h95zM256 283h156l73 368h-1z" />
    <glyph glyph-name="five.lf" horiz-adv-x="598" 
d="M576 566h-258l-41 -107q34 7 71 7q108 0 161 -56.5t53 -154.5q0 -121 -82.5 -197t-213.5 -76q-240 0 -240 205q0 29 6 65h158q-4 -21 -4 -45q0 -91 88 -91q56 0 87.5 35t31.5 89q0 64 -43.5 93t-129.5 29q-72 0 -136 -11l130 355h420z" />
    <glyph glyph-name="six.lf" horiz-adv-x="668" 
d="M417 467q98 0 154.5 -58.5t56.5 -146.5q0 -120 -85.5 -200t-216.5 -80q-263 0 -263 265q0 129 42 236t128.5 174t203.5 67q111 0 174.5 -54t63.5 -152h-156q-2 80 -93 80q-70 0 -117.5 -58t-66.5 -147q69 74 175 74zM329 114q61 0 97 41.5t36 100.5q0 95 -95 95
q-60 0 -97.5 -42t-37.5 -97q0 -45 24.5 -71.5t72.5 -26.5z" />
    <glyph glyph-name="seven.lf" horiz-adv-x="578" 
d="M28 0l345 557h-284l29 149h535l-425 -706h-200z" />
    <glyph glyph-name="eight.lf" horiz-adv-x="639" 
d="M639 544q0 -65 -42.5 -110.5t-109.5 -56.5q104 -38 104 -162q0 -108 -84.5 -170.5t-211.5 -62.5q-134 0 -200.5 54.5t-66.5 148.5q0 78 49 133t128 69q-44 18 -67.5 56.5t-23.5 88.5q0 89 78 140.5t192 51.5q121 0 188 -47.5t67 -132.5zM382 615q-50 0 -79 -28.5
t-29 -73.5q0 -83 91 -83q49 0 79 29t30 72q0 39 -23 61.5t-69 22.5zM301 106q53 0 86.5 31.5t33.5 79.5q0 43 -25 69.5t-75 26.5q-55 0 -88 -33.5t-33 -82.5q0 -43 25.5 -67t75.5 -24z" />
    <glyph glyph-name="nine.lf" horiz-adv-x="665" 
d="M384 726q263 0 263 -265q0 -129 -42 -236t-128.5 -174t-203.5 -67q-111 0 -174.5 54t-63.5 152h156q2 -80 93 -80q70 0 117 57.5t67 146.5q-70 -73 -175 -73q-98 0 -154.5 58.5t-56.5 146.5q0 120 86 200t216 80zM343 357q60 0 97.5 42t37.5 97q0 45 -24.5 71.5
t-72.5 26.5q-61 0 -96.5 -41.5t-35.5 -100.5q0 -95 94 -95z" />
    <glyph glyph-name="zero.dnom" horiz-adv-x="441" 
d="M189 -11q-83 0 -122.5 43t-39.5 119q0 31 7 69q17 83 66 131t131 48t121.5 -43t39.5 -119q0 -31 -7 -69q-15 -82 -64.5 -130.5t-131.5 -48.5zM194 95q47 0 65 85q6 30 6 56q0 30 -8.5 43.5t-30.5 13.5q-48 0 -65 -85q-6 -30 -6 -56q0 -30 8.5 -43.5t30.5 -13.5z" />
    <glyph glyph-name="one.dnom" horiz-adv-x="291" 
d="M42 0l55 278h-69l42 110h175l-78 -388h-125z" />
    <glyph glyph-name="two.dnom" horiz-adv-x="388" 
d="M-35 0l1 6l218 191q33 29 45.5 44.5t12.5 30.5q0 32 -40 32q-44 0 -53 -49h-120q12 66 57 105t120 39q156 0 156 -114q0 -59 -55 -105q-42 -35 -90 -72h117l-22 -108h-347z" />
    <glyph glyph-name="three.dnom" horiz-adv-x="377" 
d="M268 195q55 -17 55 -76q0 -62 -49 -96t-130 -34q-151 0 -151 122q0 15 3 35l110 -1q-3 -9 -3 -18q0 -45 45 -45q25 0 39 12.5t14 33.5q0 33 -45 33h-17l15 75h17q55 0 55 38q0 14 -10 23t-29 9q-42 0 -50 -47h-113q14 68 59.5 104t120.5 36q69 0 106.5 -28.5t37.5 -78.5
q0 -70 -80 -97z" />
    <glyph glyph-name="four.dnom" horiz-adv-x="430" 
d="M189 0l14 69h-236v2l200 317h218l-44 -218h58l-19 -101h-59l-14 -69h-118zM157 170h66l36 179z" />
    <glyph glyph-name="five.dnom" horiz-adv-x="394" 
d="M160 -11q-79 0 -119 32.5t-40 92.5q0 12 2 26l118 -1q-1 -7 -1 -14q0 -43 46 -43q24 0 37.5 13t13.5 33q0 57 -110 57q-41 0 -78 -5l80 208h267l-34 -89h-152l-17 -45q15 3 35 3q69 0 102.5 -32.5t33.5 -88.5q0 -69 -50.5 -108t-133.5 -39z" />
    <glyph glyph-name="six.dnom" horiz-adv-x="431" 
d="M250 254q62 0 94.5 -31t32.5 -83q0 -68 -53.5 -109.5t-132.5 -41.5q-170 0 -170 159q0 111 59.5 181t163.5 70q74 0 113 -34.5t40 -88.5h-115q-6 34 -47 34q-64 0 -84 -86q41 30 99 30zM191 79q25 0 40 14.5t15 37.5q0 39 -44 39q-25 0 -40 -15t-15 -37q0 -39 44 -39z
" />
    <glyph glyph-name="seven.dnom" horiz-adv-x="378" 
d="M-3 0l178 280h-146l21 108h343l-248 -388h-148z" />
    <glyph glyph-name="eight.dnom" horiz-adv-x="396" 
d="M372 296q0 -34 -24 -60t-62 -32q56 -21 56 -85q0 -63 -49.5 -96.5t-126.5 -33.5q-80 0 -124 30.5t-44 88.5q0 43 26 71.5t73 32.5q-54 22 -54 79q0 49 46.5 78.5t118.5 29.5q75 0 119.5 -27.5t44.5 -75.5zM207 323q-47 0 -47 -45q0 -32 42 -32q23 0 35.5 12t12.5 31
q0 34 -43 34zM168 76q25 0 39.5 13t14.5 36q0 36 -47 36q-24 0 -38 -12.5t-14 -35.5q0 -37 45 -37z" />
    <glyph glyph-name="nine.dnom" horiz-adv-x="431" 
d="M240 399q170 0 170 -159q0 -111 -59.5 -181t-163.5 -70q-74 0 -113 34.5t-40 88.5h115q6 -34 47 -34q64 0 84 86q-41 -30 -99 -30q-62 0 -94.5 31t-32.5 83q0 68 53.5 109.5t132.5 41.5zM229 218q25 0 40 15t15 37q0 39 -44 39q-26 0 -40.5 -14.5t-14.5 -37.5
q0 -39 44 -39z" />
    <glyph glyph-name="zero.numr" horiz-adv-x="441" 
d="M253 307q-83 0 -122.5 43t-39.5 119q0 31 7 69q17 83 66 131t131 48t121.5 -43t39.5 -119q0 -31 -7 -69q-15 -82 -64.5 -130.5t-131.5 -48.5zM258 413q47 0 65 85q6 30 6 56q0 30 -8.5 43.5t-30.5 13.5q-48 0 -65 -85q-6 -30 -6 -56q0 -30 8.5 -43.5t30.5 -13.5z" />
    <glyph glyph-name="one.numr" horiz-adv-x="291" 
d="M106 318l55 278h-69l42 110h175l-78 -388h-125z" />
    <glyph glyph-name="two.numr" horiz-adv-x="388" 
d="M29 318l1 6l218 191q33 29 45.5 44.5t12.5 30.5q0 32 -40 32q-44 0 -53 -49h-120q12 66 57 105t120 39q156 0 156 -114q0 -59 -55 -105q-42 -35 -90 -72h117l-22 -108h-347z" />
    <glyph glyph-name="three.numr" horiz-adv-x="377" 
d="M332 513q55 -17 55 -76q0 -62 -49 -96t-130 -34q-151 0 -151 122q0 15 3 35l110 -1q-3 -9 -3 -18q0 -45 45 -45q25 0 39 12.5t14 33.5q0 33 -45 33h-17l15 75h17q55 0 55 38q0 14 -10 23t-29 9q-42 0 -50 -47h-113q14 68 59.5 104t120.5 36q69 0 106.5 -28.5t37.5 -78.5
q0 -70 -80 -97z" />
    <glyph glyph-name="four.numr" horiz-adv-x="430" 
d="M253 318l14 69h-236v2l200 317h218l-44 -218h58l-19 -101h-59l-14 -69h-118zM221 488h66l36 179z" />
    <glyph glyph-name="five.numr" horiz-adv-x="394" 
d="M224 307q-79 0 -119 32.5t-40 92.5q0 12 2 26l118 -1q-1 -7 -1 -14q0 -43 46 -43q24 0 37.5 13t13.5 33q0 57 -110 57q-42 0 -77 -5l79 208h267l-34 -89h-152l-17 -45q15 3 35 3q69 0 102.5 -32.5t33.5 -88.5q0 -69 -50.5 -108t-133.5 -39z" />
    <glyph glyph-name="six.numr" horiz-adv-x="431" 
d="M314 572q62 0 94.5 -31t32.5 -83q0 -68 -53.5 -109.5t-132.5 -41.5q-170 0 -170 159q0 111 59.5 181t163.5 70q74 0 113 -34.5t40 -88.5h-115q-6 34 -47 34q-64 0 -84 -86q41 30 99 30zM255 397q25 0 40 14.5t15 37.5q0 39 -44 39q-25 0 -40 -15t-15 -37q0 -39 44 -39z
" />
    <glyph glyph-name="seven.numr" horiz-adv-x="378" 
d="M61 318l178 280h-146l21 108h343l-248 -388h-148z" />
    <glyph glyph-name="eight.numr" horiz-adv-x="396" 
d="M436 614q0 -34 -24 -60t-62 -32q56 -21 56 -85q0 -63 -49.5 -96.5t-126.5 -33.5q-80 0 -124 30.5t-44 88.5q0 43 26 71.5t73 32.5q-54 22 -54 79q0 49 46.5 78.5t118.5 29.5q75 0 119.5 -27.5t44.5 -75.5zM271 641q-47 0 -47 -45q0 -32 42 -32q23 0 35.5 12t12.5 31
q0 34 -43 34zM232 394q25 0 39.5 13t14.5 36q0 36 -47 36q-24 0 -38 -12.5t-14 -35.5q0 -37 45 -37z" />
    <glyph glyph-name="nine.numr" horiz-adv-x="431" 
d="M304 717q170 0 170 -159q0 -111 -59.5 -181t-163.5 -70q-74 0 -113 34.5t-40 88.5h115q6 -34 47 -34q64 0 84 86q-41 -30 -99 -30q-62 0 -94.5 31t-32.5 83q0 68 53.5 109.5t132.5 41.5zM293 536q25 0 40 15t15 37q0 39 -44 39q-26 0 -40.5 -14.5t-14.5 -37.5
q0 -39 44 -39z" />
    <glyph glyph-name="zero.sc" horiz-adv-x="624" 
d="M278 -16q-118 0 -169 58t-51 165q0 49 12 120q24 127 99.5 202.5t193.5 75.5t168.5 -58t50.5 -165q0 -57 -12 -120q-23 -127 -98.5 -202.5t-193.5 -75.5zM291 125q85 0 116 150q12 57 12 105q0 43 -15 63.5t-54 20.5q-87 0 -116 -149q-12 -57 -12 -105q0 -44 15 -64.5
t54 -20.5z" />
    <glyph glyph-name="one.sc" horiz-adv-x="386" 
d="M78 0l89 444h-97l60 146h223l-118 -590h-157z" />
    <glyph glyph-name="two.sc" horiz-adv-x="541" 
d="M-29 0l1 3l307 294q60 59 74 83q12 20 12 38q0 51 -60 51q-69 0 -89 -89h-153q20 106 83.5 165.5t173.5 59.5q105 0 157.5 -46.5t52.5 -127.5q0 -88 -85 -161q-66 -57 -155 -130h193l-28 -140h-484z" />
    <glyph glyph-name="three.sc" horiz-adv-x="541" 
d="M524 449q0 -111 -126 -145q85 -32 85 -123q0 -90 -71 -143.5t-180 -53.5q-118 0 -169.5 43.5t-51.5 127.5q0 30 6 64h150q-3 -18 -3 -32q0 -72 72 -72q41 0 63.5 21t22.5 55q0 63 -90 63h-10l21 106h29q91 0 91 70q0 56 -65 56q-67 0 -83 -64h-147q16 90 80.5 136.5
t168.5 46.5q103 0 155 -43t52 -113z" />
    <glyph glyph-name="four.sc" horiz-adv-x="611" 
d="M590 246l-26 -134h-82l-22 -112h-157l22 112h-349l1 2l301 476h300l-69 -344h81zM230 246h122l58 291h-1z" />
    <glyph glyph-name="five.sc" horiz-adv-x="544" 
d="M244 -16q-222 0 -222 170q0 30 6 63h153q-4 -28 -4 -38q0 -64 68 -64q43 0 66 24.5t23 61.5q0 51 -39.5 71.5t-119.5 20.5q-54 0 -102 -5l111 302h375l-57 -138h-218l-27 -65q21 5 54 5q95 0 141 -47.5t46 -127.5q0 -104 -71 -168.5t-183 -64.5z" />
    <glyph glyph-name="six.sc" horiz-adv-x="613" 
d="M383 392q85 0 131.5 -47.5t46.5 -126.5q0 -103 -76 -168.5t-191 -65.5q-123 0 -178.5 64t-55.5 175q0 163 88 272.5t238 109.5q96 0 151.5 -45t63.5 -127h-152q-8 50 -73 50q-56 0 -92 -39t-50 -103q62 51 149 51zM298 113q47 0 73.5 27.5t26.5 69.5q0 70 -73 70
q-46 0 -73.5 -27.5t-27.5 -69.5q0 -70 74 -70z" />
    <glyph glyph-name="seven.sc" horiz-adv-x="526" 
d="M21 0l283 444h-235l29 146h478l-364 -590h-191z" />
    <glyph glyph-name="eight.sc" horiz-adv-x="580" 
d="M435 316q88 -32 88 -131q0 -93 -76.5 -147t-190.5 -54q-115 0 -173 45t-58 123q0 67 40 113.5t107 59.5q-78 28 -78 110q0 80 71.5 125t174.5 45q106 0 164.5 -38t58.5 -106q0 -56 -36 -96t-92 -49zM331 499q-39 0 -59.5 -20.5t-20.5 -53.5q0 -59 69 -59q37 0 59.5 20.5
t22.5 51.5q0 61 -71 61zM270 104q41 0 64.5 23t23.5 57q0 30 -19.5 50t-59.5 20t-63.5 -25t-23.5 -60q0 -65 78 -65z" />
    <glyph glyph-name="nine.sc" horiz-adv-x="613" 
d="M337 605q233 0 233 -240q0 -163 -87.5 -272t-237.5 -109q-96 0 -151.5 45t-63.5 127h152q8 -50 73 -50q56 0 92 38.5t50 102.5q-62 -51 -149 -51q-85 0 -131.5 48t-46.5 127q0 103 75.5 168.5t191.5 65.5zM305 308q47 0 74.5 27.5t27.5 69.5q0 71 -74 71
q-47 0 -73.5 -27.5t-26.5 -69.5q0 -71 72 -71z" />
    <glyph glyph-name="colon.case" horiz-adv-x="363" 
d="M237 429q-44 0 -71.5 27t-27.5 69q0 43 27.5 70t71.5 27q43 0 70.5 -27t27.5 -70q0 -42 -27.5 -69t-70.5 -27zM170 95q-43 0 -70.5 27t-27.5 69q0 43 27.5 70t70.5 27q44 0 71.5 -27t27.5 -70q0 -42 -28 -69t-71 -27z" />
    <glyph glyph-name="semicolon.case" horiz-adv-x="367" 
d="M237 429q-43 0 -70.5 27t-27.5 69q0 43 27.5 70t70.5 27q44 0 71.5 -27t27.5 -70q0 -42 -28 -69t-71 -27zM-38 -63l127 337h156l-163 -337h-120z" />
    <glyph glyph-name="exclamdown.case" horiz-adv-x="327" 
d="M238 720q44 0 71.5 -27t27.5 -70q0 -42 -28 -69t-71 -27t-70.5 27t-27.5 69q0 43 27.5 70t70.5 27zM272 475l-72 -479h-174l119 479h127z" />
    <glyph glyph-name="questiondown.case" horiz-adv-x="536" 
d="M358 725q43 0 70.5 -27t27.5 -70q0 -42 -27.5 -69t-70.5 -27t-70.5 27t-27.5 69q0 43 27.5 70t70.5 27zM420 480q-118 -126 -172.5 -197.5t-54.5 -117.5q0 -59 63 -59q38 0 54.5 21.5t23.5 61.5h155q-35 -206 -245 -206q-105 0 -162.5 47t-57.5 134q0 61 45.5 128.5
t155.5 187.5h195z" />
    <glyph glyph-name="periodcentered.case" horiz-adv-x="326" 
d="M188 279q-43 0 -70.5 27t-27.5 69t27.5 69t70.5 27t70.5 -27t27.5 -69t-27.5 -69t-70.5 -27z" />
    <glyph glyph-name="periodcentered.loclCAT.case" horiz-adv-x="93" 
d="M-1 318q-43 0 -70.5 27t-27.5 69t27.5 69.5t70.5 27.5t70.5 -27.5t27.5 -69.5t-27.5 -69t-70.5 -27z" />
    <glyph glyph-name="slash.case" horiz-adv-x="515" 
d="M-32 -50l465 806h168l-465 -806h-168z" />
    <glyph glyph-name="periodcentered.loclCAT" horiz-adv-x="193" 
d="M114 240q-43 0 -71 27t-28 69t28 69t71 27t70.5 -27t27.5 -69t-27.5 -69t-70.5 -27z" />
    <glyph glyph-name="parenleft.case" horiz-adv-x="425" 
d="M169 -142q-57 181 -57 341q0 330 242 650h152q-259 -319 -259 -665q0 -160 52 -326h-130z" />
    <glyph glyph-name="parenright.case" horiz-adv-x="426" 
d="M297 849q58 -184 58 -341q0 -331 -243 -650h-151q258 320 258 665q0 160 -52 326h130z" />
    <glyph glyph-name="braceleft.case" horiz-adv-x="402" 
d="M421 849h74l-23 -113h-10q-55 0 -78.5 -21t-33.5 -72l-37 -184q-10 -52 -37.5 -77.5t-77.5 -30.5q71 -15 71 -97q0 -22 -6 -49l-29 -141q-4 -19 -4 -38q0 -29 17.5 -42t61.5 -13h11l-23 -113h-45q-76 0 -114 37.5t-38 102.5q0 26 6 54l29 151q4 19 4 36q0 30 -18.5 42
t-60.5 12l27 130q52 0 76.5 20t34.5 70l36 182q14 70 62.5 112t124.5 42z" />
    <glyph glyph-name="braceright.case" horiz-adv-x="403" 
d="M305 468q0 -30 18.5 -42t60.5 -12l-27 -130q-52 0 -76.5 -20t-34.5 -70l-36 -182q-14 -70 -62.5 -112t-124.5 -42h-74l23 113h10q55 0 78.5 21t33.5 72l37 184q10 52 37.5 77.5t77.5 30.5q-71 15 -71 97q0 22 6 49l29 141q4 19 4 38q0 29 -17.5 42t-61.5 13h-11l23 113
h45q76 0 114 -37.5t38 -102.5q0 -25 -6 -54l-29 -151q-4 -19 -4 -36z" />
    <glyph glyph-name="bracketleft.case" horiz-adv-x="394" 
d="M52 -142l198 991h237l-24 -120h-103l-150 -751h103l-24 -120h-237z" />
    <glyph glyph-name="bracketright.case" horiz-adv-x="394" 
d="M384 849l-198 -991h-237l25 120h102l150 751h-103l24 120h237z" />
    <glyph glyph-name="hyphen.case" horiz-adv-x="410" 
d="M66 302l27 133h298l-27 -133h-298z" />
    <glyph glyph-name="uni00AD.case" horiz-adv-x="410" 
d="M66 302l27 133h298l-27 -133h-298z" />
    <glyph glyph-name="endash.case" horiz-adv-x="502" 
d="M67 304l27 133h390l-27 -133h-390z" />
    <glyph glyph-name="emdash.case" horiz-adv-x="970" 
d="M67 304l27 133h858l-27 -133h-858z" />
    <glyph glyph-name="guillemotleft.case" horiz-adv-x="599" 
d="M158 198l-113 171l172 160h168l-182 -170l108 -161h-153zM415 198l-113 171l171 160h169l-182 -170l108 -161h-153z" />
    <glyph glyph-name="guillemotright.case" horiz-adv-x="599" 
d="M230 529l114 -171l-172 -160h-169l183 170l-109 161h153zM487 529l113 -171l-171 -160h-169l182 170l-108 161h153z" />
    <glyph glyph-name="guilsinglleft.case" horiz-adv-x="343" 
d="M158 198l-113 171l172 160h168l-182 -170l108 -161h-153z" />
    <glyph glyph-name="guilsinglright.case" horiz-adv-x="343" 
d="M230 529l114 -171l-172 -160h-169l183 170l-109 161h153z" />
    <glyph glyph-name="periodcentered.loclCAT.sc" horiz-adv-x="118" 
d="M35 274q-43 0 -70.5 27t-27.5 69t27.5 69t70.5 27t70.5 -27t27.5 -69t-27.5 -69t-70.5 -27z" />
    <glyph glyph-name="slash.sc" horiz-adv-x="521" 
d="M-12 -50l396 690h167l-396 -690h-167z" />
    <glyph glyph-name="cent.ss06" horiz-adv-x="573" 
d="M564 413h-168v5q0 68 -62 68q-53 0 -83 -51t-30 -118q0 -94 72 -94q31 0 52.5 21t26.5 52h175q-21 -89 -81 -141t-148 -62l-19 -93h-112l20 99q-77 18 -114.5 74.5t-37.5 139.5q0 121 70.5 206t184.5 97l18 90h112l-19 -96q69 -17 106.5 -63t37.5 -118q0 -10 -1 -16z" />
    <glyph glyph-name="dollar.ss06" horiz-adv-x="628" 
d="M622 499h-172q2 20 2 28q0 34 -20.5 54t-61.5 20q-42 0 -65.5 -21t-23.5 -55q0 -9 1.5 -16.5t6 -14.5t8 -12t12.5 -11.5t15 -10.5t19.5 -11t21.5 -10.5t26 -12t28 -13.5q89 -42 128.5 -82.5t39.5 -115.5q0 -101 -70.5 -161.5t-189.5 -69.5l-20 -97h-122l21 101
q-91 16 -135 69.5t-44 135.5q0 15 1 24h184q-1 -8 -1 -22q0 -85 91 -85q48 0 75 21t27 56q0 18 -6.5 32t-24 27t-30.5 20.5t-44.5 23t-47.5 23.5q-74 39 -108 79.5t-34 106.5q0 96 67 156t177 68l19 95h121l-21 -103q75 -18 113 -67.5t38 -122.5q0 -17 -1 -26z" />
    <glyph glyph-name="paragraph.ss07" horiz-adv-x="739" 
d="M211 -201l93 468h-23q-210 0 -210 198q0 114 65 177.5t182 63.5h497l-26 -128h-67l-155 -779h-138l155 779h-80l-156 -779h-137zM294 393h36l37 187h-55q-105 0 -105 -105q0 -42 20.5 -62t66.5 -20z" />
    <glyph glyph-name="caroncomb.alt" 
d="M-77 534l57 172h132l-74 -172h-115z" />
    <glyph glyph-name="uni0335.Eth" 
d="M-355 305l21 105h366l-21 -105h-366z" />
    <glyph glyph-name="uni0335.Tbar" 
d="M-433 278l21 100h388l-21 -100h-388z" />
    <glyph glyph-name="caron.alt" horiz-adv-x="255" 
d="M107 534l57 172h132l-74 -172h-115z" />
    <glyph glyph-name="uni0308.case" 
d="M-233 770q-34 0 -56.5 21.5t-22.5 53.5q0 33 22.5 54.5t56.5 21.5t56.5 -21.5t22.5 -54.5q0 -32 -22.5 -53.5t-56.5 -21.5zM-11 770q-34 0 -56.5 21.5t-22.5 53.5q0 33 22.5 54.5t56.5 21.5q33 0 56 -21.5t23 -54.5q0 -32 -23 -53.5t-56 -21.5z" />
    <glyph glyph-name="uni0307.case" 
d="M-14 772q-38 0 -61.5 22.5t-23.5 58.5q0 35 24 57t61 22q36 0 59.5 -22.5t23.5 -56.5q0 -36 -23.5 -58.5t-59.5 -22.5z" />
    <glyph glyph-name="gravecomb.case" 
d="M54 772h-135l-92 142h150z" />
    <glyph glyph-name="acutecomb.case" 
d="M-201 772l114 142h170l-129 -142h-155z" />
    <glyph glyph-name="uni030B.case" 
d="M-351 772l113 142h141l-137 -142h-117zM-171 772l112 142h142l-137 -142h-117z" />
    <glyph glyph-name="uni0302.case" 
d="M-331 772l133 142h178l74 -142h-134l-38 72l-67 -72h-146z" />
    <glyph glyph-name="uni030C.case" 
d="M83 914l-133 -142h-178l-74 142h134l38 -72l67 72h146z" />
    <glyph glyph-name="uni0306.case" 
d="M-122 765q-150 0 -150 120q0 9 2 29h100v-12q0 -51 57 -51q32 0 52 14.5t34 48.5h110q-38 -149 -205 -149z" />
    <glyph glyph-name="uni030A.case" 
d="M-67 738q-60 0 -97.5 34.5t-37.5 89.5q0 56 37 90t98 34q62 0 99.5 -34t37.5 -90q0 -55 -38 -89.5t-99 -34.5zM-67 815q23 0 36.5 13t13.5 34q0 22 -13.5 35.5t-36.5 13.5q-22 0 -35.5 -13.5t-13.5 -35.5q0 -21 13.5 -34t35.5 -13z" />
    <glyph glyph-name="tildecomb.case" 
d="M-49 768q-37 0 -80 26q-42 23 -62 23q-36 0 -49 -48h-87q35 146 138 146q42 0 82 -29q29 -20 52 -20q34 0 53 49h85q-35 -147 -132 -147z" />
    <glyph glyph-name="uni0304.case" 
d="M-255 794l20 100h314l-20 -100h-314z" />
    <glyph glyph-name="uni0337.case" 
d="M-175 422l238 140l-25 -125l-238 -139l6 28l-158 -92l25 123l157 93l-15 -80z" />
    <glyph glyph-name="uni0338.case" 
d="M-858 0l218 193l8 -1l433 395l6 -1l132 120h112l-218 -192h-8l-432 -395l-6 1l-132 -120h-113z" />
    <glyph glyph-name="uni0308.narrow.case" 
d="M-183 771q-32 0 -53 21.5t-21 53.5t21.5 54t52.5 22q32 0 53.5 -22t21.5 -54t-21.5 -53.5t-53.5 -21.5zM-8 771q-32 0 -52.5 21t-20.5 53q0 33 20.5 55t52.5 22t53.5 -22t21.5 -55q0 -32 -21.5 -53t-53.5 -21z" />
    <glyph glyph-name="uni0302.narrow.case" 
d="M-289 772l112 142h175l56 -142h-126l-26 73l-55 -73h-136z" />
    <glyph glyph-name="uni0306.narrow.case" 
d="M-91 765q-139 0 -139 112q0 11 4 37h103q-1 -8 -1 -20q0 -23 9 -32.5t30 -9.5q24 0 37.5 14t22.5 48h108q-29 -149 -174 -149z" />
    <glyph glyph-name="tildecomb.narrow.case" 
d="M-36 769q-35 0 -62 25q-24 24 -42 24q-25 0 -37 -47h-81q17 73 46 108t75 35q36 0 62 -28q20 -20 33 -20q15 0 23.5 11t17.5 37h84q-18 -77 -45.5 -111t-73.5 -34z" />
    <glyph glyph-name="uni0304.narrow.case" 
d="M-210 793l21 100h268l-21 -100h-268z" />
    <glyph glyph-name="uni0335.dh" 
d="M-359 286l19 91h365l-18 -91h-366z" />
    <glyph glyph-name="uni0307.i" 
d="M-56 570q-37 0 -61.5 23.5t-24.5 58.5t24.5 59t61.5 24q36 0 60.5 -24t24.5 -59t-24.5 -58.5t-60.5 -23.5z" />
    <glyph glyph-name="uni0308.narrow" 
d="M-198 574q-29 0 -46.5 18.5t-17.5 50.5q0 36 20 57.5t52 21.5q29 0 46.5 -19t17.5 -51q0 -35 -19.5 -56.5t-52.5 -21.5zM-44 574q-29 0 -46.5 18.5t-17.5 50.5q0 36 20 57.5t52 21.5q30 0 47 -19t17 -51q0 -35 -19.5 -56.5t-52.5 -21.5z" />
    <glyph glyph-name="gravecomb.narrow" 
d="M14 570h-122l-71 157h143z" />
    <glyph glyph-name="acutecomb.narrow" 
d="M-211 570l93 157h163l-114 -157h-142z" />
    <glyph glyph-name="uni0302.narrow" 
d="M-285 570l107 158h150l42 -158h-109l-20 85l-55 -85h-115z" />
    <glyph glyph-name="uni030C.narrow" 
d="M46 729l-107 -158h-149l-43 158h109l20 -85l55 85h115z" />
    <glyph glyph-name="uni0306.narrow" 
d="M-128 561q-59 0 -90 30t-31 87q0 20 5 50h97q-5 -27 -5 -40q0 -38 32 -38q26 0 42 17t25 61h99q-33 -167 -174 -167z" />
    <glyph glyph-name="tildecomb.narrow" 
d="M-73 569q-42 0 -65 35q-14 21 -26 21q-24 0 -33 -54h-85q18 83 44.5 121t72.5 38q39 0 64 -35q14 -21 26 -21q25 0 34 54h87q-19 -83 -45.5 -121t-73.5 -38z" />
    <glyph glyph-name="uni0304.narrow" 
d="M-236 596l20 99h255l-20 -99h-255z" />
    <glyph glyph-name="uni0328.narrow" 
d="M-201 -214q-48 0 -76 20t-28 58q0 40 28 76t72 62l104 -2q-74 -62 -74 -100q0 -22 26 -22q13 0 26 5l-17 -89q-30 -8 -61 -8z" />
    <glyph glyph-name="uni0338.sc" horiz-adv-x="707" 
d="M-10 0l198 179l-1 -5l333 316l-1 2l106 98h110l-198 -179l1 5l-332 -314v-3l-106 -99h-110z" />
    <glyph glyph-name="uni0338.ss04.sc" horiz-adv-x="696" 
d="M540 394l-46 142l130 141l99 -90zM91 -87l-100 91l184 193l45 -141z" />
    <glyph glyph-name="uni0338.ss04" 
d="M-151 316l-33 150l94 114l100 -82zM-501 -82l-100 83l161 181l32 -150z" />
    <glyph glyph-name="uni0338.case.ss04" 
d="M-155 495l-59 130l164 170l100 -96zM-706 -90l-100 96l207 205l56 -131z" />
    </font>
</defs>
</svg>
